<?xml version="1.0" encoding="utf-8"?>
<!-- Generator: Adobe Illustrator 24.1.2, SVG Export Plug-In . SVG Version: 6.00 Build 0)  -->
<svg version="1.1" id="Warstwa_3" xmlns="http://www.w3.org/2000/svg" xmlns:xlink="http://www.w3.org/1999/xlink" x="0px" y="0px"
	 viewBox="0 0 430 430" style="enable-background:new 0 0 430 430;" xml:space="preserve">
<style type="text/css">
	.st0{fill:#08A88A;}
	.st1{fill:#121331;}
	.st2{fill:#08A789;}
	.st3{fill:none;}
</style>
<g>
	<path class="st1" d="M119.54,179.64h-13.75c-3.31,0-6-2.69-6-6s2.69-6,6-6h13.75c3.31,0,6,2.69,6,6S122.86,179.64,119.54,179.64z"
		/>
	<path class="st1" d="M372.08,258.38l12.3-55.72c1.79-8.14-0.24-16.62-5.59-23.27c-6-7.47-15.2-11.75-25.24-11.75h-70.07v-56.53
		c0-5.72,1.58-11.31,4.58-16.18l16.3-26.49c1.74-2.82,0.86-6.52-1.97-8.25c-2.82-1.74-6.52-0.86-8.25,1.97l-16.3,26.49
		c-4.16,6.76-6.36,14.53-6.36,22.47v56.53h-29.51l-8.93-102.9c-0.27-3.1-2.86-5.48-5.98-5.48H113.62c-3.31,0-6,2.69-6,6v102.29
		c-7.8,0.32-15.55,1.4-23.12,3.27c-14.64,3.57-28.29,9.86-40.59,18.68c-0.03,0.02-0.05,0.05-0.08,0.07
		c-0.09,0.07-0.17,0.14-0.26,0.21c-0.07,0.06-0.14,0.12-0.21,0.18c-0.08,0.07-0.16,0.15-0.23,0.23c-0.06,0.07-0.13,0.13-0.19,0.2
		c-0.07,0.08-0.13,0.16-0.2,0.24c-0.06,0.07-0.12,0.15-0.18,0.22c-0.06,0.08-0.11,0.16-0.16,0.24c-0.05,0.08-0.11,0.17-0.16,0.25
		c-0.05,0.08-0.09,0.16-0.13,0.24c-0.05,0.09-0.09,0.18-0.14,0.27c-0.04,0.08-0.07,0.17-0.11,0.25c-0.04,0.09-0.08,0.19-0.11,0.28
		c-0.03,0.09-0.06,0.18-0.08,0.27c-0.03,0.09-0.06,0.19-0.08,0.28c-0.02,0.09-0.04,0.19-0.06,0.28c-0.02,0.09-0.04,0.19-0.05,0.28
		c-0.01,0.1-0.02,0.2-0.03,0.3c-0.01,0.09-0.02,0.18-0.02,0.27c-0.01,0.1-0.01,0.2-0.01,0.31c0,0.09,0,0.18,0,0.27
		c0,0.1,0.01,0.2,0.02,0.3c0.01,0.09,0.02,0.18,0.03,0.27c0.01,0.1,0.03,0.2,0.05,0.29c0.02,0.09,0.04,0.19,0.06,0.28
		c0.02,0.09,0.05,0.19,0.08,0.28c0.03,0.1,0.06,0.19,0.09,0.29c0.03,0.09,0.07,0.17,0.1,0.26c0.04,0.1,0.08,0.2,0.13,0.3
		c0.04,0.08,0.08,0.16,0.12,0.24c0.05,0.1,0.1,0.2,0.16,0.29c0.02,0.03,0.03,0.06,0.05,0.09l14.67,23.54
		c-18.07,15.64-29.54,38.72-29.54,64.43c0,46.99,38.23,85.22,85.22,85.22c37.47,0,69.35-24.32,80.74-58.01h29.29
		c0.02,0,0.04,0,0.06,0c0.01,0,0.02,0,0.03,0h59.63c1.11,32.17,27.61,58.01,60.04,58.01c33.14,0,60.1-26.96,60.1-60.1
		C402.55,288.27,390.26,268.73,372.08,258.38z M119.62,71.26h35.1v103.9c-11.22-4.27-23.11-6.79-35.1-7.49V71.26z M112.67,358.74
		c-40.37,0-73.22-32.85-73.22-73.22s32.85-73.22,73.22-73.22c40.37,0,73.22,32.85,73.22,73.22S153.04,358.74,112.67,358.74z
		 M217.67,300.73H196.5c0.89-4.94,1.39-10.02,1.39-15.21c0-46.99-38.23-85.22-85.22-85.22c-16.95,0-32.75,5-46.04,13.56L55.55,196.1
		c9.8-6.28,20.47-10.86,31.8-13.62c8.09-1.99,16.43-2.99,24.77-3.03c0.48,0.12,0.97,0.19,1.49,0.19c0.47,0,0.93-0.06,1.37-0.16
		c12.49,0.28,24.95,2.73,36.57,7.3c33.61,13.24,58.65,43.52,65.37,79.01c1.22,6.43,1.83,13.07,1.83,19.72
		C218.76,290.61,218.39,295.71,217.67,300.73z M166.72,180.52V71.26h54.84l8.93,102.93c0,0.03,0,0.06,0.01,0.09l7.32,84.39h-10.15
		C219.8,225.14,197.18,196.3,166.72,180.52z M229.77,300.73c0.65-5.04,0.98-10.13,0.98-15.21c0-4.97-0.32-9.94-0.93-14.84h14.54
		c1.68,0,3.29-0.71,4.42-1.94c1.14-1.24,1.7-2.9,1.56-4.57l-7.33-84.52h110.54c6.39,0,12.18,2.65,15.89,7.27
		c3.1,3.86,4.25,8.54,3.22,13.17l-11.78,53.37c-5.81-1.88-12-2.9-18.42-2.9c-29.76,0-54.52,21.75-59.26,50.19H229.77z
		 M342.46,358.74c-26.52,0-48.1-21.58-48.1-48.1s21.58-48.1,48.1-48.1s48.1,21.58,48.1,48.1S368.98,358.74,342.46,358.74z"/>
	<path class="st2" d="M319.14,209.88h-37.61c-3.31,0-6-2.69-6-6s2.69-6,6-6h37.61c3.31,0,6,2.69,6,6S322.46,209.88,319.14,209.88z"
		/>
	<path class="st2" d="M319.14,238.22h-37.96c-3.31,0-6-2.69-6-6s2.69-6,6-6h37.96c3.31,0,6,2.69,6,6S322.46,238.22,319.14,238.22z"
		/>
	<path class="st2" d="M243.56,71.29H97.39c-3.31,0-6-2.69-6-6s2.69-6,6-6h146.17c3.31,0,6,2.69,6,6S246.87,71.29,243.56,71.29z"/>
	<path class="st2" d="M112.67,323.12c-20.74,0-37.61-16.87-37.61-37.6s16.87-37.61,37.61-37.61c20.74,0,37.6,16.87,37.6,37.61
		S133.4,323.12,112.67,323.12z M112.67,259.91c-14.12,0-25.61,11.49-25.61,25.61c0,14.12,11.49,25.6,25.61,25.6
		c14.12,0,25.6-11.49,25.6-25.6C138.27,271.4,126.78,259.91,112.67,259.91z"/>
	<path class="st2" d="M342.46,334.13c-12.95,0-23.49-10.54-23.49-23.49s10.54-23.49,23.49-23.49s23.49,10.54,23.49,23.49
		S355.41,334.13,342.46,334.13z M342.46,299.15c-6.33,0-11.49,5.15-11.49,11.49c0,6.33,5.15,11.49,11.49,11.49
		c6.33,0,11.49-5.15,11.49-11.49C353.95,304.31,348.79,299.15,342.46,299.15z"/>
</g>
</svg>
