<?xml version="1.0" encoding="utf-8"?>
<!-- Generator: Adobe Illustrator 23.0.3, SVG Export Plug-In . SVG Version: 6.00 Build 0)  -->
<svg version="1.1" id="Layer_1" xmlns="http://www.w3.org/2000/svg" xmlns:xlink="http://www.w3.org/1999/xlink" x="0px" y="0px"
	 viewBox="0 0 16 16" style="enable-background:new 0 0 16 16;" xml:space="preserve">
<style type="text/css">
	.st0{fill:#FFFFFF;}
	.st1{fill:#637382;}
</style>
<title>supagreement</title>
<polygon class="st0" points="13,15 3,15 3,1 11.5,1 13,2.5 "/>
<path class="st1" d="M11.4,0H3C2.4,0,2,0.4,2,1v14c0,0.6,0.4,1,1,1h10c0.6,0,1-0.4,1-1V2.6L11.4,0z M13,15H3V1h7v2c0,0.6,0.4,1,1,1
	h2V15z M11,3V1l2,2H11z"/>
<rect x="4" y="6" class="st1" width="8" height="1"/>
<rect x="4" y="8" class="st1" width="4" height="1"/>
<rect x="4" y="10" class="st1" width="2" height="1"/>
<rect x="4" y="12" class="st1" width="2" height="1"/>
<rect x="7" y="11" class="st1" width="5" height="1"/>
<rect x="9" y="9" class="st1" width="1" height="5"/>
</svg>
