<?xml version="1.0" encoding="utf-8"?>
<!-- Generator: Adobe Illustrator 23.0.3, SVG Export Plug-In . SVG Version: 6.00 Build 0)  -->
<svg version="1.1" id="Layer_1" xmlns="http://www.w3.org/2000/svg" xmlns:xlink="http://www.w3.org/1999/xlink" x="0px" y="0px"
	 viewBox="0 0 32 32" style="enable-background:new 0 0 32 32;" xml:space="preserve">
<style type="text/css">
	.st0{fill:#637382;}
</style>
<title>action_sendactualizationtask_7e7e72437b224a22baaee66f0b489e53_32</title>
<circle class="st0" cx="29.5" cy="9.5" r="2.5"/>
<circle class="st0" cx="18.5" cy="29.5" r="2.5"/>
<circle class="st0" cx="4.5" cy="11.5" r="2.5"/>
<path class="st0" d="M28,28h-3.2c5.2-3,8-9,6.9-15l-1.9,1c0.6,4.9-1.7,9.6-5.9,12.1V24c0-0.6-0.4-1-1-1s-1,0.4-1,1v5
	c0,0.6,0.4,1,1,1h5c0.6,0,1-0.4,1-1S28.6,28,28,28z"/>
<path class="st0" d="M26,0c-0.6,0-1,0.4-1,1v2.1C22.7,1.7,20.1,1,17.5,1c-4.8,0-9.3,2.4-12,6.3l1.8,1c3.8-5.5,11.4-7,17-3.3H21
	c-0.6,0-1,0.4-1,1s0.4,1,1,1h5c0.6,0,1-0.4,1-1V1C27,0.4,26.6,0,26,0z"/>
<path class="st0" d="M5.3,18.2l2.1,2.1c0.4,0.4,1,0.5,1.4,0.1c0.4-0.4,0.5-1,0.1-1.4c0,0-0.1-0.1-0.1-0.1l-3.5-3.5
	c-0.4-0.4-1-0.4-1.4,0l-3.5,3.5c-0.4,0.4-0.5,1-0.1,1.4s1,0.5,1.4,0.1c0,0,0.1-0.1,0.1-0.1l1.6-1.6C4.6,24.3,9.2,28.8,15,29.8v-2
	C10.2,26.8,6.4,23,5.3,18.2z"/>
</svg>
