<?xml version="1.0" encoding="utf-8"?>
<!-- Generator: Adobe Illustrator 23.0.3, SVG Export Plug-In . SVG Version: 6.00 Build 0)  -->
<svg version="1.1" id="Layer_1" xmlns="http://www.w3.org/2000/svg" xmlns:xlink="http://www.w3.org/1999/xlink" x="0px" y="0px"
	 viewBox="0 0 32 32" style="enable-background:new 0 0 32 32;" xml:space="preserve">
<style type="text/css">
	.st0{fill:#FFFFFF;}
	.st1{fill:#637382;}
</style>
<title>GroupIconGroup2_large_5430a5b483b34623a8a172567176cf0c</title>
<path class="st0" d="M30,13h-3c-0.2-0.4-1.1-2.2-1.3-2.6l1.7-1.7c0.8-0.8,1-1.4,0.2-2.1l-2.7-2.7c-0.8-0.8-1.1-0.1-1.9,0.6l-1.8,1.8
	c-0.3-0.1-1.8-1.1-2.1-1.2V2c0-0.5,0-1-1.1-1h-3.9c-0.5-0.1-0.9,0.2-1.1,0.7c0,0.1,0,0.2,0,0.3v3.1c-0.4,0.1-1.9,1.1-2.3,1.2l-2.2-2
	C7.8,3.6,8,3.4,6.8,3.9L4.1,6.7c-0.5,0.5-0.6,1.4,0,2c0.1,0.1,0.2,0.1,0.2,0.2l1.8,1.9C6,11,5.2,12.6,5.1,13H2
	c-0.5-0.1-0.9,0.2-1,0.6c0,0.1,0,0.2,0,0.4v4c0,0.9,1.3,1,1,1h3c0.1,0.3,0.9,1.7,1.1,2l-2,2c-0.8,0.8-1,1.6-0.3,2.3l2.7,2.8
	c0.8,0.8,1.2,0.5,1.9-0.3l1.9-1.9c0.4,0.2,2.1,1,2.6,1.2l0,2.9c0.1,0.2-0.1,1,1,1h4c0.6,0,1-0.4,1-1v-3c0.4-0.1,1.7-1.1,2.1-1.2
	l1.9,1.9c0.5,0.7,1.4,0.8,2.1,0.4c0.1-0.1,0.2-0.1,0.3-0.2L28,25c0.8-0.8,0.2-0.9-0.5-1.7l-1.9-1.9c0.2-0.4,1.2-2.1,1.3-2.5H30
	c0.5,0.1,1-0.3,1-0.8c0-0.1,0-0.2,0-0.2v-3.9c0.1-0.5-0.3-1-0.8-1.1C30.2,13,30.1,13,30,13z M16,20.9c-2.5,0.2-4.7-1.8-4.9-4.3
	c0-0.2,0-0.4,0-0.6c0-2.7,2.1-4.8,4.8-4.9c0,0,0.1,0,0.1,0c2.7,0.1,4.8,2.2,4.9,4.9c0.1,2.6-2,4.8-4.7,4.9
	C16.1,20.9,16.1,20.9,16,20.9z"/>
<path class="st1" d="M18,2v2.7c0,0.8,0.5,1.6,1.3,1.9c0.3,0.1,0.6,0.2,0.8,0.3c0.8,0.4,1.7,0.2,2.2-0.4l1.8-1.8L27,7.5l-1.7,1.7
	c-0.6,0.6-0.8,1.5-0.4,2.3c0.2,0.4,0.3,0.7,0.5,1.1c0.3,0.8,1,1.3,1.9,1.3H30v4h-2.7c-0.8,0-1.6,0.5-1.9,1.3c-0.1,0.3-0.2,0.7-0.4,1
	c-0.4,0.8-0.2,1.7,0.4,2.3l1.9,1.9l-2.8,2.8l-1.9-1.9c-0.6-0.6-1.5-0.8-2.3-0.4c-0.3,0.2-0.7,0.3-1,0.4c-0.8,0.3-1.3,1.1-1.3,1.9V30
	h-4v-2.7c0-0.8-0.5-1.6-1.3-1.9c-0.4-0.1-0.8-0.3-1.1-0.5c-0.8-0.4-1.7-0.2-2.3,0.4l-2,2l-2.8-2.8l2.1-2.1c0.6-0.6,0.8-1.5,0.4-2.2
	c-0.1-0.2-0.2-0.5-0.3-0.8c-0.3-0.8-1-1.3-1.9-1.3H2v-4h2.7c0.8,0,1.6-0.5,1.9-1.3c0.1-0.3,0.2-0.7,0.4-1c0.4-0.8,0.2-1.7-0.4-2.3
	L4.7,7.5l2.8-2.8l1.9,1.9C10,7.2,10.9,7.4,11.7,7c0.3-0.2,0.7-0.3,1-0.4C13.5,6.3,14,5.5,14,4.7V2H18 M16,22c3.3,0,6-2.7,6-6
	s-2.7-6-6-6s-6,2.7-6,6S12.7,22,16,22 M18,0h-4c-1.1,0-2,0.9-2,2v2.7c-0.4,0.1-0.8,0.3-1.2,0.5L8.9,3.3c-0.8-0.8-2-0.8-2.8,0
	c0,0,0,0,0,0L3.3,6.1c-0.8,0.8-0.8,2,0,2.8c0,0,0,0,0,0l1.9,1.9C5,11.2,4.8,11.6,4.7,12H2c-1.1,0-2,0.9-2,2v4c0,1.1,0.9,2,2,2h2.7
	c0.1,0.3,0.2,0.7,0.4,1L3,23.1c-0.8,0.8-0.8,2,0,2.8c0,0,0,0,0,0l2.8,2.8c0.8,0.8,2,0.8,2.8,0c0,0,0,0,0,0l2-2
	c0.4,0.2,0.9,0.4,1.3,0.6V30c0,1.1,0.9,2,2,2h4c1.1,0,2-0.9,2-2v-2.7c0.4-0.1,0.8-0.3,1.2-0.5l1.9,1.9c0.8,0.8,2,0.8,2.8,0
	c0,0,0,0,0,0l2.8-2.8c0.8-0.8,0.8-2,0-2.8c0,0,0,0,0,0l-1.9-1.9c0.2-0.4,0.3-0.8,0.5-1.2H30c1.1,0,2-0.9,2-2v-4c0-1.1-0.9-2-2-2
	h-2.7c-0.2-0.5-0.4-0.9-0.6-1.4l1.7-1.7c0.8-0.8,0.8-2,0-2.8c0,0,0,0,0,0l-2.8-2.8c-0.8-0.8-2-0.8-2.8,0c0,0,0,0,0,0L21,5.1
	c-0.3-0.2-0.6-0.3-1-0.4V2C20,0.9,19.1,0,18,0L18,0z M16,20c-2.2,0-4-1.8-4-4s1.8-4,4-4s4,1.8,4,4S18.2,20,16,20L16,20z"/>
</svg>
