<svg id="Layer_1" data-name="Layer 1" xmlns="http://www.w3.org/2000/svg" viewBox="0 0 16 16"><title>copy_16_2</title><rect x="2" y="1" width="8" height="11" fill="#fff"/><rect x="6" y="4" width="8" height="11" fill="#fff"/><path d="M14,4V15H6V4h8m0-1H6A1,1,0,0,0,5,4V15a1,1,0,0,0,1,1h8a1,1,0,0,0,1-1V4a1,1,0,0,0-1-1Z" fill="#798288"/><rect x="7" y="8" width="6" height="1" fill="#407fb9"/><rect x="7" y="10" width="6" height="1" fill="#407fb9"/><rect x="7" y="12" width="6" height="1" fill="#407fb9"/><rect x="7" y="6" width="6" height="1" fill="#407fb9"/><path d="M4,12H2V1h8V2h1V1a1,1,0,0,0-1-1H2A1,1,0,0,0,1,1V12a1,1,0,0,0,1,1H4Z" fill="#798288"/></svg>