<svg id="Layer_1" data-name="Layer 1" xmlns="http://www.w3.org/2000/svg" viewBox="0 0 16 16"><title>Editdocument_16-01</title><polygon points="13.5 0.36 15.54 2.67 3.79 14.73 0.38 15.42 1.27 11.88 12.77 0.58 13.5 0.36" fill="#fff"/><path d="M13.18,1l0.1,0h0l1.61,1.6c0.1,0.11.14,0.15,0,.27L3.62,14.26l-2.35.47,0.47-2.35L13.06,1.06A0.28,0.28,0,0,1,13.18,1m0-1a1.24,1.24,0,0,0-.82.36L0.82,11.88,0,16l4.12-.82L15.65,3.65a1.15,1.15,0,0,0,0-1.63l0,0L14,0.36,13.94,0.3A1.18,1.18,0,0,0,13.18,0h0Zm0.76,0.3h0Zm0,0L14,0.36h0l-0.06-.05h0Z" fill="#d7853c"/><line x1="14" y1="4.47" x2="11.53" y2="2" fill="none" stroke="#d7853c"/></svg>
