<svg width="16" height="16" viewBox="0 0 16 16" fill="none" xmlns="http://www.w3.org/2000/svg">
<path d="M13 15H3V1H11.5L13 2.5V15Z" fill="white"/>
<path fill-rule="evenodd" clip-rule="evenodd" d="M0 4H10V8L8 10.5V12H10V14H0V4Z" fill="#5C992B"/>
<path d="M7.58004 12H6.38004L5.15004 9.8C5.09296 9.70716 5.04283 9.61023 5.00004 9.51L4.89004 9.8L3.62004 12H2.42004L4.42004 9L2.58004 6H3.80004L4.88004 8C4.94671 8.13333 5.01004 8.26667 5.07004 8.4C5.16338 8.24 5.23671 8.10667 5.29004 8L6.42004 6H7.54004L5.69004 9L7.58004 12Z" fill="white"/>
<path d="M11 11V16H14V11H16L12.5 7L9 11H11Z" fill="#407FB9"/>
<path fill-rule="evenodd" clip-rule="evenodd" d="M3 0H11.4L14 2.6V7H13V4H11C10.7348 4 10.4804 3.89464 10.2929 3.70711C10.1054 3.51957 10 3.26522 10 3V1H3V3H2V1C2 0.734784 2.10536 0.48043 2.29289 0.292893C2.48043 0.105357 2.73478 0 3 0ZM10 15H2C2 15.2652 2.10536 15.5196 2.29289 15.7071C2.48043 15.8946 2.73478 16 3 16H10V15ZM11 1V3H13L11 1Z" fill="#798288"/>
</svg>
