<?xml version="1.0" encoding="utf-8"?>
<!-- Generator: Adobe Illustrator 23.0.3, SVG Export Plug-In . SVG Version: 6.00 Build 0)  -->
<svg version="1.1" id="Layer_1" xmlns="http://www.w3.org/2000/svg" xmlns:xlink="http://www.w3.org/1999/xlink" x="0px" y="0px"
	 viewBox="0 0 20 20" style="enable-background:new 0 0 20 20;" xml:space="preserve">
<style type="text/css">
	.st0{fill:#637382;}
</style>
<title>FavoritesIcon</title>
<path class="st0" d="M10,3.2l2.2,4.4c0.1,0.3,0.4,0.5,0.8,0.6l4.9,0.7l-3.5,3.5C14.1,12.6,14,13,14,13.3l0.8,4.9l-4.4-2.3
	c-0.3-0.2-0.6-0.2-0.9,0l-4.4,2.3L6,13.3c0.1-0.3-0.1-0.7-0.3-0.9L2.2,8.9l4.9-0.7c0.3,0,0.6-0.3,0.8-0.6L10,3.2 M10,1L6.9,7.2
	L0,8.2l5,4.9L3.8,20l6.2-3.2l6.2,3.2L15,13.1l5-4.9l-6.9-1L10,1L10,1z"/>
</svg>
