<?xml version="1.0" encoding="utf-8"?>
<!-- Generator: Adobe Illustrator 23.0.3, SVG Export Plug-In . SVG Version: 6.00 Build 0)  -->
<svg version="1.1" id="Layer_1" xmlns="http://www.w3.org/2000/svg" xmlns:xlink="http://www.w3.org/1999/xlink" x="0px" y="0px"
	 viewBox="0 0 16 16" style="enable-background:new 0 0 16 16;" xml:space="preserve">
<style type="text/css">
	.st0{fill:#FFFFFF;}
	.st1{fill:#637382;}
</style>
<title>Folder</title>
<polygon class="st0" points="15,13 1,13 1,1 7,1 9,3 15,3 "/>
<path class="st1" d="M6.6,1l1.7,1.7C8.5,2.9,8.7,3,9,3h6v10H1V1H6.6 M7,0H1C0.4,0,0,0.4,0,1v12c0,0.6,0.4,1,1,1h14c0.6,0,1-0.4,1-1
	V3c0-0.6-0.4-1-1-1H9L7,0L7,0z"/>
<rect x="1" y="4" class="st1" width="15" height="1"/>
</svg>
