<?xml version="1.0" encoding="utf-8"?>
<!-- Generator: Adobe Illustrator 23.0.3, SVG Export Plug-In . SVG Version: 6.00 Build 0)  -->
<svg version="1.1" id="Layer_1" xmlns="http://www.w3.org/2000/svg" xmlns:xlink="http://www.w3.org/1999/xlink" x="0px" y="0px"
	 viewBox="0 0 16 16" style="enable-background:new 0 0 16 16;" xml:space="preserve">
<style type="text/css">
	.st0{fill:#FFFFFF;}
	.st1{fill:#637382;}
</style>
<title>FolderSearch-01</title>
<polygon class="st0" points="15,13 1,13 1,1 7,1 9,3 15,3 "/>
<rect x="1" y="4" class="st1" width="15" height="1"/>
<path class="st1" d="M15.5,16c-0.1,0-0.3-0.1-0.4-0.1l-2.5-2.5c-0.2-0.2-0.2-0.5,0-0.7s0.5-0.2,0.7,0l2.5,2.5c0.2,0.2,0.2,0.5,0,0.7
	C15.8,15.9,15.6,16,15.5,16z"/>
<path class="st1" d="M10.5,8c1.4,0,2.5,1.1,2.5,2.5S11.9,13,10.5,13S8,11.9,8,10.5S9.1,8,10.5,8 M10.5,7C8.6,7,7,8.6,7,10.5
	S8.6,14,10.5,14c1.9,0,3.5-1.6,3.5-3.5C14,8.6,12.4,7,10.5,7L10.5,7z"/>
<path class="st1" d="M15,2H9L7,0H1C0.4,0,0,0.4,0,1v12c0,0.6,0.4,1,1,1h6l-1-1H1V1h5.6l1.7,1.7C8.5,2.9,8.7,3,9,3h6v9l1,1V3
	C16,2.4,15.6,2,15,2z"/>
</svg>
