<?xml version="1.0" encoding="utf-8"?>
<!-- Generator: Adobe Illustrator 23.0.3, SVG Export Plug-In . SVG Version: 6.00 Build 0)  -->
<svg version="1.1" id="Слой_1" xmlns="http://www.w3.org/2000/svg" xmlns:xlink="http://www.w3.org/1999/xlink" x="0px" y="0px"
	 viewBox="0 0 20 20" style="enable-background:new 0 0 20 20;" xml:space="preserve">
<style type="text/css">
	.st0{fill-rule:evenodd;clip-rule:evenodd;fill:#637382;}
</style>
<path class="st0" d="M10,20c5.5,0,10-4.5,10-10S15.5,0,10,0S0,4.5,0,10S4.5,20,10,20z M11.7,5.3c-0.4-0.2-1-0.3-1.6-0.3
	C8.8,5,7.8,5.5,7,6.4l1.2,0.9C8.7,6.7,9.3,6.4,10,6.4c0.2,0,0.3,0,0.5,0.1c0.1,0,0.3,0.1,0.4,0.2c0.2,0.2,0.3,0.4,0.3,0.7
	c0,0.2-0.1,0.5-0.2,0.6c-0.1,0.2-0.4,0.3-0.7,0.6C9.9,8.8,9.7,8.9,9.5,9.1C9.3,9.3,9.1,9.5,9,9.8s-0.2,0.6-0.2,1.1v0.5h1.7v-0.5
	c0-0.2,0-0.5,0.1-0.6c0-0.1,0.1-0.2,0.1-0.2c0.2-0.2,0.5-0.4,0.9-0.7c0.3-0.2,0.5-0.4,0.7-0.6c0.2-0.2,0.3-0.4,0.5-0.6
	C12.9,8,12.9,7.9,13,7.7c0-0.1,0-0.3,0-0.4c0-0.4-0.1-0.8-0.3-1.1C12.4,5.8,12.1,5.5,11.7,5.3z M10.5,13.1c-0.2-0.2-0.5-0.3-0.8-0.3
	s-0.6,0.1-0.8,0.3c-0.1,0.1-0.2,0.2-0.2,0.4c-0.1,0.1-0.1,0.3-0.1,0.4c0,0.3,0.1,0.6,0.3,0.8C9.1,14.9,9.3,15,9.6,15
	s0.6-0.1,0.8-0.3s0.3-0.5,0.3-0.8C10.8,13.6,10.7,13.3,10.5,13.1z"/>
</svg>
