<svg id="Layer_1" data-name="Layer 1" xmlns="http://www.w3.org/2000/svg" viewBox="0 0 32 32"><title>jpg_large</title><rect x="2" y="4" width="28" height="23" fill="#fff"/><path d="M30,4V27H2V4H30m1-2H1A1,1,0,0,0,0,3V28a1,1,0,0,0,1,1H31a1,1,0,0,0,1-1V3a1,1,0,0,0-1-1h0Z" fill="#9da2a5"/><rect x="4" y="6" width="24" height="19" fill="#c8e5f1"/><path d="M12,25H28V18a3.78,3.78,0,0,0-3-2C21.16,16,12,25,12,25Z" fill="#92adbc"/><path d="M26,25H4V18s4.13-6,7-6C16.63,12,26,25,26,25Z" fill="#7f99a9"/><circle cx="24" cy="10" r="2" fill="#fff59a"/></svg>