<?xml version="1.0"?>
<svg xmlns="http://www.w3.org/2000/svg" xmlns:xlink="http://www.w3.org/1999/xlink" version="1.1" id="Capa_1" x="0px" y="0px" viewBox="0 0 511.934 511.934" style="enable-background:new 0 0 511.934 511.934;" xml:space="preserve" width="512px" height="512px" class=""><g><g>
	<g>
		<path d="M131.983,35.996c-2.21,0-3.999,1.79-3.999,4v431.945c0,2.211,1.789,3.998,3.999,3.998c2.211,0,4-1.787,4-3.999V39.996    C135.983,37.785,134.194,35.996,131.983,35.996z" data-original="#000000" class="active-path" data-old_color="#000000" fill="#2E9F0D"/>
	</g>
</g><g>
	<g>
		<path d="M443.943,19.998H147.981c-2.21,0-3.999,1.789-3.999,4c0,2.211,1.789,4,3.999,4h295.962c2.21,0,3.999-1.789,3.999-4    C447.942,21.786,446.153,19.998,443.943,19.998z" data-original="#000000" class="active-path" data-old_color="#000000" fill="#2E9F0D"/>
	</g>
</g><g>
	<g>
		<path d="M507.934,51.994h-19.997V23.998c0-2.211-1.789-4-3.999-4c-2.211,0-4,1.79-4,4v31.996c0,2.211,1.789,4,4,4h19.997v106.33    l-22.825,22.825c-0.75,0.749-1.172,1.765-1.172,2.827v295.963c0,2.211,1.789,3.998,4,3.998c2.21,0,3.999-1.787,3.999-3.998    V193.632l22.825-22.825c0.75-0.75,1.172-1.766,1.172-2.828V55.993C511.934,53.783,510.145,51.994,507.934,51.994z" data-original="#000000" class="active-path" data-old_color="#000000" fill="#2E9F0D"/>
	</g>
</g><g>
	<g>
		<path d="M483.938,483.939H147.981c-2.21,0-3.999,1.789-3.999,4s1.789,3.998,3.999,3.998h335.957c2.21,0,3.999-1.787,3.999-3.998    S486.148,483.939,483.938,483.939z" data-original="#000000" class="active-path" data-old_color="#000000" fill="#2E9F0D"/>
	</g>
</g><g>
	<g>
		<path d="M467.94,451.942H147.981c-2.21,0-3.999,1.789-3.999,4s1.789,4,3.999,4H467.94c2.21,0,3.999-1.789,3.999-4    S470.15,451.942,467.94,451.942z" data-original="#000000" class="active-path" data-old_color="#000000" fill="#2E9F0D"/>
	</g>
</g><g>
	<g>
		<path d="M451.942,467.941H163.979c-2.211,0-4,1.789-4,4s1.789,3.998,4,3.998h287.963c2.211,0,3.999-1.787,3.999-3.998    S454.153,467.941,451.942,467.941z" data-original="#000000" class="active-path" data-old_color="#000000" fill="#2E9F0D"/>
	</g>
</g><g>
	<g>
		<path d="M147.981,483.938c-6.616,0-11.998-5.383-11.998-11.998c0-6.617,5.382-11.998,11.998-11.998c2.211,0,4-1.789,4-4    s-1.789-4-4-4c-11.026,0-19.997,8.967-19.997,19.998c0,11.029,8.971,19.996,19.997,19.996c2.211,0,4-1.787,4-3.998    S150.192,483.938,147.981,483.938z" data-original="#000000" class="active-path" data-old_color="#000000" fill="#2E9F0D"/>
	</g>
</g><g>
	<g>
		<path d="M147.981,19.998c-11.026,0-19.997,8.972-19.997,19.998c0,2.211,1.789,4,3.999,4c2.211,0,4-1.789,4-3.999    c0-6.617,5.382-11.999,11.998-11.999c2.211,0,4-1.789,4-4C151.981,21.786,150.192,19.998,147.981,19.998z" data-original="#000000" class="active-path" data-old_color="#000000" fill="#2E9F0D"/>
	</g>
</g><g>
	<g>
		<path d="M491.936,75.991c-2.21,0-3.999,1.789-3.999,3.999v71.99c0,2.211,1.789,4,3.999,4c2.211,0,4-1.789,4-3.999V79.991    C495.936,77.78,494.147,75.991,491.936,75.991z" data-original="#000000" class="active-path" data-old_color="#000000" fill="#2E9F0D"/>
	</g>
</g><g>
	<g>
		<path d="M470.767,189.148l-22.825-22.825V23.998c0-2.211-1.789-4-3.999-4c-2.211,0-4,1.79-4,4V167.98    c0,1.062,0.422,2.078,1.172,2.828l22.825,22.825v262.31c0,2.211,1.789,4,4,4c2.21,0,3.999-1.789,3.999-4.001V191.975    C471.939,190.913,471.517,189.898,470.767,189.148z" data-original="#000000" class="active-path" data-old_color="#000000" fill="#2E9F0D"/>
	</g>
</g><g>
	<g>
		<path d="M483.938,19.998h-23.997c-2.211,0-4,1.789-4,4c0,2.211,1.789,4,4,4h23.997c2.21,0,3.999-1.789,3.999-4    C487.937,21.786,486.148,19.998,483.938,19.998z" data-original="#000000" class="active-path" data-old_color="#000000" fill="#2E9F0D"/>
	</g>
</g><g>
	<g>
		<path d="M115.984,443.944H7.999V106.858L37.96,67.993h78.024c2.211,0,4-1.789,4-4c0-2.21-1.789-3.999-4-3.999H35.991    c-1.242,0-2.41,0.574-3.167,1.558L0.832,103.054C0.293,103.754,0,104.613,0,105.496v342.447c0,2.211,1.789,4,3.999,4h111.986    c2.211,0,3.999-1.789,3.999-4S118.195,443.944,115.984,443.944z" data-original="#000000" class="active-path" data-old_color="#000000" fill="#2E9F0D"/>
	</g>
</g><g>
	<g>
		<path d="M43.994,75.991c-2.211,0-4,1.789-4,3.999v23.997c0,2.211,1.789,4,4,4s3.999-1.789,3.999-4V79.991    C47.993,77.78,46.204,75.991,43.994,75.991z" data-original="#000000" class="active-path" data-old_color="#000000" fill="#2E9F0D"/>
	</g>
</g><g>
	<g>
		<path d="M43.994,99.988H19.997c-2.21,0-3.999,1.789-3.999,4s1.789,4,3.999,4h23.997c2.211,0,3.999-1.789,3.999-4    S46.204,99.988,43.994,99.988z" data-original="#000000" class="active-path" data-old_color="#000000" fill="#2E9F0D"/>
	</g>
</g><g>
	<g>
		<path d="M115.984,195.975H51.993c-2.211,0-4,1.789-4,3.999c0,2.211,1.789,4,4,4h63.992c2.211,0,4-1.789,3.999-4    C119.984,197.764,118.195,195.975,115.984,195.975z" data-original="#000000" class="active-path" data-old_color="#000000" fill="#2E9F0D"/>
	</g>
</g><g>
	<g>
		<path d="M115.984,227.97H51.993c-2.211,0-4,1.789-4,4s1.789,4,4,4h63.992c2.211,0,3.999-1.789,3.999-4    S118.195,227.97,115.984,227.97z" data-original="#000000" class="active-path" data-old_color="#000000" fill="#2E9F0D"/>
	</g>
</g><g>
	<g>
		<path d="M115.984,259.967H51.993c-2.211,0-4,1.789-4,4c0,2.209,1.789,3.998,4,3.998h63.992c2.211,0,4-1.789,3.999-3.998    C119.984,261.757,118.195,259.967,115.984,259.967z" data-original="#000000" class="active-path" data-old_color="#000000" fill="#2E9F0D"/>
	</g>
</g><g>
	<g>
		<path d="M115.984,291.963H51.993c-2.211,0-4,1.789-4,3.998c0,2.211,1.789,4,4,4h63.992c2.211,0,4-1.789,3.999-4    C119.984,293.752,118.195,291.963,115.984,291.963z" data-original="#000000" class="active-path" data-old_color="#000000" fill="#2E9F0D"/>
	</g>
</g><g>
	<g>
		<path d="M115.984,323.96H51.993c-2.211,0-4,1.787-4,3.998s1.789,4,4,4h63.992c2.211,0,3.999-1.789,3.999-4    S118.195,323.96,115.984,323.96z" data-original="#000000" class="active-path" data-old_color="#000000" fill="#2E9F0D"/>
	</g>
</g><g>
	<g>
		<path d="M419.946,243.968H179.977c-2.211,0-4,1.789-4,4v31.995c0,2.211,1.789,4,4,4h239.969c2.21,0,4-1.789,4-4v-31.995    C423.946,245.757,422.157,243.968,419.946,243.968z M415.946,275.965h-231.97v-23.998h231.97V275.965z" data-original="#000000" class="active-path" data-old_color="#000000" fill="#2E9F0D"/>
	</g>
</g><g>
	<g>
		<path d="M403.947,259.967H195.975c-2.211,0-4,1.789-4,4c0,2.209,1.789,3.998,4,3.998h207.972c2.211,0,4-1.789,4-3.998    C407.947,261.757,406.158,259.967,403.947,259.967z" data-original="#000000" class="active-path" data-old_color="#000000" fill="#2E9F0D"/>
	</g>
</g></g> </svg>
