<svg id="Capa_1" enable-background="new 0 0 512 512" height="512" viewBox="0 0 512 512" width="512" xmlns="http://www.w3.org/2000/svg"><path d="m504.5 437h-497c-4.142 0-7.5 3.357-7.5 7.5v60c0 4.143 3.358 7.5 7.5 7.5h497c4.142 0 7.5-3.357 7.5-7.5v-60c0-4.143-3.358-7.5-7.5-7.5zm-7.5 60h-482v-45h482z"/><path d="m240.09 415.41c4.387 4.386 10.148 6.579 15.91 6.579s11.524-2.193 15.91-6.579l188.47-188.471c6.557-6.558 8.426-15.952 4.877-24.52-3.548-8.566-11.514-13.889-20.787-13.889h-37.47v-121.03c0-4.143-3.358-7.5-7.5-7.5h-287c-4.142 0-7.5 3.357-7.5 7.5v49.266c0 4.143 3.358 7.5 7.5 7.5s7.5-3.357 7.5-7.5v-41.766h272v121.031c0 4.143 3.358 7.5 7.5 7.5h44.971c4.649 0 6.479 3.543 6.929 4.629s1.662 4.885-1.626 8.172l-188.47 188.471c-2.924 2.926-7.682 2.925-10.607 0l-188.471-188.471c-3.287-3.287-2.075-7.085-1.625-8.171s2.279-4.63 6.929-4.63h44.97c4.142 0 7.5-3.357 7.5-7.5v-49.266c0-4.143-3.358-7.5-7.5-7.5s-7.5 3.357-7.5 7.5v41.766h-37.471c-9.273 0-17.238 5.322-20.787 13.89-3.548 8.566-1.679 17.962 4.877 24.519z"/><path d="m112.5 45h287c4.142 0 7.5-3.357 7.5-7.5v-30c0-4.143-3.358-7.5-7.5-7.5h-287c-4.142 0-7.5 3.357-7.5 7.5v30c0 4.143 3.358 7.5 7.5 7.5zm7.5-30h272v15h-272z"/></svg>