<?xml version="1.0" encoding="utf-8"?>
<!-- Generator: Adobe Illustrator 23.0.3, SVG Export Plug-In . SVG Version: 6.00 Build 0)  -->
<svg version="1.1" id="Layer_1" xmlns="http://www.w3.org/2000/svg" xmlns:xlink="http://www.w3.org/1999/xlink" x="0px" y="0px"
	 viewBox="0 0 16 16" style="enable-background:new 0 0 16 16;" xml:space="preserve">
<style type="text/css">
	.st0{fill:#637382;}
	.st1{fill:#FFFFFF;}
</style>
<title>databookentry</title>
<path class="st0" d="M3,0h10.5C13.8,0,14,0.2,14,0.5v13c0,0.3-0.2,0.5-0.5,0.5H3l0,0V0L3,0z"/>
<rect x="3" class="st1" width="1" height="15"/>
<path class="st0" d="M2,1.5L2,1.5 M3,0H2.5C1.7,0,1,0.7,1,1.5V15c0,0.6,0.4,1,1,1h11.8c0.1,0,0.2-0.1,0.2-0.2v-0.5
	c0-0.1-0.1-0.2-0.2-0.2H3V0L3,0z"/>
<rect x="6" y="3" class="st1" width="6" height="2"/>
<path class="st1" d="M2.2,15h11.2v-1H2.2C2.1,14,2,14.1,2,14.2v0.5C2,14.9,2.1,15,2.2,15z"/>
</svg>
