<?xml version="1.0" encoding="utf-8"?>
<!-- Generator: Adobe Illustrator 23.0.3, SVG Export Plug-In . SVG Version: 6.00 Build 0)  -->
<svg version="1.1" id="Слой_1" xmlns="http://www.w3.org/2000/svg" xmlns:xlink="http://www.w3.org/1999/xlink" x="0px" y="0px"
	 viewBox="0 0 40 30" style="enable-background:new 0 0 40 30;" xml:space="preserve">
<style type="text/css">
	.st0{fill:#475963;}
</style>
<title>majestic_mini</title>
<desc>Created with Sketch.</desc>
<g>
	<g>
		<g>
			<polygon class="st0" points="32.9,12.5 20,20.9 7.1,12.5 4.2,14 20,24.3 35.8,14 			"/>
		</g>
	</g>
	<g>
		<g>
			<polygon class="st0" points="32.9,18.1 20,26.5 7.1,18.1 4.2,19.6 20,29.8 35.8,19.6 			"/>
		</g>
	</g>
	<g>
		<g>
			<polygon class="st0" points="13.8,3.4 10.9,5 15.3,7.8 18.1,6.1 			"/>
		</g>
	</g>
	<g>
		<g>
			<polygon class="st0" points="15.3,10 10.8,12.7 13.9,14.8 18.3,11.9 			"/>
		</g>
	</g>
	<g>
		<g>
			<polygon class="st0" points="19.9,7.2 17.1,8.9 20,10.8 22.8,9 			"/>
		</g>
	</g>
	<g>
		<g>
			<polygon class="st0" points="24.5,10.1 21.7,11.9 26.1,14.8 29,12.9 			"/>
		</g>
	</g>
	<g>
		<g>
			<polygon class="st0" points="26.2,3.4 21.7,6.1 24.5,7.9 29.1,5 			"/>
		</g>
	</g>
	<g>
		<g>
			<polygon class="st0" points="20,13 15.6,15.9 20,18.7 24.4,15.9 			"/>
		</g>
	</g>
	<g>
		<g>
			<polygon class="st0" points="9,5.9 4.2,8.5 9.1,11.6 13.6,8.9 			"/>
		</g>
	</g>
	<g>
		<g>
			<polygon class="st0" points="20,0.2 15.7,2.4 19.9,5 24.3,2.4 			"/>
		</g>
	</g>
	<g>
		<g>
			<polygon class="st0" points="31,5.9 26.3,9 30.7,11.7 35.8,8.5 			"/>
		</g>
	</g>
</g>
</svg>
