<svg id="Layer_1" data-name="Layer 1" xmlns="http://www.w3.org/2000/svg" viewBox="0 0 20 20">
    <title>MoreIcon_dark</title>
    <path d="M4.2,11.08A1.68,1.68,0,0,1,3,10.62a1.47,1.47,0,0,1-.49-1.11A1.5,1.5,0,0,1,3,8.39a1.67,1.67,0,0,1,1.2-.47,1.7,1.7,0,0,1,1.21.47,1.49,1.49,0,0,1,.5,1.13,1.46,1.46,0,0,1-.5,1.11A1.72,1.72,0,0,1,4.2,11.08Z"
          fill="#8793A8"/>
    <path d="M10,11.08a1.68,1.68,0,0,1-1.2-.46A1.47,1.47,0,0,1,8.3,9.51a1.5,1.5,0,0,1,.49-1.12A1.67,1.67,0,0,1,10,7.92a1.7,1.7,0,0,1,1.21.47,1.49,1.49,0,0,1,.5,1.13,1.46,1.46,0,0,1-.5,1.11A1.72,1.72,0,0,1,10,11.08Z"
          fill="#8793A8"/>
    <path d="M15.78,11.08a1.68,1.68,0,0,1-1.2-.46,1.47,1.47,0,0,1-.49-1.11,1.5,1.5,0,0,1,.49-1.12,1.67,1.67,0,0,1,1.2-.47A1.7,1.7,0,0,1,17,8.39a1.49,1.49,0,0,1,.5,1.13,1.46,1.46,0,0,1-.5,1.11A1.72,1.72,0,0,1,15.78,11.08Z"
          fill="#8793A8"/>
</svg>
