<?xml version="1.0" encoding="utf-8"?>
<!-- Generator: Adobe Illustrator 23.0.3, SVG Export Plug-In . SVG Version: 6.00 Build 0)  -->
<svg version="1.1" id="Layer_1" xmlns="http://www.w3.org/2000/svg" xmlns:xlink="http://www.w3.org/1999/xlink" x="0px" y="0px"
	 viewBox="0 0 20 20" style="enable-background:new 0 0 20 20;" xml:space="preserve">
<style type="text/css">
	.st0{fill:#FFFFFF;}
</style>
<title>MoreIcon_dark</title>
<path class="st0" d="M11.6,15.3c0,0.4-0.2,0.9-0.5,1.2C10.8,16.8,10.4,17,10,17c-0.4,0-0.8-0.2-1.1-0.5c-0.3-0.3-0.5-0.8-0.5-1.2
	c0-0.4,0.2-0.9,0.5-1.2c0.3-0.3,0.7-0.5,1.1-0.5c0.4,0,0.8,0.2,1.1,0.5C11.4,14.4,11.6,14.9,11.6,15.3z"/>
<path class="st0" d="M11.6,9.5c0,0.4-0.2,0.9-0.5,1.2c-0.3,0.3-0.7,0.5-1.1,0.5c-0.4,0-0.8-0.2-1.1-0.5C8.6,10.4,8.4,10,8.4,9.5
	c0-0.4,0.2-0.9,0.5-1.2C9.2,8,9.6,7.8,10,7.8c0.4,0,0.8,0.2,1.1,0.5C11.4,8.6,11.6,9.1,11.6,9.5z"/>
<path class="st0" d="M11.6,3.7c0,0.4-0.2,0.9-0.5,1.2c-0.3,0.3-0.7,0.5-1.1,0.5c-0.4,0-0.8-0.2-1.1-0.5C8.6,4.6,8.4,4.2,8.4,3.7
	c0-0.5,0.2-0.9,0.5-1.2C9.2,2.2,9.6,2,10,2c0.4,0,0.8,0.2,1.1,0.5C11.4,2.8,11.6,3.3,11.6,3.7z"/>
</svg>
