<?xml version="1.0" encoding="utf-8"?>
<!-- Generator: Adobe Illustrator 23.0.3, SVG Export Plug-In . SVG Version: 6.00 Build 0)  -->
<svg version="1.1" id="Layer_1" xmlns="http://www.w3.org/2000/svg" xmlns:xlink="http://www.w3.org/1999/xlink" x="0px" y="0px"
	 viewBox="0 0 512 512" style="enable-background:new 0 0 512 512;" xml:space="preserve">
<style type="text/css">
	.st0{fill:#637382;}
</style>
<g>
	<path class="st0" d="M432,23.5H80c-44.1,0-80,35.9-80,80v231c0,44.1,35.9,80,80,80h138c11,0,20-9,20-20s-9-20-20-20H80
		c-22.1,0-40-17.9-40-40V107.7l173.8,108c13,8.1,27.6,12.2,42.2,12.2c14.6,0,29.2-4.1,42.2-12.2l173.8-108v120.8c0,11,9,20,20,20
		s20-9,20-20v-125C512,59.4,476.1,23.5,432,23.5z M277.1,181.8c-13,8.1-29.2,8.1-42.2,0L56.7,71c6.6-4.7,14.6-7.5,23.3-7.5h352
		c8.7,0,16.7,2.8,23.3,7.5L277.1,181.8z M498.9,389.9c-2.2-0.9-15.8-7.1-15.8-22.7v-30c0-42.2-29.6-78-69.1-87.5v-13.2
		c0-11-9-20-20-20s-20,9-20,20v12.9c-40,9.1-70.1,45.2-70.1,87.8v30c0,15.6-13.6,21.8-15.8,22.7c-8.2,2.7-13.1,10.2-13.1,18.8
		c0,12.8,4.5,26.7,12.1,37.3c10.5,14.5,26.1,22.6,44,22.6H374c0,11,9,20,20,20s20-9,20-20h41.9c17.9,0,33.5-8,44-22.6
		c7.6-10.6,12.1-24.5,12.1-37.3C512,400.1,507,392.6,498.9,389.9z M455.9,428.5H331.1c-7.4,0-11.5-4.7-13.6-9.6
		c13.2-9.7,26.4-26.6,26.4-51.7v-30c0-27.2,22.1-49.6,49.2-50c0.1,0,0.3,0,0.4,0c0.1,0,0.3,0,0.4,0c27.2,0.4,49.2,22.8,49.2,50v30
		c0,25.1,13.1,42,26.4,51.7C467.4,423.8,463.3,428.5,455.9,428.5z"/>
</g>
</svg>
