<svg id="Layer_1" data-name="Layer 1" xmlns="http://www.w3.org/2000/svg" viewBox="0 0 20 20"><title>OutboxIcon</title><path d="M9,16a0.76,0.76,0,0,1-.55-0.24L5.22,12.45a0.73,0.73,0,0,1,0-1.06,0.75,0.75,0,0,1,1.15,0L8.88,14,13.61,7.7a0.76,0.76,0,0,1,1.09-.14,0.83,0.83,0,0,1,.13,1.13l-5.27,7A0.77,0.77,0,0,1,9,16H9Z" fill="#5aa4c7"/><path d="M17,3V19H3V3H16m1-2H3A1,1,0,0,0,2,2V19a1,1,0,0,0,1,1H17a1,1,0,0,0,1-1V2a1,1,0,0,0-1-1h0Z" fill="#5aa4c7"/><path d="M18,5V1a1,1,0,0,0-1-1H16V1H15V0H5V1H4V0H3A1,1,0,0,0,2,1V5H18Z" fill="#5aa4c7"/></svg>