<?xml version="1.0" encoding="utf-8"?>
<!-- Generator: Adobe Illustrator 23.0.3, SVG Export Plug-In . SVG Version: 6.00 Build 0)  -->
<svg version="1.1" id="Layer_1" xmlns="http://www.w3.org/2000/svg" xmlns:xlink="http://www.w3.org/1999/xlink" x="0px" y="0px"
	 viewBox="0 0 16 16" style="enable-background:new 0 0 16 16;" xml:space="preserve">
<style type="text/css">
	.st0{fill:#FFFFFF;}
	.st1{fill:#637382;}
</style>
<polygon class="st0" points="15,13 1,13 1,1 7,1 9,3 15,3 "/>
<rect x="1" y="4" class="st1" width="15" height="1"/>
<path class="st1" d="M15,2H9L7,0H1C0.4,0,0,0.4,0,1v12c0,0.6,0.4,1,1,1h6l-1-1H1V1h5.6l1.7,1.7C8.5,2.9,8.7,3,9,3h6v9l1,1V3
	C16,2.4,15.6,2,15,2z"/>
<polygon class="st1" points="7.3,11 10.8,7 14.3,11 12.3,11 12.3,16 9.3,16 9.3,11 "/>
</svg>
