<?xml version="1.0" encoding="utf-8"?>
<!-- Generator: Adobe Illustrator 23.0.3, SVG Export Plug-In . SVG Version: 6.00 Build 0)  -->
<svg version="1.1" id="Capa_1" xmlns="http://www.w3.org/2000/svg" xmlns:xlink="http://www.w3.org/1999/xlink" x="0px" y="0px"
	 viewBox="0 0 512 512" style="enable-background:new 0 0 512 512;" xml:space="preserve">
<style type="text/css">
	.st0{fill:#637382;}
</style>
<g>
	<g>
		<g>
			<path class="st0" d="M510.7,507c1.8-3.1,1.7-7-0.1-10L402.2,313.7c-2.8-4.8-8.9-6.3-13.7-3.5c-4.8,2.8-6.3,8.9-3.5,13.7
				l77.7,131.5L208.7,210.4l37.3-121.8l94,159c2.8,4.8,8.9,6.3,13.7,3.5c4.8-2.8,6.3-8.9,3.5-13.7L251.6,58.9
				c-2-3.4-5.9-5.3-9.8-4.8s-7.2,3.2-8.4,7l-44.5,145.5L72.1,270.7c-0.1,0.1-0.2,0.1-0.3,0.2c-1.8,1.1-3.2,2.7-4.1,4.7
				c-0.5,1.3-0.8,2.6-0.8,3.9c0,2.6,1,5.1,2.8,7l72.1,73.8L99.4,499.1c-0.3,1-0.4,1.9-0.4,2.9c0,2.1,0.7,4.2,2,5.9
				c1.9,2.5,4.9,4.1,8,4.1h393C505.6,512,508.9,510.1,510.7,507z M182.8,271.3c-1.7-1.2-3.7-1.8-5.7-1.8h-61.2l79.8-43.8
				l201.2,193.9L182.8,271.3z M100.7,289.5h62.9l-15,49L100.7,289.5z M122.5,492l60.1-196.5L466.3,492H122.5z"/>
		</g>
	</g>
	<g>
		<g>
			<path class="st0" d="M164.4,164.4c3.9-3.9,3.9-10.2,0-14.1L71.1,56.9c-3.9-3.9-10.2-3.9-14.1,0c-2,2-2.9,4.5-2.9,7.1
				c0,2.6,1,5.1,2.9,7.1l93.4,93.4C154.2,168.3,160.5,168.3,164.4,164.4z"/>
		</g>
	</g>
	<g>
		<g>
			<path class="st0" d="M40.1,40.1c3.9-3.9,3.9-10.2,0-14.1l-23-23C13.2-1,6.8-1,2.9,2.9C1,4.9,0,7.4,0,10s1,5.1,2.9,7.1l23,23
				C29.8,44,36.2,44,40.1,40.1z"/>
		</g>
	</g>
	<g>
		<g>
			<path class="st0" d="M17.7,142.6c1.9-1.9,2.9-4.4,2.9-7.1c0-2.6-1.1-5.2-2.9-7.1c-1.9-1.9-4.4-2.9-7.1-2.9
				c-2.6,0-5.2,1.1-7.1,2.9c-1.9,1.9-2.9,4.4-2.9,7.1s1.1,5.2,2.9,7.1c1.9,1.9,4.4,2.9,7.1,2.9C13.2,145.6,15.8,144.5,17.7,142.6z"
				/>
		</g>
	</g>
	<g>
		<g>
			<path class="st0" d="M92.1,217.1c3.9-3.9,3.9-10.2,0-14.1l-49.4-49.4c-3.9-3.9-10.2-3.9-14.1,0c-2,2-2.9,4.5-2.9,7.1
				s1,5.1,2.9,7.1l49.4,49.4C81.8,221,88.2,221,92.1,217.1z"/>
		</g>
	</g>
	<g>
		<g>
			<path class="st0" d="M95.9,387.7c3.9-3.9,3.9-10.2,0-14.1L46.3,324c-3.9-3.9-10.2-3.9-14.1,0c-2,2-2.9,4.5-2.9,7.1s1,5.1,2.9,7.1
				l49.6,49.6C85.6,391.6,92,391.6,95.9,387.7z"/>
		</g>
	</g>
	<g>
		<g>
			<path class="st0" d="M375.7,283.5c1.9-1.9,2.9-4.4,2.9-7.1s-1.1-5.2-2.9-7.1c-1.9-1.9-4.4-2.9-7.1-2.9c-2.6,0-5.2,1.1-7.1,2.9
				c-1.9,1.9-2.9,4.4-2.9,7.1s1.1,5.2,2.9,7.1c1.9,1.9,4.4,2.9,7.1,2.9C371.2,286.4,373.8,285.4,375.7,283.5z"/>
		</g>
	</g>
</g>
</svg>
