<svg id="Layer_1" data-name="Layer 1" xmlns="http://www.w3.org/2000/svg" viewBox="0 0 16 16"><title>paste_16</title><rect x="8" y="6" width="7" height="9" fill="#fff"/><path d="M15,6v9H8V6h7m0-1H8A1,1,0,0,0,7,6v9a1,1,0,0,0,1,1h7a1,1,0,0,0,1-1V6a1,1,0,0,0-1-1Z" fill="#798288"/><path d="M10,1H1A1,1,0,0,0,0,2V13a1,1,0,0,0,1,1H6V6A2,2,0,0,1,8,4h3V2A1,1,0,0,0,10,1Z" fill="#e0ad5c"/><path d="M7.1667,1.1667A.6667.6667,0,0,0,6.5.5h-2a.6667.6667,0,0,0-.6667.6667H3.1667V2.5H7.8333V1.1667Z" fill="#fff"/><path d="M7,1A1,1,0,0,0,8,2H3A1,1,0,0,0,4,1H7M7,0H4A1,1,0,0,0,3,1H2V3H9V1H8A1,1,0,0,0,7,0Z" fill="#798288"/></svg>