<?xml version="1.0" encoding="utf-8"?>
<!-- Generator: Adobe Illustrator 23.0.3, SVG Export Plug-In . SVG Version: 6.00 Build 0)  -->
<svg version="1.1" id="Layer_1" xmlns="http://www.w3.org/2000/svg" xmlns:xlink="http://www.w3.org/1999/xlink" x="0px" y="0px"
	 viewBox="0 0 32 32" style="enable-background:new 0 0 32 32;" xml:space="preserve">
<style type="text/css">
	.st0{fill:#FFFFFF;}
	.st1{fill:#637382;}
</style>
<title>pdf_large</title>
<polygon class="st0" points="26,29 6,29 6,2 22,2 26,6 "/>
<path class="st1" d="M26,6h-4V2 M20,0v7c0,0.6,0.4,1,1,1h7L20,0z"/>
<rect y="10" class="st1" width="17" height="13"/>
<path class="st1" d="M21.5,0H5C4.4,0,4,0.4,4,1v8h2V2h15l5,5v22H6v-5H4v6c0,0.6,0.4,1,1,1h22c0.6,0,1-0.4,1-1V6.5L21.5,0z"/>
<path class="st0" d="M10,15v3H8.5C8.2,18,8,17.8,8,17.5v-2C8,15.2,8.2,15,8.5,15H10 M11,14H8.5C7.7,14,7,14.7,7,15.5v2
	C7,18.3,7.7,19,8.5,19H11V14L11,14z"/>
<rect x="10" y="12" class="st0" width="1" height="7"/>
<path class="st0" d="M4.5,15C4.8,15,5,15.2,5,15.5v2C5,17.8,4.8,18,4.5,18H3v-3H4.5 M4.5,14H2v5h2.5C5.3,19,6,18.3,6,17.5v-2
	C6,14.7,5.3,14,4.5,14L4.5,14z"/>
<rect x="2" y="14" class="st0" width="1" height="7"/>
<path class="st0" d="M14,13h1v-1h-1c-0.6,0-1,0.4-1,1v6h1V13z"/>
<rect x="12" y="14" class="st0" width="3" height="1"/>
</svg>
