<?xml version="1.0" encoding="utf-8"?>
<!-- Generator: Adobe Illustrator 23.0.3, SVG Export Plug-In . SVG Version: 6.00 Build 0)  -->
<svg version="1.1" id="Слой_1" xmlns="http://www.w3.org/2000/svg" xmlns:xlink="http://www.w3.org/1999/xlink" x="0px" y="0px"
	 viewBox="0 0 512 512" style="enable-background:new 0 0 512 512;" xml:space="preserve">
<style type="text/css">
	.st0{fill:#637382;}
</style>
<g id="Printer">
	<path class="st0" d="M440,224V104c0-13.3-10.7-24-24-24h-24V24c0-4.4-3.6-8-8-8H128c-4.4,0-8,3.6-8,8v56H96c-13.3,0-24,10.7-24,24
		v120c-30.9,0-56,25.1-56,56v208c0,4.4,3.6,8,8,8h464c4.4,0,8-3.6,8-8V280C496,249.1,470.9,224,440,224z M416,96c4.4,0,8,3.6,8,8
		v120h-32V96H416z M104,240h304v8c0,13.3-10.7,24-24,24H128c-13.3,0-24-10.7-24-24V240z M136,32h240v192H136V32z M88,104
		c0-4.4,3.6-8,8-8h24v128H88V104z M104,480v-24c0-22.1,17.9-40,40-40h224c22.1,0,40,17.9,40,40v24H104z M480,480h-56v-24
		c0-30.9-25.1-56-56-56H144c-30.9,0-56,25.1-56,56v24H32V280c0-22.1,17.9-40,40-40h16v8c0,22.1,17.9,40,40,40h256
		c22.1,0,40-17.9,40-40v-8h16c22.1,0,40,17.9,40,40V480z"/>
	<path class="st0" d="M424,320c-13.3,0-24,10.7-24,24s10.7,24,24,24s24-10.7,24-24S437.3,320,424,320z M424,352c-4.4,0-8-3.6-8-8
		s3.6-8,8-8s8,3.6,8,8S428.4,352,424,352z"/>
	<path class="st0" d="M360,320c-13.3,0-24,10.7-24,24s10.7,24,24,24s24-10.7,24-24S373.3,320,360,320z M360,352c-4.4,0-8-3.6-8-8
		s3.6-8,8-8s8,3.6,8,8S364.4,352,360,352z"/>
	<path class="st0" d="M312,336H128c-4.4,0-8,3.6-8,8s3.6,8,8,8h184c4.4,0,8-3.6,8-8S316.4,336,312,336z"/>
</g>
</svg>
