<?xml version="1.0" encoding="utf-8"?>
<!-- Generator: Adobe Illustrator 23.0.3, SVG Export Plug-In . SVG Version: 6.00 Build 0)  -->
<svg version="1.1" id="Слой_1" xmlns="http://www.w3.org/2000/svg" xmlns:xlink="http://www.w3.org/1999/xlink" x="0px" y="0px"
	 viewBox="0 0 682 682" style="enable-background:new 0 0 682 682;" xml:space="preserve">
<style type="text/css">
	.st0{fill:#637382;}
</style>
<path class="st0" d="M98.2,109.8v173.4c0,6.9,5.6,12.5,12.5,12.5h173.4c6.9,0,12.5-5.6,12.5-12.5v-32.9c0-6.9-5.6-12.5-12.5-12.5
	s-12.5,5.6-12.5,12.5v20.3H123.3V122.4h148.3v30.2c0,6.9,5.6,12.5,12.5,12.5s12.5-5.6,12.5-12.5v-42.7c0-6.9-5.6-12.5-12.5-12.5
	H110.7C103.8,97.3,98.2,102.9,98.2,109.8z"/>
<path class="st0" d="M171.4,158c-6.9,0-12.5,5.6-12.5,12.5v52c0,6.9,5.6,12.5,12.5,12.5h52c6.9,0,12.5-5.6,12.5-12.5v-52
	c0-6.9-5.6-12.5-12.5-12.5H171.4z M210.9,210H184v-26.9h26.9V210z"/>
<path class="st0" d="M284.1,385.3H110.7c-6.9,0-12.5,5.6-12.5,12.5v173.4c0,6.9,5.6,12.5,12.5,12.5h173.4c6.9,0,12.5-5.6,12.5-12.5
	V397.8C296.7,390.9,291.1,385.3,284.1,385.3z M271.6,558.7H123.3V410.4h148.3V558.7z"/>
<path class="st0" d="M399.6,295.8H573c6.9,0,12.5-5.6,12.5-12.5V109.8c0-6.9-5.6-12.5-12.5-12.5H399.6c-6.9,0-12.5,5.6-12.5,12.5
	v173.4C387.1,290.2,392.7,295.8,399.6,295.8z M412.1,122.4h148.3v148.3H412.1V122.4z"/>
<path class="st0" d="M585.5,571.2V397.8c0-6.9-5.6-12.5-12.5-12.5H399.6c-6.9,0-12.5,5.6-12.5,12.5v173.4c0,6.9,5.6,12.5,12.5,12.5
	H573C579.9,583.8,585.5,578.2,585.5,571.2z M560.5,558.7H412.1V410.4h148.3V558.7z"/>
<path class="st0" d="M573,353.8c6.9,0,12.5-5.6,12.5-12.5c0-6.9-5.6-12.5-12.5-12.5H353.2V108.4c0-6.9-5.6-12.5-12.5-12.5
	c-6.9,0-12.5,5.6-12.5,12.5v220.3H161.7c-6.9,0-12.5,5.6-12.5,12.5c0,6.9,5.6,12.5,12.5,12.5h166.4v217.4c0,6.9,5.6,12.5,12.5,12.5
	c6.9,0,12.5-5.6,12.5-12.5V353.8H573z"/>
<path class="st0" d="M171.4,524h52c6.9,0,12.5-5.6,12.5-12.5v-52c0-6.9-5.6-12.5-12.5-12.5h-52c-6.9,0-12.5,5.6-12.5,12.5v52
	C158.9,518.4,164.5,524,171.4,524z M184,472h26.9v26.9H184V472z"/>
<path class="st0" d="M512.3,158h-52c-6.9,0-12.5,5.6-12.5,12.5v52c0,6.9,5.6,12.5,12.5,12.5h52c6.9,0,12.5-5.6,12.5-12.5v-52
	C524.9,163.6,519.2,158,512.3,158z M499.8,210h-26.9v-26.9h26.9V210z"/>
<path class="st0" d="M460.3,524h52c6.9,0,12.5-5.6,12.5-12.5v-52c0-6.9-5.6-12.5-12.5-12.5h-52c-6.9,0-12.5,5.6-12.5,12.5v52
	C447.8,518.4,453.4,524,460.3,524z M472.8,472h26.9v26.9h-26.9V472z"/>
<path class="st0" d="M108.2,328.8l-0.7,0.2c-6.7,1.6-10.9,8.3-9.3,15.1c1.4,5.8,6.5,9.7,12.2,9.7c1,0,1.9-0.1,2.9-0.3l0.7-0.2
	c6.7-1.6,10.9-8.3,9.3-15.1C121.7,331.4,114.9,327.2,108.2,328.8z"/>
<path class="st0" d="M281.6,188.9l-0.7,0.2c-6.7,1.6-10.9,8.3-9.3,15.1c1.4,5.8,6.5,9.7,12.2,9.7c0.9,0,1.9-0.1,2.9-0.3l0.7-0.2
	c6.7-1.6,10.9-8.3,9.3-15.1C295.1,191.5,288.3,187.4,281.6,188.9z"/>
<path class="st0" d="M33.5,124.3c6.9,0,12.5-5.6,12.5-12.5V46.7h62.7c6.9,0,12.5-5.6,12.5-12.5c0-6.9-5.6-12.5-12.5-12.5H33.5
	c-6.9,0-12.5,5.6-12.5,12.5v77.6C21,118.7,26.6,124.3,33.5,124.3z"/>
<path class="st0" d="M647.8,21.6h-75.3c-6.9,0-12.5,5.6-12.5,12.5c0,6.9,5.6,12.5,12.5,12.5h62.7v65.1c0,6.9,5.6,12.5,12.5,12.5
	c6.9,0,12.5-5.6,12.5-12.5V34.2C660.4,27.3,654.7,21.6,647.8,21.6z"/>
<path class="st0" d="M108.8,635.4H46.1v-65.1c0-6.9-5.6-12.5-12.5-12.5c-6.9,0-12.5,5.6-12.5,12.5v77.6c0,6.9,5.6,12.5,12.5,12.5
	h75.3c6.9,0,12.5-5.6,12.5-12.5C121.3,641,115.7,635.4,108.8,635.4z"/>
<path class="st0" d="M647.8,557.8c-6.9,0-12.5,5.6-12.5,12.5v65.1h-62.7c-6.9,0-12.5,5.6-12.5,12.5c0,6.9,5.6,12.5,12.5,12.5h75.3
	c6.9,0,12.5-5.6,12.5-12.5v-77.6C660.4,563.4,654.7,557.8,647.8,557.8z"/>
</svg>
