<?xml version="1.0" encoding="utf-8"?>
<!-- Generator: Adobe Illustrator 23.0.3, SVG Export Plug-In . SVG Version: 6.00 Build 0)  -->
<svg version="1.1" id="Layer_1" xmlns="http://www.w3.org/2000/svg" xmlns:xlink="http://www.w3.org/1999/xlink" x="0px" y="0px"
	 viewBox="0 0 16 16" style="enable-background:new 0 0 16 16;" xml:space="preserve">
<style type="text/css">
	.st0{fill:#FFFFFF;}
	.st1{fill:#637382;}
</style>
<title>Readdocument_16</title>
<rect x="1" y="3" class="st0" width="13" height="12"/>
<path class="st1" d="M14,3v12H1V3H14 M14,2H1C0.4,2,0,2.4,0,3v12c0,0.6,0.4,1,1,1h13c0.6,0,1-0.4,1-1V3C15,2.4,14.6,2,14,2L14,2z"/>
<path class="st0" d="M12.5,13.6c-3.6-0.1-5,1.9-5,1.9v-13c1.4-1.3,3.1-2,5-2V13.6z"/>
<path class="st1" d="M12,1.1v12c-1.4,0.1-2.8,0.6-4,1.3V3C9.1,1.9,10.5,1.3,12,1.1 M13,0c-2.3,0-4.4,0.9-6,2.5V16
	c1.8-1.2,3.8-1.9,6-2V0L13,0z"/>
<path class="st0" d="M2.5,13.6c3.6-0.1,5,1.9,5,1.9v-13c-1.4-1.3-3.1-2-5-2V13.6z"/>
<path class="st1" d="M3,1.1C4.5,1.3,5.9,1.9,7,3v11.4c-1.2-0.8-2.6-1.2-4-1.3V1.1 M2,0v14c2.2,0.1,4.2,0.8,6,2V2.5
	C6.4,0.9,4.3,0,2,0L2,0z"/>
</svg>
