<?xml version="1.0" encoding="utf-8"?>
<!-- Generator: Adobe Illustrator 23.0.3, SVG Export Plug-In . SVG Version: 6.00 Build 0)  -->
<svg version="1.1" id="Layer_1" xmlns="http://www.w3.org/2000/svg" xmlns:xlink="http://www.w3.org/1999/xlink" x="0px" y="0px"
	 viewBox="0 0 20 20" style="enable-background:new 0 0 20 20;" xml:space="preserve">
<style type="text/css">
	.st0{fill:#637382;}
</style>
<title>Recent_tasks</title>
<path class="st0" d="M14.5,10c2.5,0,4.5,2,4.5,4.5S17,19,14.5,19S10,17,10,14.5C10,12,12,10,14.5,10 M14.5,9c-3,0-5.5,2.5-5.5,5.5
	s2.5,5.5,5.5,5.5s5.5-2.5,5.5-5.5S17.5,9,14.5,9z"/>
<path class="st0" d="M16.5,14H15v-2.5c0-0.3-0.2-0.5-0.5-0.5S14,11.2,14,11.5V15h2.5c0.3,0,0.5-0.2,0.5-0.5S16.8,14,16.5,14z"/>
<path class="st0" d="M6.5,8h-6C0.2,8,0,7.8,0,7.5v-6C0,1.2,0.2,1,0.5,1S1,1.2,1,1.5V7h5.5C6.8,7,7,7.2,7,7.5S6.8,8,6.5,8z"/>
<path class="st0" d="M2.1,10h-1c0.5,4.2,3.8,7.5,7.9,7.9c-0.2-0.3-0.4-0.7-0.6-1.1C5.1,16.2,2.5,13.4,2.1,10z"/>
<path class="st0" d="M10,0C5.7,0,2,2.9,1,7C0.9,7.3,1.1,7.7,1.1,8h1c0-0.3-0.1-0.7-0.1-1c1-3.6,4.3-6,8-6c4.4,0,8,3.6,8,8l0,0
	c0.4,0.2,0.7,0.5,1,0.8c0-0.3,0-0.5,0-0.8C19,4,15,0,10,0z"/>
</svg>
