<?xml version="1.0" encoding="utf-8"?>
<!-- Generator: Adobe Illustrator 23.0.3, SVG Export Plug-In . SVG Version: 6.00 Build 0)  -->
<svg version="1.1" id="Layer_1" xmlns="http://www.w3.org/2000/svg" xmlns:xlink="http://www.w3.org/1999/xlink" x="0px" y="0px"
	 viewBox="0 0 16 16" style="enable-background:new 0 0 16 16;" xml:space="preserve">
<style type="text/css">
	.st0{fill:#FFFFFF;}
	.st1{fill:#EF3B0A;}
	.st2{fill:#637382;}
</style>
<polygon class="st0" points="13,15 3,15 3,1 11.5,1 13,2.5 "/>
<path class="st1" d="M1.5,6C1.2,6,1,5.8,1,5.5c0-0.1,0.1-0.3,0.1-0.3l4-4C5.3,1,5.7,1,5.9,1.2s0.2,0.5,0,0.7l0,0l-4,4
	C1.8,6,1.6,6,1.5,6z"/>
<path class="st1" d="M5.5,6c0.1,0,0.3-0.1,0.4-0.2C6,5.7,6,5.3,5.9,5.1l0,0l-4-4c-0.2-0.2-0.5-0.2-0.7,0S1,1.6,1.2,1.8l4,4
	C5.2,5.9,5.4,6,5.5,6z"/>
<circle class="st0" cx="3.5" cy="3.5" r="0.5"/>
<path class="st2" d="M15,8v7H6V8H15 M15,7H6C5.4,7,5,7.4,5,8v7c0,0.6,0.4,1,1,1h9c0.6,0,1-0.4,1-1V8C16,7.4,15.6,7,15,7L15,7z"/>
<rect x="6" y="8" class="st0" width="9" height="7"/>
<rect x="7" y="9" class="st2" width="5" height="1"/>
<rect x="8" y="11" class="st2" width="5" height="1"/>
<rect x="9" y="13" class="st2" width="5" height="1"/>
<path class="st2" d="M4,15H3V8H2v7c0,0.6,0.4,1,1,1h1V15z"/>
<path class="st2" d="M10,3c0,0.6,0.4,1,1,1h2v2h1V2.6L11.4,0H7v1h3V3z M11,1l2,2h-2V1z"/>
</svg>
