<?xml version="1.0" encoding="utf-8"?>
<!-- Generator: Adobe Illustrator 23.0.3, SVG Export Plug-In . SVG Version: 6.00 Build 0)  -->
<svg version="1.1" id="Layer_1" xmlns="http://www.w3.org/2000/svg" xmlns:xlink="http://www.w3.org/1999/xlink" x="0px" y="0px"
	 viewBox="0 0 32 32" style="enable-background:new 0 0 32 32;" xml:space="preserve">
<style type="text/css">
	.st0{fill:#FFFFFF;}
	.st1{fill:#637382;}
</style>
<title>action_showreports_0278f4751c9c49088ef74bd8d4b88c9f_32</title>
<rect x="2" y="5" class="st0" width="27" height="21"/>
<path class="st1" d="M29,5v21H2V5h28 M30,3H1C0.4,3,0,3.4,0,4v23c0,0.6,0.4,1,1,1h29c0.6,0,1-0.4,1-1V4C31,3.4,30.6,3,30,3L30,3z"/>
<rect x="6" y="14" class="st1" width="4" height="10"/>
<rect x="11" y="8" class="st1" width="4" height="16"/>
<rect x="16" y="11" class="st1" width="4" height="13"/>
<rect x="21" y="16" class="st1" width="4" height="8"/>
</svg>
