<?xml version="1.0" encoding="utf-8"?>
<!-- Generator: Adobe Illustrator 23.0.3, SVG Export Plug-In . SVG Version: 6.00 Build 0)  -->
<svg version="1.1" id="Layer_1" xmlns="http://www.w3.org/2000/svg" xmlns:xlink="http://www.w3.org/1999/xlink" x="0px" y="0px"
	 viewBox="0 0 20 20" style="enable-background:new 0 0 20 20;" xml:space="preserve">
<style type="text/css">
	.st0{fill:#637382;}
</style>
<title>Recent_documents</title>
<path class="st0" d="M6.5,8h-6C0.2,8,0,7.8,0,7.5v-6C0,1.2,0.2,1,0.5,1S1,1.2,1,1.5V7h5.5C6.8,7,7,7.2,7,7.5S6.8,8,6.5,8z"/>
<path class="st0" d="M19,11v8h-7V9h4.9V8H12c-0.6,0-1,0.4-1,1v10c0,0.6,0.4,1,1,1h7c0.6,0,1-0.4,1-1v-8H19z"/>
<path class="st0" d="M17,9l2,2h-2V9 M16,8v3c0,0.6,0.4,1,1,1h3v-1.4L17.4,8H16z"/>
<path class="st0" d="M2.1,10h-1c0.5,4.5,4.4,8,8.9,8v-1C6,17,2.6,14,2.1,10z"/>
<path class="st0" d="M10,0C5.7,0,2,2.9,1,7C0.9,7.3,1.1,7.7,1.1,8h1c0-0.3-0.1-0.7-0.1-1c1-3.6,4.3-6,8-6c3.5,0,6.6,2.3,7.6,5.7
	l1.3,1.3C18.4,3.4,14.6,0,10,0z"/>
</svg>
