<?xml version="1.0" encoding="utf-8"?>
<!-- Generator: Adobe Illustrator 23.0.3, SVG Export Plug-In . SVG Version: 6.00 Build 0)  -->
<svg version="1.1" id="Layer_1" xmlns="http://www.w3.org/2000/svg" xmlns:xlink="http://www.w3.org/1999/xlink" x="0px" y="0px"
	 viewBox="0 0 16 16" style="enable-background:new 0 0 16 16;" xml:space="preserve">
<style type="text/css">
	.st0{fill:#637382;}
	.st1{fill:#FFFFFF;}
</style>
<title>Save_and_close_16-01</title>
<path class="st0" d="M10,13H7v-3h5V8l4,2.8V3l-3-3H1C0.4,0,0,0.4,0,1v14c0,0.6,0.4,1,1,1h9V13z"/>
<rect x="3" y="2" class="st1" width="10" height="4"/>
<polygon class="st1" points="14,12 11,15 2,15 2,8 14,8 "/>
<rect x="9" y="2" class="st0" width="3" height="3"/>
<polygon class="st0" points="16,12.5 11,9 11,11 6,11 6,14 11,14 11,16 "/>
</svg>
