<svg id="Layer_1" data-name="Layer 1" xmlns="http://www.w3.org/2000/svg" viewBox="0 0 16 16"><title>Sendby</title><path d="M15,5v7H5V5H15m0-1H5A1,1,0,0,0,4,5v7a1,1,0,0,0,1,1H15a1,1,0,0,0,1-1V5a1,1,0,0,0-1-1h0Z" fill="#798288"/><rect x="5" y="5" width="10" height="7" fill="#fff"/><rect x="12" y="6" width="2" height="2" fill="#7da7b5"/><rect x="6" y="8" width="5" height="1" fill="#adb1b2"/><rect x="6" y="10" width="5" height="1" fill="#adb1b2"/><rect y="5" width="3" height="1" fill="#798288"/><rect y="7" width="3" height="1" fill="#798288"/><rect y="9" width="3" height="1" fill="#798288"/><rect y="11" width="3" height="1" fill="#798288"/></svg>