<?xml version="1.0" encoding="utf-8"?>
<!-- Generator: Adobe Illustrator 23.0.3, SVG Export Plug-In . SVG Version: 6.00 Build 0)  -->
<svg version="1.1" id="Layer_1" xmlns="http://www.w3.org/2000/svg" xmlns:xlink="http://www.w3.org/1999/xlink" x="0px" y="0px"
	 viewBox="0 0 16 16" style="enable-background:new 0 0 16 16;" xml:space="preserve">
<style type="text/css">
	.st0{fill:#FFFFFF;}
	.st1{fill:#637382;}
</style>
<title>small_Forward_3d1fcc96015b48f5b4d6e7428d453dd0</title>
<path class="st0" d="M7.1,8.8c0,0.6-0.1,2.4-0.1,2.4l5.6,3.3c-0.5-1.8-0.7-3.7-0.8-5.6c0.1-1.1,0-2.5-2.5-2.6C7,6.2,7.1,8.8,7.1,8.8
	z"/>
<path class="st1" d="M10,7.1c0.4,0,0.8,0.2,1.1,0.5c0.3,0.3,0.4,0.8,0.3,1.2c0,1.7,0.2,3.4,0.6,5c-0.5,0.1-1.2,0.1-2.1,0.1v0.8
	c1,0,2-0.1,3.1-0.3c-0.6-2.1-0.9-4.3-0.8-6.4c0.1-1-0.3-1.7-2.2-1.8V7.1z"/>
<path class="st0" d="M6.3,3.2c0.1,2.2,0.1,4.2,1.2,5.9c1,1,2.5,1.1,3.6,0.2c0,0,1.5-0.7,1.6-6.1c0-1.7-1.4-3-3-3c-0.1,0-0.2,0-0.3,0
	C7.7,0.3,6.3,1.6,6.3,3.2C6.3,3.2,6.3,3.2,6.3,3.2z"/>
<path class="st1" d="M9.5,0C8.7,0,7.9,0.2,7.2,0.7C6.5,1.3,6,2.2,6,3.2C6,6,5.8,10,9.5,10c2.6,0,3.4-1.4,3.5-6.8
	C13,2.4,12.9,0,9.5,0z M9.5,9C6.6,9,7,5.3,7,3.4C7.4,3.1,7.9,3,8.4,3c0.8,0,2.4,0.3,3.6-0.1c0,0.1,0,0.2,0,0.3
	C12.2,6.9,11.8,8.9,9.5,9L9.5,9z"/>
<polygon class="st1" points="5,11 0,11 0,14 5,14 5,16 9,12.5 5,9 "/>
<path class="st1" d="M15,12l-2.7-1.6c-0.3,0.9-0.9,1.6-1.7,2.1l0,0L6.7,16H16v-3C15.8,12.5,15.5,12.2,15,12z"/>
</svg>
