<svg id="Layer_1" data-name="Layer 1" xmlns="http://www.w3.org/2000/svg" viewBox="0 0 16 16"><title>settings</title><path d="M8,5a3,3,0,1,0,3,3A3,3,0,0,0,8,5Zm0,5a2,2,0,1,1,2-2A2,2,0,0,1,8,10Z" fill="#798288"/><path d="M15.5,10l-1.56-1.2A6,6,0,0,0,14,8a6,6,0,0,0-.06-0.82L15.5,6a0.5,0.5,0,0,0,.18-0.68l-1.5-2.6a0.5,0.5,0,0,0-.68-0.18l-1.82.75a6,6,0,0,0-1.42-.82L10,0.5A0.5,0.5,0,0,0,9.5,0h-3A0.5,0.5,0,0,0,6,.5L5.74,2.44a6,6,0,0,0-1.42.82L2.5,2.52a0.5,0.5,0,0,0-.68.18L0.32,5.3A0.5,0.5,0,0,0,.5,6l1.56,1.2A6,6,0,0,0,2,8a6,6,0,0,0,.06.82L0.5,10a0.5,0.5,0,0,0-.18.68l1.5,2.6a0.5,0.5,0,0,0,.68.18l1.82-.75a6,6,0,0,0,1.42.82L6,15.5a0.5,0.5,0,0,0,.5.5h3a0.5,0.5,0,0,0,.5-0.5l0.26-1.94a6,6,0,0,0,1.42-.82l1.82,0.75a0.5,0.5,0,0,0,.68-0.18l1.5-2.6A0.5,0.5,0,0,0,15.5,10Zm-2,2.4-1.47-.61a1,1,0,0,0-1,.14,5,5,0,0,1-1.18.69,1,1,0,0,0-.61.79L9.06,15H6.94L6.73,13.42a1,1,0,0,0-.61-0.79,5,5,0,0,1-1.18-.69,1,1,0,0,0-1-.14l-1.47.61L1.41,10.58l1.26-1a1,1,0,0,0,.38-0.93A5,5,0,0,1,3,8a5,5,0,0,1,.05-0.68,1,1,0,0,0-.38-0.93l-1.26-1L2.47,3.58,3.94,4.19a1,1,0,0,0,1-.14,5,5,0,0,1,1.18-.69,1,1,0,0,0,.61-0.79L6.94,1H9.06L9.27,2.58a1,1,0,0,0,.61.79,5,5,0,0,1,1.18.69,1,1,0,0,0,1,.14l1.47-.61,1.06,1.83-1.26,1a1,1,0,0,0-.38.93A5,5,0,0,1,13,8a5,5,0,0,1-.05.68,1,1,0,0,0,.38.93l1.26,1Z" fill="#798288"/></svg>