<svg id="Layer_1" data-name="Layer 1" xmlns="http://www.w3.org/2000/svg" viewBox="0 0 16 16"><title>ShowSignatures_16</title><rect x="2" y="1" width="11" height="14" fill="#fff"/><path d="M13,1V15H2V1H13m0-1H2A1,1,0,0,0,1,1V15a1,1,0,0,0,1,1H13a1,1,0,0,0,1-1V1a1,1,0,0,0-1-1Z" fill="#798288"/><rect x="3" y="10" width="9" height="1" fill="#adb1b2"/><rect x="3" y="12" width="9" height="1" fill="#adb1b2"/><polygon points="7 9 5.5 8 4 9 4 5.25 7 5.25 7 9" fill="#407fb9"/><circle cx="5.5" cy="4.5" r="2.5" fill="#dfaa1a"/></svg>