<svg height="512pt" viewBox="-4 0 512 512" width="512pt" xmlns="http://www.w3.org/2000/svg"><path d="m239.96875 87.144531h.082031c4.140625 0 7.457031-3.355469 7.457031-7.5 0-4.140625-3.398437-7.5-7.539062-7.5-4.144531 0-7.5 3.359375-7.5 7.5s3.355469 7.5 7.5 7.5zm0 0"/><path d="m271.953125 87.144531h.078125c4.144531 0 7.460938-3.355469 7.460938-7.5 0-4.140625-3.398438-7.5-7.539063-7.5-4.144531 0-7.5 3.359375-7.5 7.5s3.355469 7.5 7.5 7.5zm0 0"/><path d="m105.996094 292.929688 16.726562 6.269531c3.3125 1.242187 5.535156 4.453125 5.535156 7.992187v36.984375c0 4.140625 3.359376 7.5 7.5 7.5 4.144532 0 7.5-3.359375 7.5-7.5v-36.984375c0-9.753906-6.136718-18.609375-15.269531-22.035156l-19.273437-7.226562c-3.3125-1.242188-5.535156-4.453126-5.535156-7.992188v-10.425781c9.824218-8.726563 16.03125-21.4375 16.03125-35.578125v-16.03125c0-21.816406-17.75-39.5625-39.566407-39.5625h-16.03125c-21.816406 0-39.5625 17.746094-39.5625 39.5625v16.03125c0 14.140625 6.207031 26.851562 16.03125 35.578125v10.425781c0 3.539062-2.226562 6.75-5.539062 7.992188l-19.273438 7.226562c-9.132812 3.425781-15.269531 12.28125-15.269531 22.035156v36.984375c0 4.140625 3.359375 7.5 7.5 7.5s7.5-3.359375 7.5-7.5v-36.984375c0-3.539062 2.226562-6.75 5.535156-7.992187l16.726563-6.269531 26.867187 22.667968v28.578125c0 4.144531 3.359375 7.5 7.5 7.5s7.5-3.355469 7.5-7.5v-28.578125zm-26.351563-109.589844c10.828125 0 20.035157 7.042968 23.296875 16.789062-23.792968-1.433594-43.835937-8.265625-53.617187-12.1875 4.03125-2.894531 8.960937-4.605468 14.289062-4.605468h16.03125zm-40.59375 24.5625c0-2.609375.410157-5.125 1.167969-7.484375 9.324219 4.050781 33.84375 13.417969 63.992188 14.808593v8.707032c0 17.964844-14.617188 32.582031-32.582032 32.582031s-32.578125-14.617187-32.578125-32.582031zm32.578125 63.613281c5.816406 0 11.390625-1.054687 16.546875-2.972656v1.398437c0 5.261719 1.800781 10.253906 4.878907 14.28125l-21.425782 18.078125-21.425781-18.078125c3.078125-4.03125 4.878906-9.023437 4.878906-14.285156v-1.394531c5.15625 1.917969 10.730469 2.972656 16.546875 2.972656zm0 0"/><path d="m91.160156 149.769531c1.351563 1.011719 2.929688 1.503907 4.5 1.503907 2.277344 0 4.527344-1.035157 6-2.996094 21.8125-29.039063 51.167969-51.269532 84.898438-64.289063 3.863281-1.492187 5.785156-5.835937 4.292968-9.699219-1.492187-3.863281-5.832031-5.785156-9.695312-4.296874-36.351562 14.03125-67.988281 37.988281-91.488281 69.273437-2.488281 3.3125-1.820313 8.015625 1.492187 10.503906zm0 0"/><path d="m171.132812 437.296875c-30.164062-14.800781-56.085937-37.367187-74.972656-65.253906-2.324218-3.429688-6.984375-4.324219-10.417968-2.003907-3.429688 2.324219-4.328126 6.988282-2.003907 10.417969 20.347657 30.042969 48.28125 54.355469 80.785157 70.304688 1.0625.523437 2.1875.769531 3.296874.769531 2.773438 0 5.4375-1.542969 6.738282-4.195312 1.828125-3.722657.292968-8.214844-3.425782-10.039063zm0 0"/><path d="m325.445312 83.988281c33.726563 13.019531 63.082032 35.25 84.894532 64.289063 1.476562 1.960937 3.726562 2.996094 6.003906 2.996094 1.566406 0 3.148438-.492188 4.5-1.503907 3.308594-2.488281 3.976562-7.191406 1.492188-10.5-23.503907-31.289062-55.140626-55.242187-91.488282-69.273437-3.863281-1.492188-8.207031.429687-9.699218 4.292968-1.492188 3.863282.433593 8.207032 4.296874 9.699219zm0 0"/><path d="m426.257812 370.039062c-3.429687-2.320312-8.09375-1.425781-10.417968 2.003907-18.886719 27.886719-44.808594 50.453125-74.972656 65.253906-3.714844 1.824219-5.25 6.316406-3.425782 10.035156 1.300782 2.65625 3.964844 4.199219 6.738282 4.199219 1.105468 0 2.234374-.246094 3.296874-.769531 32.5-15.949219 60.433594-40.261719 80.785157-70.308594 2.324219-3.425781 1.425781-8.089844-2.003907-10.414063zm0 0"/><path d="m55.597656 231.433594h.078125c4.144531 0 7.460938-3.355469 7.460938-7.5 0-4.140625-3.398438-7.5-7.539063-7.5-4.144531 0-7.5 3.359375-7.5 7.5 0 4.144531 3.355469 7.5 7.5 7.5zm0 0"/><path d="m87.660156 231.441406c1.972656 0 3.910156-.8125 5.300782-2.203125 1.402343-1.398437 2.199218-3.328125 2.199218-5.308593 0-1.96875-.796875-3.898438-2.199218-5.300782-1.390626-1.390625-3.328126-2.199218-5.300782-2.199218-1.976562 0-3.90625.808593-5.296875 2.199218-1.402343 1.398438-2.203125 3.332032-2.203125 5.300782 0 1.980468.800782 3.910156 2.203125 5.308593 1.390625 1.390625 3.328125 2.203125 5.296875 2.203125zm0 0"/><path d="m424.257812 216.433594c-4.140624 0-7.5 3.359375-7.5 7.5 0 4.144531 3.359376 7.5 7.5 7.5h.082032c4.140625 0 7.460937-3.355469 7.460937-7.5 0-4.140625-3.398437-7.5-7.542969-7.5zm0 0"/><path d="m488.714844 285.15625-2.378906-.890625c11.042968-8.199219 16.113281-15.675781 16.386718-16.089844 1.214844-1.820312 1.667969-4.035156 1.078125-6.140625-.589843-2.09375-1.960937-3.78125-3.921875-4.710937-.953125-.527344-11.929687-7.035157-11.929687-25.375v-24.046875c0-21.816406-17.746094-39.5625-39.5625-39.5625h-16.03125c-21.816407 0-39.566407 17.746094-39.566407 39.5625v24.046875c0 18.339843-10.972656 24.847656-11.925781 25.375-1.960937.929687-3.332031 2.617187-3.921875 4.710937-.589844 2.105469-.136718 4.320313 1.078125 6.140625.273438.414063 5.34375 7.890625 16.386719 16.089844l-2.378906.890625c-9.132813 3.425781-15.269532 12.28125-15.269532 22.035156v36.984375c0 4.140625 3.359376 7.5 7.5 7.5 4.140626 0 7.5-3.359375 7.5-7.5v-36.984375c0-3.539062 2.226563-6.75 5.535157-7.992187l3.199219-1.195313c8.734374 13.441406 23.589843 21.609375 39.878906 21.609375 16.25 0 31.136718-8.175781 39.875-21.613281l3.199218 1.199219c3.3125 1.242187 5.539063 4.453125 5.539063 7.992187v36.984375c0 4.140625 3.359375 7.5 7.5 7.5s7.5-3.359375 7.5-7.5v-36.984375c0-9.753906-6.136719-18.609375-15.269531-22.035156zm-80.925782-61.222656v-16.03125c0-2.316406.332032-4.558594.933594-6.683594 7.359375 4.703125 22.414063 13.210938 41.6875 18.21875-.941406 1.253906-1.507812 2.808594-1.507812 4.496094 0 4.144531 3.359375 7.5 7.5 7.5h.082031c4.140625 0 7.457031-3.355469 7.457031-7.5 0-.613282-.082031-1.210938-.222656-1.785156 3.011719.449218 6.089844.796874 9.234375 1.011718v.773438c0 17.964844-14.617187 32.582031-32.582031 32.582031s-32.582032-14.617187-32.582032-32.582031zm77.898438 41.148437c-3.449219 3.46875-8.941406 8.183594-16.714844 12.628907-3.046875-1.363282-5.070312-4.410157-5.070312-7.773438v-4.675781c5.257812-3.003907 9.886718-6.980469 13.648437-11.6875 2.40625 5.03125 5.40625 8.808593 8.136719 11.507812zm-37.300781-81.742187c13.546875 0 24.5625 11.019531 24.5625 24.5625v.207031c-25.644531-2.035156-47.117188-13.867187-55.898438-19.398437 4.199219-3.359376 9.519531-5.371094 15.304688-5.371094zm-31.546875 81.921875v4.679687c0 3.359375-2.023438 6.40625-5.066406 7.769532-7.773438-4.441407-13.265626-9.160157-16.71875-12.628907 2.730468-2.699219 5.730468-6.480469 8.136718-11.507812 3.757813 4.707031 8.390625 8.683593 13.648438 11.6875zm23.53125 39.351562c-10.003906 0-19.21875-4.5-25.328125-12.066406l1.527343-.574219c8.882813-3.332031 14.914063-11.804687 15.238282-21.246094 2.78125.507813 5.636718.789063 8.5625.789063 2.925781 0 5.78125-.28125 8.5625-.789063.324218 9.441407 6.355468 17.914063 15.238281 21.246094l1.519531.570313c-6.117187 7.566406-15.339844 12.070312-25.320312 12.070312zm0 0"/><path d="m239.96875 399.773438h.082031c4.140625 0 7.457031-3.359376 7.457031-7.5 0-4.140626-3.398437-7.5-7.539062-7.5-4.144531 0-7.5 3.359374-7.5 7.5 0 4.140624 3.355469 7.5 7.5 7.5zm0 0"/><path d="m271.953125 399.773438h.078125c4.144531 0 7.460938-3.359376 7.460938-7.5 0-4.140626-3.398438-7.5-7.539063-7.5-4.144531 0-7.5 3.359374-7.5 7.5 0 4.140624 3.355469 7.5 7.5 7.5zm0 0"/><path d="m312.359375 453.496094-19.273437-7.230469c-3.3125-1.242187-5.535157-4.453125-5.535157-7.988281v-10.429688c9.824219-8.722656 16.03125-21.433594 16.03125-35.574218v-48.097657c0-4.140625-3.359375-7.5-7.5-7.5h-56.113281c-17.398438 0-31.546875 14.152344-31.546875 31.546875v24.050782c0 14.140624 6.207031 26.851562 16.03125 35.574218v10.429688c0 3.535156-2.226563 6.746094-5.539063 7.988281l-19.273437 7.226563c-9.132813 3.425781-15.269531 12.28125-15.269531 22.035156v28.972656c0 4.140625 3.359375 7.5 7.5 7.5 4.144531 0 7.5-3.359375 7.5-7.5v-28.972656c0-3.535156 2.226562-6.746094 5.539062-7.988282l16.429688-6.160156 23.746094 23.5c3.011718 2.976563 6.960937 4.464844 10.914062 4.464844s7.90625-1.488281 10.914062-4.464844l23.75-23.5 16.429688 6.160156c3.3125 1.242188 5.539062 4.453126 5.539062 7.988282v28.972656c0 4.140625 3.355469 7.5 7.5 7.5 4.140626 0 7.5-3.359375 7.5-7.5v-28.972656c-.003906-9.753906-6.140624-18.605469-15.273437-22.03125zm-72.390625-101.820313h48.613281v9.050781h-63.347656c2.742187-5.363281 8.308594-9.050781 14.734375-9.050781zm-16.546875 24.050781h65.160156v16.546876c0 17.964843-14.617187 32.582031-32.582031 32.582031s-32.578125-14.617188-32.578125-32.582031zm32.941406 98.488282c-.203125.199218-.527343.199218-.726562 0l-21.414063-21.1875c3.300782-4.105469 5.226563-9.285156 5.226563-14.75v-1.394532c5.160156 1.917969 10.734375 2.972657 16.550781 2.972657s11.390625-1.054688 16.546875-2.972657v1.394532c0 5.464844 1.929687 10.648437 5.226563 14.75zm0 0"/><path d="m199.886719 183.339844c4.140625 0 7.5-3.359375 7.5-7.5v-12.941406c0-3.535157 2.226562-6.746094 5.539062-7.988282l10.617188-3.980468 4.628906 4.582031c5.761719 5.699219 12.875 9.257812 20.328125 10.679687v9.648438c0 4.140625 3.359375 7.5 7.5 7.5 4.144531 0 7.5-3.359375 7.5-7.5v-9.648438c7.453125-1.421875 14.570312-4.980468 20.328125-10.679687l4.632813-4.582031 10.617187 3.980468c3.3125 1.242188 5.535156 4.453125 5.535156 7.988282v12.941406c0 4.140625 3.359375 7.5 7.5 7.5 4.144531 0 7.5-3.359375 7.5-7.5v-12.941406c0-9.753907-6.136719-18.605469-15.269531-22.03125l-19.273438-7.230469c-3.3125-1.242188-5.535156-4.449219-5.535156-7.988281v-4.675782c14.347656-8.203125 24.046875-23.648437 24.046875-41.328125v-16.03125c0-16.421875-10.054687-30.53125-24.332031-36.511719.183594-1.175781.285156-2.371093.285156-3.570312-.003906-12.972656-10.558594-23.53125-23.535156-23.53125s-23.53125 10.558594-23.53125 23.53125c0 1.199219.101562 2.394531.28125 3.570312-14.273438 5.980469-24.328125 20.089844-24.328125 36.511719v16.03125c0 17.679688 9.695313 33.125 24.046875 41.328125v4.675782c0 3.539062-2.226562 6.75-5.535156 7.992187l-19.277344 7.226563c-9.132812 3.425781-15.269531 12.28125-15.269531 22.035156v12.9375c0 4.140625 3.359375 7.5 7.5 7.5zm47.582031-159.808594c0-4.703125 3.828125-8.53125 8.53125-8.53125 4.707031 0 8.53125 3.828125 8.53125 8.53125 0 .179688-.023438.351562-.03125.527344-.160156 0-.320312-.011719-.484375-.011719h-16.03125c-.160156 0-.320313.011719-.480469.011719-.011718-.175782-.035156-.347656-.035156-.527344zm.515625 15.515625h16.03125c12.480469 0 22.808594 9.355469 24.355469 21.421875l-29.585938-11.835938c-1.789062-.714843-3.78125-.714843-5.570312 0l-29.585938 11.835938c1.546875-12.066406 11.875-21.421875 24.355469-21.421875zm-24.5625 37.660156 32.578125-13.03125 32.582031 13.03125v2.9375c0 17.964844-14.617187 32.582031-32.582031 32.582031s-32.578125-14.617187-32.578125-32.582031zm32.578125 50.519531c2.925781 0 5.785156-.28125 8.5625-.789062.242188 7.113281 3.726562 13.671875 9.234375 17.898438l-.519531.511718c-9.523438 9.429688-25.027344 9.429688-34.554688 0l-.519531-.511718c5.511719-4.226563 8.992187-10.785157 9.234375-17.898438 2.78125.507812 5.636719.789062 8.5625.789062zm0 0"/></svg>