<?xml version="1.0"?>
<svg xmlns="http://www.w3.org/2000/svg" height="512px" viewBox="0 0 480 480" width="512px" class=""><g><path d="m8 8h464v64h-464zm0 0" fill="#9bc9ff" data-original="#9BC9FF" class="active-path" style="fill:#637382" data-old_color="#9bc9ff"/><path d="m152 160h-48c-8.835938 0-16 7.164062-16 16s7.164062 16 16 16h48c8.835938 0 16-7.164062 16-16s-7.164062-16-16-16zm0 0" fill="#9bc9ff" data-original="#9BC9FF" class="active-path" style="fill:#637382" data-old_color="#9bc9ff"/><path d="m264 256h-48c-8.835938 0-16 7.164062-16 16s7.164062 16 16 16h48c8.835938 0 16-7.164062 16-16s-7.164062-16-16-16zm0 0" fill="#9bc9ff" data-original="#9BC9FF" class="active-path" style="fill:#637382" data-old_color="#9bc9ff"/><path d="m376 352h-48c-8.835938 0-16 7.164062-16 16s7.164062 16 16 16h48c8.835938 0 16-7.164062 16-16s-7.164062-16-16-16zm0 0" fill="#9bc9ff" data-original="#9BC9FF" class="active-path" style="fill:#637382" data-old_color="#9bc9ff"/><g fill="#1e81ce"><path d="m472 0h-464c-4.417969 0-8 3.582031-8 8v464c0 4.417969 3.582031 8 8 8h464c4.417969 0 8-3.582031 8-8v-464c0-4.417969-3.582031-8-8-8zm-456 16h448v48h-448zm448 448h-448v-384h448zm0 0" data-original="#1E81CE" class="" style="fill:#637382" data-old_color="#1E81CE"/><path d="m32 32h16v16h-16zm0 0" data-original="#1E81CE" class="" style="fill:#637382" data-old_color="#1E81CE"/><path d="m64 32h16v16h-16zm0 0" data-original="#1E81CE" class="" style="fill:#637382" data-old_color="#1E81CE"/><path d="m96 32h16v16h-16zm0 0" data-original="#1E81CE" class="" style="fill:#637382" data-old_color="#1E81CE"/><path d="m104 200h48c10.132812-.042969 19.148438-6.445312 22.527344-16h257.472656v-16h-257.472656c-3.378906-9.554688-12.394532-15.957031-22.527344-16h-48c-10.132812.042969-19.148438 6.445312-22.527344 16h-33.472656v16h33.472656c3.378906 9.554688 12.394532 15.957031 22.527344 16zm0-32h48c4.417969 0 8 3.582031 8 8s-3.582031 8-8 8h-48c-4.417969 0-8-3.582031-8-8s3.582031-8 8-8zm0 0" data-original="#1E81CE" class="" style="fill:#637382" data-old_color="#1E81CE"/><path d="m216 296h48c10.132812-.042969 19.148438-6.445312 22.527344-16h145.472656v-16h-145.472656c-3.378906-9.554688-12.394532-15.957031-22.527344-16h-48c-10.132812.042969-19.148438 6.445312-22.527344 16h-145.472656v16h145.472656c3.378906 9.554688 12.394532 15.957031 22.527344 16zm0-32h48c4.417969 0 8 3.582031 8 8s-3.582031 8-8 8h-48c-4.417969 0-8-3.582031-8-8s3.582031-8 8-8zm0 0" data-original="#1E81CE" class="" style="fill:#637382" data-old_color="#1E81CE"/><path d="m328 392h48c10.132812-.042969 19.148438-6.445312 22.527344-16h33.472656v-16h-33.472656c-3.378906-9.554688-12.394532-15.957031-22.527344-16h-48c-10.132812.042969-19.148438 6.445312-22.527344 16h-257.472656v16h257.472656c3.378906 9.554688 12.394532 15.957031 22.527344 16zm0-32h48c4.417969 0 8 3.582031 8 8s-3.582031 8-8 8h-48c-4.417969 0-8-3.582031-8-8s3.582031-8 8-8zm0 0" data-original="#1E81CE" class="" style="fill:#637382" data-old_color="#1E81CE"/></g></g> </svg>
