<svg width="16" height="16" viewBox="0 0 16 16" fill="none" xmlns="http://www.w3.org/2000/svg">
    <g clip-path="url(#clip0)">
        <path d="M3 4H14V14C14 15.1046 13.1046 16 12 16H5C3.89543 16 3 15.1046 3 14V4Z" fill="white"/>
        <path d="M3 1.5H14C14.1864 1.5 14.3028 1.55994 14.3714 1.62855C14.4401 1.69716 14.5 1.81362 14.5 2V3C14.5 3.18638 14.4401 3.30284 14.3714 3.37145C14.3028 3.44006 14.1864 3.5 14 3.5H3C2.81362 3.5 2.69716 3.44006 2.62855 3.37145C2.55994 3.30284 2.5 3.18638 2.5 3V2C2.5 1.81362 2.55994 1.69716 2.62855 1.62855C2.69716 1.55994 2.81362 1.5 3 1.5Z" fill="white" stroke="#798288"/>
        <mask id="path-3-inside-1" fill="white">
            <path d="M10 0H7C6.4 0 6 0.4 6 1H11C11 0.4 10.6 0 10 0Z"/>
        </mask>
        <path d="M6 1H5V2H6V1ZM11 1V2H12V1H11ZM10 -1H7V1H10V-1ZM7 -1C6.47275 -1 5.95567 -0.819886 5.56789 -0.432107C5.18011 -0.0443275 5 0.472752 5 1H7C7 0.961282 7.00634 0.946698 7.00522 0.949604C7.00474 0.950855 7.00288 0.955246 6.99877 0.961623C6.99464 0.96804 6.98907 0.975143 6.98211 0.982107C6.97514 0.989071 6.96804 0.994639 6.96162 0.998774C6.95525 1.00288 6.95085 1.00474 6.9496 1.00522C6.9467 1.00634 6.96128 1 7 1V-1ZM6 2H11V0H6V2ZM12 1C12 0.472752 11.8199 -0.0443275 11.4321 -0.432107C11.0443 -0.819886 10.5272 -1 10 -1V1C10.0387 1 10.0533 1.00634 10.0504 1.00522C10.0491 1.00474 10.0448 1.00288 10.0384 0.998774C10.032 0.994639 10.0249 0.989071 10.0179 0.982107C10.0109 0.975143 10.0054 0.96804 10.0012 0.961623C9.99712 0.955246 9.99526 0.950855 9.99478 0.949604C9.99366 0.946698 10 0.961282 10 1H12Z" fill="#798288" mask="url(#path-3-inside-1)"/>
        <path fill-rule="evenodd" clip-rule="evenodd" d="M13 4H4V14C4 14.5523 4.44772 15 5 15H12C12.5523 15 13 14.5523 13 14V4ZM4 3H3V4V14C3 15.1046 3.89543 16 5 16H12C13.1046 16 14 15.1046 14 14V4V3H13H4Z" fill="#798288"/>
        <rect x="6" y="6" width="1" height="7" fill="#798288"/>
        <rect x="8" y="6" width="1" height="7" fill="#798288"/>
        <rect x="10" y="6" width="1" height="7" fill="#798288"/>
    </g>
    <defs>
        <clipPath id="clip0">
            <rect width="16" height="16" fill="white"/>
        </clipPath>
    </defs>
</svg>
