<?xml version="1.0" encoding="utf-8"?>
<!-- Generator: Adobe Illustrator 23.0.3, SVG Export Plug-In . SVG Version: 6.00 Build 0)  -->
<svg version="1.1" id="Layer_1" xmlns="http://www.w3.org/2000/svg" xmlns:xlink="http://www.w3.org/1999/xlink" x="0px" y="0px"
	 viewBox="0 0 16 16" style="enable-background:new 0 0 16 16;" xml:space="preserve">
<style type="text/css">
	.st0{fill:#FFFFFF;}
	.st1{fill:#637382;}
</style>
<title>documentkind</title>
<polygon class="st0" points="13,15 3,15 3,1 11.5,1 13,2.5 "/>
<path class="st1" d="M0.5,3h2C2.8,3,3,3.2,3,3.5v2C3,5.8,2.8,6,2.5,6h-2C0.2,6,0,5.8,0,5.5v-2C0,3.2,0.2,3,0.5,3z"/>
<path class="st1" d="M0.5,7h2C2.8,7,3,7.2,3,7.5v2C3,9.8,2.8,10,2.5,10h-2C0.2,10,0,9.8,0,9.5v-2C0,7.2,0.2,7,0.5,7z"/>
<path class="st1" d="M0.5,11h2C2.8,11,3,11.2,3,11.5v2C3,13.8,2.8,14,2.5,14h-2C0.2,14,0,13.8,0,13.5v-2C0,11.2,0.2,11,0.5,11z"/>
<path class="st1" d="M11.4,0H3C2.4,0,2,0.4,2,1v1h1V1h7v2c0,0.6,0.4,1,1,1h2v11H2c0,0.6,0.4,1,1,1h10c0.6,0,1-0.4,1-1V2.6L11.4,0z
	 M11,3V1l2,2H11z"/>
<rect x="4" y="6" class="st1" width="8" height="1"/>
<rect x="4" y="8" class="st1" width="8" height="1"/>
<rect x="4" y="10" class="st1" width="8" height="1"/>
<rect x="4" y="12" class="st1" width="8" height="1"/>
</svg>
