<?xml version="1.0"?>
<svg xmlns="http://www.w3.org/2000/svg" xmlns:xlink="http://www.w3.org/1999/xlink" version="1.1" id="Capa_1" x="0px" y="0px" viewBox="0 0 336.275 336.275" style="enable-background:new 0 0 336.275 336.275;" xml:space="preserve" width="512px" height="512px" class=""><g><g>
	<path d="M246.368,52.587C240.675,22.648,214.37,0,182.77,0c-31.325,0-57.452,22.246-63.454,51.796   c-4.209-0.856-8.555-1.306-13.01-1.306c-35.766,0-64.754,28.992-64.754,64.755c0,35.762,28.988,64.755,64.754,64.755h123.656   c35.767,0,64.762-28.993,64.762-64.755C294.724,85.15,274.189,59.853,246.368,52.587z" data-original="#000000" class="active-path" data-old_color="#000000" fill="#858484"/>
	<path d="M253.138,249.637c-6.903,0-12.5,5.597-12.5,12.5v49.139h-145v-49.139c0-6.903-5.598-12.5-12.5-12.5   c-6.903,0-12.5,5.597-12.5,12.5v61.639c0,6.903,5.597,12.5,12.5,12.5h170c6.902,0,12.5-5.597,12.5-12.5v-61.639   C265.638,255.233,260.04,249.637,253.138,249.637z" data-original="#000000" class="active-path" data-old_color="#000000" fill="#858484"/>
	<path d="M168.138,296.963c6.902,0,12.5-5.597,12.5-12.5V230.51l13.456,13.456c4.881,4.882,12.796,4.883,17.677,0.001   c4.883-4.881,4.883-12.796,0-17.677l-34.792-34.795c-2.344-2.345-5.523-3.662-8.839-3.662c-3.314,0-6.494,1.317-8.839,3.661   l-34.797,34.796c-4.882,4.881-4.882,12.796,0,17.678c2.441,2.441,5.64,3.662,8.839,3.661c3.197-0.001,6.398-1.221,8.839-3.661   l13.456-13.456v53.951C155.638,291.366,161.234,296.963,168.138,296.963z" data-original="#000000" class="active-path" data-old_color="#000000" fill="#858484"/>
</g></g> </svg>
