<?xml version="1.0" encoding="utf-8"?>
<!-- Generator: Adobe Illustrator 23.0.3, SVG Export Plug-In . SVG Version: 6.00 Build 0)  -->
<svg version="1.1" id="Layer_1" xmlns="http://www.w3.org/2000/svg" xmlns:xlink="http://www.w3.org/1999/xlink" x="0px" y="0px"
	 viewBox="0 0 20 20" style="enable-background:new 0 0 20 20;" xml:space="preserve">
<style type="text/css">
	.st0{fill:#637382;}
</style>
<title>replacement</title>
<path class="st0" d="M13.6,2.4L13.6,2.4L13.4,2c-0.8-1.3-2.3-2.1-3.9-2C8.6,0,7.7,0.2,7,0.7C5.8,1.3,5,2.6,5.1,4
	C5,4.9,5,5.8,5.1,6.8c0,1.9,0.7,3.7,1.9,5.2c0.7,0.6,1.5,0.9,2.4,0.9c0.9,0,1.8-0.4,2.6-0.9c0,0,1.9-1.2,2-8
	C14,3.5,13.9,2.9,13.6,2.4z M11.4,11.2C11.4,11.2,11.4,11.2,11.4,11.2c-0.6,0.5-1.3,0.7-2,0.8c-0.6,0-1.3-0.2-1.7-0.6
	C6.4,9.8,6.2,7.3,6,5.2C6.5,4.5,7.3,4,8.1,4c1-0.1,3.3,0.4,4.8-0.4c0,0.1,0,0.3,0,0.4C12.9,9.5,11.6,11,11.4,11.2L11.4,11.2z"/>
<path class="st0" d="M5.4,14.2c0.7,1.6,2.3,2.7,4.1,2.8c1.7-0.1,3.3-1.1,4-2.7l4,1.6c0.2,0.1,0.4,0.4,0.5,0.6V19H1v-2.5
	c0-0.3,0.2-0.5,0.5-0.6L5.4,14.2 M5.9,12.9L1,15c-0.6,0.3-1,0.9-1,1.5V20h19v-3.5c-0.1-0.6-0.5-1.2-1-1.5l-5-2c0,0-1,3-3.5,3
	S5.9,12.9,5.9,12.9L5.9,12.9L5.9,12.9z"/>
<path class="st0" d="M6,9.4C6,9.6,6,9.8,6,10c0.1,1,0,2-0.1,2.9l0,0c0.2,0.5,0.5,1,0.8,1.5c0.2-1,0.2-2,0.2-3
	C6.5,10.8,6.2,10.1,6,9.4z"/>
<path class="st0" d="M13,10c0-0.2,0-0.5,0-0.7c-0.2,0.7-0.5,1.4-1,2c0,1,0.1,2.1,0.3,3.1c0.3-0.4,0.5-0.9,0.7-1.4l0,0
	C12.9,12,12.9,11,13,10z"/>
</svg>
