<?xml version="1.0" encoding="utf-8"?>
<!-- Generator: Adobe Illustrator 23.0.3, SVG Export Plug-In . SVG Version: 6.00 Build 0)  -->
<svg version="1.1" id="Layer_1" xmlns="http://www.w3.org/2000/svg" xmlns:xlink="http://www.w3.org/1999/xlink" x="0px" y="0px"
	 viewBox="0 0 32 32" style="enable-background:new 0 0 32 32;" xml:space="preserve">
<style type="text/css">
	.st0{fill:#FFFFFF;}
	.st1{fill:#637382;}
</style>
<title>department_32</title>
<path class="st0" d="M23.8,14.5c0.1-1.7-4-8.3-7.8-8.5v14h4c3,0,5,3.5,5,3.5S23.5,17.4,23.8,14.5z"/>
<path class="st1" d="M20,11.6c0.9-0.1,1.9,0.2,2.6,0.8c0.5,0.6,0.2,1.4,0.2,2c0,2.7,0.4,5.3,1,7.9c-1.3,0.1-2.5,0.2-3.8,0.2v1.3
	c1.9,0,3.8-0.2,5.7-0.4c0,0-1.8-6.3-1.3-10.2c0.1-1.7-0.5-2.8-4.4-2.8L20,11.6L20,11.6z"/>
<path class="st1" d="M32,24H18c0.7-1.2,1.1-2.6,1.2-4c3.2,0,5.3-3,5.3-3l6.3,2.6c0.7,0.4,1.1,1.1,1.3,1.9V24z"/>
<path class="st0" d="M19.7,0.9c-2.6,0-4.8,2.1-4.9,4.7v0.5c0,6.2,5.1,8.3,5.1,10.1c1,0.1,2-0.3,2.6-1c0,0,2.4-1,2.5-9.7
	C25.1,3.8,23.9,0.8,19.7,0.9z"/>
<path class="st1" d="M25.5,3.8c-0.7-2.4-3-3.9-5.5-3.8c-1.3-0.1-2.6,0.3-3.6,1.1c-1.3,0.9-2,2.4-2,4c0,0.3,0,0.9,0,1.2
	c0.6,0.1,1.1,0.3,1.6,0.5c0-0.3,0-1.1,0-1.4c0.7-0.5,1.4-0.7,2.2-0.7C19.4,4.7,22,5.3,24,4.6c0,0.2,0,0.3,0,0.5c0.3,6-0.3,9.1-4,9.3
	h0c0,0.6-0.1,1.1-0.1,1.6H20c4.2,0,5.5-2.2,5.6-10.9C25.6,4.8,25.4,3.8,25.5,3.8z"/>
<path class="st0" d="M8.2,22.5c0,3-0.4,6-1.2,8.9c3.3,0.6,6.7,0.6,10,0.1c0,0-1.5-6.1-1.3-9c0.1-1.8,0.1-4-4.1-4.2
	C7.9,18.3,8.2,22.5,8.2,22.5z"/>
<path class="st1" d="M12,19.6c0.9-0.1,1.9,0.2,2.6,0.8c0.5,0.6,0.2,1.4,0.2,2c0,2.7,0.4,5.3,1,7.9c-1.4,0.2-2.8,0.2-4.2,0.2
	c-1.2,0.1-2.3,0.1-3.5,0.1c0.6-2.6,1-5.3,0.9-8c0,0,0-0.1,0-0.1c-0.2-0.7-0.1-1.4,0.2-2c0.6-0.6,1.5-1,2.4-0.9L12,19.6 M12,18.4
	h-0.3c-4.8,0.1-4.1,2.8-4.1,2.8c0.3,2.6-0.8,8.6-1.3,10.2c1.8,0.3,3.5,0.4,5.3,0.4c2,0,4.1-0.1,6.1-0.4c0,0-1.8-6.3-1.3-10.2
	C16.5,19.5,15.8,18.4,12,18.4L12,18.4L12,18.4z"/>
<path class="st0" d="M6.9,13.6C7,17.1,7,20.3,8.9,23c3.2,2.7,5.8,0.3,5.8,0.3s2.4-1.1,2.5-9.7c0-1.8-1.2-4.8-5.4-4.7
	C9.1,8.9,6.9,11,6.9,13.6z"/>
<path class="st1" d="M17.5,11.8c-0.7-2.4-3-3.9-5.5-3.8c-1.3-0.1-2.6,0.3-3.6,1.1c-1.3,0.9-2,2.4-2,4C6.4,17.6,6.1,24,12,24
	c4.2,0,5.5-2.2,5.6-10.9C17.6,12.8,17.4,11.8,17.5,11.8z M12,22.4c-4.6,0-3.9-6-4-8.9c0.7-0.5,1.4-0.7,2.2-0.7
	c1.2-0.1,3.8,0.5,5.8-0.2c0,0.2,0,0.3,0,0.5C16.3,19.1,15.7,22.2,12,22.4z"/>
<path class="st1" d="M24,32H0v-2.5c0-0.8,0.5-1.6,1.3-1.9l6.2-2.5c0.9,1.8,2.6,2.9,4.6,3c2-0.1,3.7-1.3,4.4-3.1l6.3,2.6
	c0.7,0.4,1.1,1.1,1.3,1.9V32z"/>
</svg>
