<?xml version="1.0" encoding="utf-8"?>
<!-- Generator: Adobe Illustrator 23.0.3, SVG Export Plug-In . SVG Version: 6.00 Build 0)  -->
<svg version="1.1" id="Layer_1" xmlns="http://www.w3.org/2000/svg" xmlns:xlink="http://www.w3.org/1999/xlink" x="0px" y="0px"
	 viewBox="0 0 16 16" style="enable-background:new 0 0 16 16;" xml:space="preserve">
<style type="text/css">
	.st0{fill:#FFFFFF;}
	.st1{fill:#637382;}
</style>
<title>docx_small</title>
<polygon class="st0" points="13,15 3,15 3,1 11.5,1 13,2.5 "/>
<rect y="4" class="st1" width="10" height="10"/>
<path class="st0" d="M3,12L1.5,6h0.8L3,9c0.2,0.8,0.3,1.5,0.4,2.1l0,0C3.5,10.5,3.7,9.8,3.9,9l0.8-3h0.8l0.7,3
	c0.2,0.7,0.3,1.4,0.4,2.1l0,0C6.7,10.4,6.8,9.8,7,9l0.7-3h0.8l-1.6,6H6.1L5.4,8.9C5.2,8.2,5.1,7.5,5,6.9h0c-0.1,0.7-0.3,1.3-0.4,2
	L3.7,12H3z"/>
<path class="st1" d="M11.4,0H3C2.4,0,2,0.4,2,1v2h1V1h7v2c0,0.6,0.4,1,1,1h2v11H2c0,0.6,0.4,1,1,1h10c0.6,0,1-0.4,1-1V2.6L11.4,0z
	 M11,3V1l2,2H11z"/>
</svg>
