<?xml version="1.0" encoding="utf-8"?>
<!-- Generator: Adobe Illustrator 24.0.1, SVG Export Plug-In . SVG Version: 6.00 Build 0)  -->
<svg version="1.1" id="Слой_1" xmlns="http://www.w3.org/2000/svg" xmlns:xlink="http://www.w3.org/1999/xlink" x="0px" y="0px"
	 viewBox="0 0 955 680.5" style="enable-background:new 0 0 955 680.5;" xml:space="preserve">
<style type="text/css">
	.st0{display:none;}
	.st1{display:inline;fill:none;stroke:#535461;stroke-width:2;stroke-miterlimit:10;}
	.st2{display:inline;opacity:0.1;fill:#252223;enable-background:new    ;}
	.st3{display:inline;opacity:0.3;fill:#4285F4;enable-background:new    ;}
	.st4{display:inline;opacity:0.4;fill:#FFFFFF;enable-background:new    ;}
	.st5{display:inline;fill:url(#SVGID_1_);}
	.st6{display:inline;fill:url(#SVGID_2_);}
	.st7{display:inline;fill:url(#SVGID_3_);}
	.st8{display:inline;opacity:5.000000e-02;enable-background:new    ;}
	.st9{fill:url(#SVGID_4_);}
	.st10{fill:url(#SVGID_5_);}
	.st11{fill:#775724;}
	.st12{fill:url(#SVGID_6_);}
</style>
<g id="Слой_1_1_">
	<g id="a1e1094a-0c8c-49ef-9e46-7b691cb0c375" class="st0">
		<title>walk in the city</title>
		<path class="st1" d="M-133.2,637.6"/>
		<path class="st2" d="M857.6,578c-7.1,3.7-14.6,6.8-21.9,10c-27.2,11.5-54.8,23.1-84,27c-54.9,7.3-111.5-12.7-165.4-0.2
			c-45.2,10.4-82.5,42.3-126.6,56.6c-20.5,6.6-41.8,9.2-63.4,9.2h-2.8c-2.7,0-5.3-0.1-7.9-0.2c-21.8-0.8-43.8-4-65.1-8.2
			c-67.6-13-136.3-36.8-188-80.7C282.8,563.9,592.7,521.8,857.6,578z"/>
		<polygon class="st3" points="910,249 910,185 872,185 872,249 827,249 827,150 794,150 794,76 767,76 767,0 711,0 711,76 684,76 
			684,150 652,150 652,61 634,61 634,16 623,16 623,61 559,61 559,345 510,345 510,315 480,315 480,345 431,345 431,249 343,249 
			343,185 305,185 305,249 303,249 303,372 263,372 263,300 215,300 215,372 175,372 175,150 144,150 144,76 30,76 30,150 0,150 
			0,541 175,541 303,541 431,541 559,541 652,541 827,541 955,541 955,249 		"/>
		<rect x="19" y="173" class="st4" width="42" height="24"/>
		<rect x="113" y="173" class="st4" width="42" height="24"/>
		<rect x="19" y="220" class="st4" width="42" height="24"/>
		<rect x="113" y="220" class="st4" width="42" height="24"/>
		<rect x="19" y="267" class="st4" width="42" height="24"/>
		<rect x="113" y="267" class="st4" width="42" height="24"/>
		<rect x="19" y="314" class="st4" width="42" height="24"/>
		<rect x="113" y="314" class="st4" width="42" height="24"/>
		<rect x="19" y="361" class="st4" width="42" height="24"/>
		<rect x="113" y="361" class="st4" width="42" height="24"/>
		<rect x="19" y="408" class="st4" width="42" height="24"/>
		<rect x="113" y="408" class="st4" width="42" height="24"/>
		<rect x="19" y="455" class="st4" width="42" height="24"/>
		<rect x="113" y="455" class="st4" width="42" height="24"/>
		<rect x="190" y="396" class="st4" width="98" height="12"/>
		<rect x="190" y="414" class="st4" width="98" height="12"/>
		<rect x="190" y="432" class="st4" width="98" height="12"/>
		<rect x="446" y="402" class="st4" width="98" height="12"/>
		<rect x="446" y="420" class="st4" width="98" height="12"/>
		<rect x="446" y="438" class="st4" width="98" height="12"/>
		<rect x="190" y="450" class="st4" width="98" height="12"/>
		<rect x="190" y="468" class="st4" width="98" height="12"/>
		<rect x="190" y="486" class="st4" width="98" height="12"/>
		<rect x="324" y="272" class="st4" width="27" height="35"/>
		<rect x="383" y="272" class="st4" width="27" height="35"/>
		<rect x="324" y="328" class="st4" width="27" height="35"/>
		<rect x="383" y="328" class="st4" width="27" height="35"/>
		<rect x="324" y="384" class="st4" width="27" height="35"/>
		<rect x="383" y="384" class="st4" width="27" height="35"/>
		<rect x="324" y="440" class="st4" width="27" height="35"/>
		<rect x="383" y="440" class="st4" width="27" height="35"/>
		<rect x="559" y="84" class="st4" width="36" height="46"/>
		<rect x="559" y="150" class="st4" width="36" height="46"/>
		<rect x="559" y="216" class="st4" width="36" height="46"/>
		<rect x="559" y="282" class="st4" width="36" height="46"/>
		<rect x="559" y="348" class="st4" width="36" height="46"/>
		<rect x="559" y="414" class="st4" width="36" height="46"/>
		<rect x="672.5" y="178" class="st4" width="134" height="39"/>
		<rect x="673" y="262" class="st4" width="134" height="39"/>
		<rect x="673.5" y="346" class="st4" width="134" height="39"/>
		<rect x="674" y="430" class="st4" width="134" height="39"/>
		<rect x="30" y="97" class="st4" width="18" height="38"/>
		<rect x="910" y="272" class="st4" width="45" height="58"/>
		<rect x="910" y="356" class="st4" width="45" height="58"/>
		<rect x="910" y="440" class="st4" width="45" height="58"/>
		<path class="st2" d="M264.7,47.7h-6.9c2.7,0.1,4.9-1.9,5-4.6c0.1-2.7-1.9-4.9-4.6-5c-0.1,0-0.3,0-0.4,0h-55.7
			c-2.7,0.1-4.7,2.4-4.6,5c0.1,2.5,2.1,4.5,4.6,4.6h6.9c-2.7-0.1-4.9,1.9-5,4.6c-0.1,2.7,1.9,4.9,4.6,5c0.1,0,0.3,0,0.4,0h-9.6
			c-2.7-0.1-4.9,1.9-5,4.6c-0.1,2.7,1.9,4.9,4.6,5c0.1,0,0.3,0,0.4,0h55.7c2.7,0.1,4.9-1.9,5-4.6c0.1-2.7-1.9-4.9-4.6-5
			c-0.1,0-0.3,0-0.4,0h9.6c2.7,0.1,4.9-1.9,5-4.6c0.1-2.7-1.9-4.9-4.6-5C265,47.7,264.8,47.7,264.7,47.7L264.7,47.7z"/>
		<path class="st2" d="M510.7,168.7h-6.9c2.7,0.1,4.9-1.9,5-4.6c0.1-2.7-1.9-4.9-4.6-5c-0.1,0-0.3,0-0.4,0h-55.7
			c-2.7,0.1-4.7,2.4-4.6,5c0.1,2.5,2.1,4.5,4.6,4.6h6.9c-2.7-0.1-4.9,1.9-5,4.6c-0.1,2.7,1.9,4.9,4.6,5c0.1,0,0.3,0,0.4,0h-9.6
			c-2.7-0.1-4.9,1.9-5,4.6c-0.1,2.7,1.9,4.9,4.6,5c0.1,0,0.3,0,0.4,0H501c2.7,0.1,4.9-1.9,5-4.6c0.1-2.7-1.9-4.9-4.6-5
			c-0.1,0-0.3,0-0.4,0h9.6c2.7,0.1,4.9-1.9,5-4.6c0.1-2.7-1.9-4.9-4.6-5C511,168.7,510.8,168.7,510.7,168.7z"/>
		<path class="st2" d="M929.7,10.7h-6.9c2.7,0.1,4.9-1.9,5-4.6s-1.9-4.9-4.6-5c-0.1,0-0.3,0-0.4,0h-55.7c-2.7,0.1-4.7,2.4-4.6,5
			c0.1,2.5,2.1,4.5,4.6,4.6h6.9c-2.7-0.1-4.9,1.9-5,4.6s1.9,4.9,4.6,5c0.1,0,0.3,0,0.4,0h-9.6c-2.7-0.1-4.9,1.9-5,4.6s1.9,4.9,4.6,5
			c0.1,0,0.3,0,0.4,0h55.7c2.7-0.1,4.7-2.4,4.6-5c-0.1-2.5-2.1-4.5-4.6-4.6h9.6c2.7,0.1,4.9-1.9,5-4.6s-1.9-4.9-4.6-5
			C930,10.7,929.8,10.7,929.7,10.7z"/>
		
			<linearGradient id="SVGID_1_" gradientUnits="userSpaceOnUse" x1="518.88" y1="-497.6" x2="520.07" y2="-497.6" gradientTransform="matrix(1 0 0 1 -122.5 854.25)">
			<stop  offset="0" style="stop-color:#808080;stop-opacity:0.25"/>
			<stop  offset="0.54" style="stop-color:#808080;stop-opacity:0.12"/>
			<stop  offset="1" style="stop-color:#808080;stop-opacity:0.1"/>
		</linearGradient>
		<path class="st5" d="M397.6,356.2c-0.8,0.6-1.2,0.9-1.2,0.9C396.8,356.8,397.2,356.5,397.6,356.2z"/>
		
			<linearGradient id="SVGID_2_" gradientUnits="userSpaceOnUse" x1="519.81" y1="-496.7" x2="521.01" y2="-496.7" gradientTransform="matrix(1 0 0 1 -122.5 854.25)">
			<stop  offset="0" style="stop-color:#808080;stop-opacity:0.25"/>
			<stop  offset="0.54" style="stop-color:#808080;stop-opacity:0.12"/>
			<stop  offset="1" style="stop-color:#808080;stop-opacity:0.1"/>
		</linearGradient>
		<path class="st6" d="M398.5,357.1c-0.8,0.6-1.2,0.9-1.2,0.9C397.7,357.8,398.1,357.5,398.5,357.1z"/>
		
			<linearGradient id="SVGID_3_" gradientUnits="userSpaceOnUse" x1="519.81" y1="-497.6" x2="521.01" y2="-497.6" gradientTransform="matrix(1 0 0 1 -122.5 854.25)">
			<stop  offset="0" style="stop-color:#808080;stop-opacity:0.25"/>
			<stop  offset="0.54" style="stop-color:#808080;stop-opacity:0.12"/>
			<stop  offset="1" style="stop-color:#808080;stop-opacity:0.1"/>
		</linearGradient>
		<path class="st7" d="M398.5,356.2c-0.8,0.6-1.2,0.9-1.2,0.9C397.7,356.8,398.1,356.5,398.5,356.2z"/>
		
			<rect x="430.3" y="83" transform="matrix(0.1917 -0.9815 0.9815 0.1917 260.2561 494.8314)" class="st8" width="0.5" height="12.8"/>
	</g>
	
		<linearGradient id="SVGID_4_" gradientUnits="userSpaceOnUse" x1="2289.7788" y1="919.8" x2="2414.1277" y2="919.8" gradientTransform="matrix(-0.9409 0 0 -1 2271.4529 1260)">
		<stop  offset="0" style="stop-color:#FFFFFF;stop-opacity:0"/>
		<stop  offset="8.962709e-02" style="stop-color:#FFFFFF;stop-opacity:8.962709e-02"/>
		<stop  offset="1" style="stop-color:#FFFFFF"/>
	</linearGradient>
	<path class="st9" d="M0.8,0C1,0.4,1.1,0.8,0.9,1.4C0.6,2.6,0.3,3.8,0,5v433c0.4,22.6,0.6,45.3,0.5,67.9C0.4,521.5,0.3,537,0,552.6
		v127.8h117V0H0.8z"/>
	
		<linearGradient id="SVGID_5_" gradientUnits="userSpaceOnUse" x1="-1005.2294" y1="919.8" x2="-880.7839" y2="919.8" gradientTransform="matrix(0.8341 0 0 -1 1689.6619 1260)">
		<stop  offset="0" style="stop-color:#FFFFFF;stop-opacity:0"/>
		<stop  offset="8.962709e-02" style="stop-color:#FFFFFF;stop-opacity:8.962709e-02"/>
		<stop  offset="1" style="stop-color:#FFFFFF"/>
	</linearGradient>
	<rect x="851.2" class="st10" width="103.8" height="680.4"/>
	<g>
		<path class="st11" d="M1.2,53.1v1.7c253.9-0.5,494.7-0.6,700.9-0.6c83.8,0,167.9,0,251.7,0V53L1.2,53.1L1.2,53.1z"/>
		<path class="st11" d="M1.2,63.3v3.8c148.1-0.3,295.6-0.6,440.5-1c168.9-0.4,341.5-0.9,512.1-1.1v-1.7H1.2z"/>
		<path class="st11" d="M1.2,73.4v4.1h952.6v-1.7C625.6,73.8,298.9,73.4,1.2,73.4z"/>
		<path class="st11" d="M39.8,87.6h914v-1.3c-285.7,0-597.8-0.1-915.6-0.7C38.7,86.2,39.2,86.9,39.8,87.6z"/>
		<path class="st11" d="M1.2,85.5v2.1H5c0.7-0.7,1.4-1.4,2.1-2.1C5.1,85.5,3.1,85.5,1.2,85.5z"/>
		<path class="st11" d="M258.1,96.3c-59.2,0.1-119,0.1-179.2,0.2c1.3,0.4,2.6,0.8,3.9,1.3h871V96c-51.3,0-104.2-0.1-159.1-0.1
			C616.2,95.9,434.1,96.1,258.1,96.3z"/>
		<path class="st11" d="M344.3,106.4c-84.7,0.1-170.6,0.2-257,0.2c-0.3,0.4-0.7,0.9-1,1.3h867.5V106c-7.5,0-15,0-22.5,0
			C736,106,536.8,106.2,344.3,106.4z"/>
		<path class="st11" d="M105.5,118.2c5.6,0,11.3,0,16.9,0c0.7-0.4,1.5-0.7,2.3-0.7h12.6c1,0,1.7,0.3,2.4,0.7
			c202.7-0.3,394.1-0.4,562.4-0.4c83.8,0,167.9,0,251.7,0v-1.2H104.9C105.1,117.1,105.3,117.7,105.5,118.2z"/>
		<path class="st11" d="M136.4,127.1c-0.8,0.3-1.2,0.5-1.7,0.7c-0.1,0-0.2,0.1-0.4,0.2c0.5,0.7,0.9,1.5,1.1,2.4
			c102.9-0.2,205.2-0.5,306.2-0.7c168.9-0.4,341.5-0.9,512.1-1.1v-1.7h-816C138.1,126.8,136.8,127,136.4,127.1z"/>
		<path class="st11" d="M137.1,141h816.7v-1.7c-279.7-1.7-558.1-2.2-818.6-2.3C135.8,138.3,136.4,139.6,137.1,141z"/>
		<path class="st11" d="M118.3,137.9c0-0.4,0-0.7,0-1c-5.7,0-11.4,0-17,0c0.3,0.4,0.5,0.8,0.8,1.2
			C107.4,137.4,112.8,137.5,118.3,137.9z"/>
		<path class="st11" d="M141.1,150.2c0.3,0.3,0.5,0.6,0.7,0.9h24.3c1.4-0.7,2.9-1.3,4.4-1.8c-9.9,0-19.8,0-29.8,0
			C140.9,149.6,141,149.9,141.1,150.2z"/>
		<path class="st11" d="M207.2,150.7c0.1,0.2,0.1,0.3,0.2,0.5h746.4v-1.3c-235.1,0-488.1-0.1-747.6-0.4
			C206.6,149.8,206.9,150.2,207.2,150.7z"/>
		<path class="st11" d="M260.5,159.8c0.8,0.5,1.7,1,2.4,1.5h690.9v-1.8c-51.3,0-104.2-0.1-159.1-0.1
			C617,159.4,435.8,159.6,260.5,159.8z"/>
		<path class="st11" d="M272,170.8c230.7,0.9,454,1.1,639.2,1.1c14.2,0,28.4,0,42.6,0v-2H271.5C271.7,170.2,271.9,170.6,272,170.8z"
			/>
		<path class="st11" d="M521.3,180.6c0.3-0.2,0.6-0.3,0.9-0.4h-64C479,180.3,500,180.4,521.3,180.6z"/>
		<path class="st11" d="M527.4,180.6c128,0.8,266.6,1.3,426.4,1.4v-1.9H525.7C526.2,180.3,526.8,180.4,527.4,180.6z"/>
		<path class="st11" d="M39.7,178.4c-8,0-14.6,0.2-19.8,0.6c6.1,0.2,14.6,0.6,24.9,1.1c1.2-0.9,2.7-1.4,4.4-1.6
			C45.9,178.4,42.7,178.4,39.7,178.4z"/>
		<path class="st11" d="M770.3,190.3c60.7,0.1,122.3,0.4,183.4,0.7v-1c-48.6,0.1-97.2,0.2-145,0.3
			C796,190.3,783.2,190.3,770.3,190.3z"/>
		<path class="st11" d="M587.7,190.6c-9.6,0-19.2,0-28.8,0c0.3,0.1,0.7,0.2,1,0.3c9.1-0.1,18.4-0.2,27.8-0.2
			C587.7,190.7,587.7,190.6,587.7,190.6z"/>
		<path class="st11" d="M423.9,192.8c13,0,26.1-0.3,38.7-0.6c7.7-0.2,15.7-0.4,23.6-0.5c0.2,0,0.3,0,0.5,0c0.5-0.4,1.1-0.8,1.7-1.1
			c-42.9,0-82.6-0.1-119.8-0.3C385.3,192,403.1,192.8,423.9,192.8z"/>
		<path class="st11" d="M476.9,200.8c-25.1-0.1-50.2-0.3-75.3-0.4c21.6,3,46.4,4.2,69.7,4.7c1.2-0.7,2.5-1.3,3.7-2
			C475.6,202.3,476.2,201.6,476.9,200.8z"/>
		<path class="st11" d="M608,201.5c-1,0.4-2,0.8-2.9,1.1c0.1,0.6,0.4,1.3,0.8,1.9c2.7,0,5.4,0,8.1,0c4.9,0,9.8,0,14.8,0
			c1.3-0.1,2.7-0.1,4,0c45.1,0,91,0.1,139.2,0.2c55.4,0.1,112.6,0.2,169.4,0.2c4.1,0,8.3,0,12.5,0V203
			c-114.3-0.3-227.8-0.9-338.8-1.5C612.7,201.5,610.3,201.5,608,201.5z"/>
		<path class="st11" d="M268.1,202.9c-12.8-0.4-25.6-0.7-38.3-1c-2.6,0.2-5.3,0.3-8.1,0.1c-0.8,0.9-1.7,1.7-2.7,2.5
			c7.2,0,16.6,0,27.3,0c21,0,46.6,0,69.6-0.3C301.1,203.8,284.9,203.4,268.1,202.9z"/>
		<path class="st11" d="M653.6,213.4c92.5,0.7,191,1.2,300.2,1.4v-1.7H653.6C653.6,213.2,653.6,213.3,653.6,213.4z"/>
		<path class="st11" d="M953.8,224.8v-1.5H800C847.9,224,898.6,224.4,953.8,224.8z"/>
		<path class="st11" d="M635.2,222.8c14.2,2.1,26.6,2.8,35.7,2.8v-0.5c9.1,0,12.8-0.7,13.1-1c-0.4-0.3-5.2-1.3-23.2-1.3v-0.5
			C653.9,222.3,645.5,222.4,635.2,222.8z"/>
		<path class="st11" d="M172.1,225c52.9-0.1,106.6-0.2,158.2-0.2c18.9,0,36.9,0.5,54.4,0.9c15.3,0.4,29.7,0.8,42.9,0.8
			c9.5,0,17.5-0.2,24.5-0.6c-13.7-0.4-40.6-1.4-43.7-2.6c-2.8,0-5.7,0-8.9,0c-8.8,0-20.3,0.1-40.9,0H170.3
			C170.9,223.8,171.5,224.4,172.1,225z"/>
		<path class="st11" d="M953.8,234.3v-0.8h-79.4C900.1,233.8,926.5,234,953.8,234.3z"/>
		<path class="st11" d="M432,234.4c-36.3-0.5-65-1-73.4-1h-156c0.7,0.5,1.3,1.1,1.6,1.8c18.3,0,36.6,0,54.7-0.1
			c68.8-0.1,139.7-0.2,209.3-0.2C455.6,234.8,443.4,234.6,432,234.4z"/>
		<path class="st11" d="M222.1,245.5c13.9,0,27.9,0.1,41.9,0.1c1.4-0.7,3.1-0.7,4.4,0c16.3,0.1,32.5,0.1,48.8,0.2
			c1.1-0.1,2.2-0.2,3.3-0.2c0.6,0,1.3,0.1,1.9,0.2c60.5,0.2,121.2,0.3,180.5,0.3c98.1,0,183.1-0.4,259.9-1.1c0.9,0,2.4,0.1,5.6,0.3
			c7.2,0.5,20.5,1.4,35,1.4c8.9,0,16.9-0.3,24-1c-27.6-0.8-142.8-2.2-163.9-2.2H217.8C219.3,244.2,220.7,244.9,222.1,245.5z"/>
		<path class="st11" d="M86.3,256.9c-0.4,0.2-0.9,0.3-1.4,0.4c6.7,0,13.4,0,20,0c-5.3-0.2-10.5-0.7-15.8-1.6
			C88.2,256.1,87.3,256.4,86.3,256.9z"/>
		<path class="st11" d="M1.2,257.5c27.2,0,54.5-0.1,81.8-0.1c-1.6-0.4-3-1.4-3.6-3.2c0-0.1-0.1-0.2-0.2-0.4h-5.8
			c-1.3,0.7-2.8,0.9-4.4,0h-0.1H1.2V257.5z"/>
		<path class="st11" d="M320.6,255c-2.5,0.2-4.7,0.9-6.8,1.8c7.5,0,15,0,22.5-0.1C331,255.3,325.6,254.6,320.6,255z"/>
		<path class="st11" d="M894.7,255.4c-63.4-1.4-140.2-2-242.1-2c-56.7,0-116.1,0.2-173.6,0.4c-41,0.1-82.9,0.3-124.2,0.3
			c2.2,0.9,4.4,1.7,6.5,2.6c117.9-0.3,235.5-0.6,352-0.9C774.2,255.7,834.7,255.5,894.7,255.4z"/>
		<path class="st11" d="M374.5,264.5c0.1,1.4-0.5,2.8-1.6,3.9c24.8,0,49.6,0,74.3,0c194.7,0,358.1-0.4,506.7-1.3V266
			c-20.5-0.1-41-0.1-61.5-0.2C721.8,265.3,548.7,264.9,374.5,264.5z"/>
		<path class="st11" d="M279.6,268.3c28.5,0,57,0,85.5,0.1c-2.7-1.2-5.6-2.6-8.7-3.9c-23.8-0.1-47.6-0.1-71.5-0.1
			C283,265.8,281,267.3,279.6,268.3z"/>
		<path class="st11" d="M260.2,264.2c-1.5,1.4-3,2.8-4.6,4c5.5,0,11,0,16.5,0c-0.2-0.2-0.4-0.3-0.6-0.6c-0.9-1.1-1.7-2.3-2.4-3.5
			C266,264.3,263.1,264.3,260.2,264.2z"/>
		<path class="st11" d="M241.7,264.2c-1.5,0-2.9,0-4.4,0c-11.6,4-21.6,3.2-34.1,2.7c-2-0.1-3.5-1.3-4.2-2.8
			c-65.9-0.1-131.9-0.2-197.9-0.3v4.1c12.5,0,25,0,37.4,0.1c67.1,0.1,135.4,0.2,203.9,0.3C242.3,266.8,242.1,265.4,241.7,264.2z"/>
		<path class="st11" d="M1.2,276v2.1h952.6v-1.3C657.1,276.8,331.8,276.7,1.2,276z"/>
		<path class="st11" d="M794.7,286.4c-178.5,0-360.6,0.2-536.6,0.4C173.5,286.9,87.5,287,1.2,287v1.3h952.6v-1.8
			C902.5,286.4,849.6,286.4,794.7,286.4z"/>
		<path class="st11" d="M931.3,296.5c-195.3,0-394.4,0.2-587,0.4c-112.8,0.1-227.9,0.2-343.1,0.3v1.2h952.6v-1.9
			C946.3,296.6,938.8,296.5,931.3,296.5z"/>
		<path class="st11" d="M1.2,307.1v1.7c252.8-0.5,492.5-0.6,697.7-0.6c84.9,0,170.1,0,254.9,0V307H1.2V307.1z"/>
		<path class="st11" d="M787.4,317.4c55.2,1.1,113.2,1.6,166.4,1.8v-1.8c-32.2,0-64.2,0-95.4,0C833,317.4,809.5,317.4,787.4,317.4z"
			/>
		<path class="st11" d="M376.9,317.1c-29.3-0.1-57.5-0.1-78.3-0.2c33.9,1.3,77,1.9,128.5,1.9c11.9,0,22,0,29.5-0.1h3.3
			c17.6,0,39.9,0.7,63.5,1.4c24.4,0.7,49.6,1.5,70.1,1.5c19,0,31.4-0.7,37.9-2c-18-0.6-102.9-2.4-123.9-2.4
			C479.7,317.3,427.4,317.2,376.9,317.1z"/>
		<path class="st11" d="M1.2,320.5c25-0.3,48.8-0.7,71.8-1.2c-23-0.5-46.8-0.9-71.8-1.3C1.2,318,1.2,320.5,1.2,320.5z"/>
		<path class="st11" d="M917.4,331.1c3.5,0,6.8,0,9.7,0.1c-6.4-1.1-15.6-1.7-28.2-1.7c-7.8,0-16.4,0.2-24.6,0.4
			c-12,0.3-24.9,0.5-34.5,0.3c6.4,1.1,15.6,1.7,28.2,1.7c7.8,0,16.4-0.2,24.6-0.4C901,331.3,909.5,331.1,917.4,331.1z"/>
		<path class="st11" d="M253.5,340.1c-6.2,0.2-12.6,0.4-18.4,0.4c-4.6,0-8.3-0.1-11.2-0.3H8c26.3,1.3,57.2,1.9,97.1,1.9
			c23.2,0,47.4-0.2,70.8-0.4c23.4-0.2,47.6-0.4,70.8-0.4c16.6,0,31.4,0.1,44.9,0.3c-3.7-1.3-10-1.8-20-1.8
			C265.9,339.8,259.6,339.9,253.5,340.1z"/>
		<path class="st11" d="M668.7,352.2c15.8,0,32.4-0.2,48.5-0.4c16.1-0.2,32.8-0.4,48.6-0.4c6.1,0,11.8,0,17.1,0.1
			c-16-1.1-35.5-1.6-60.7-1.6c-15.8,0-32.4,0.2-48.5,0.4c-16.1,0.2-32.8,0.4-48.6,0.4c-6.1,0-11.8,0-17.1-0.1
			C624,351.7,643.5,352.2,668.7,352.2z"/>
		<path class="st11" d="M1.2,351.8h410.4c-106.8-1.3-224.8-1.9-371.6-1.9c-12.9,0-25.9,0-38.9,0v1.9H1.2z"/>
		<path class="st11" d="M254.1,360c-83.8,0-169,0.1-252.9,0.3v1.7h552c0.8-0.7,1.8-1.1,2.9-1.3C464.9,360.3,365.8,360,254.1,360z"/>
		<path class="st11" d="M639.4,362h103c-33.5-0.3-67.8-0.6-103.1-0.8c0,0.2,0,0.3,0.1,0.5C639.4,361.7,639.4,361.8,639.4,362z"/>
		<path class="st11" d="M477.7,403.8c24.5,0.3,49.4,0.5,74.8,0.8c0.1-0.2,0.1-0.3,0.2-0.5l0.2-0.4h-75.2
			C477.6,403.7,477.6,403.8,477.7,403.8z"/>
		<path class="st11" d="M643.8,405.2c52.6,0.3,108.1,0.4,168,0.4c47.5,0,94.4-0.1,142-0.2v-1.7H643.6c0,0.1,0,0.2,0.1,0.4
			C643.7,404.4,643.8,404.8,643.8,405.2z"/>
		<path class="st11" d="M858.8,425.9c31.3,0,63.4-0.1,95-0.3V424H689.5C737,425.3,790.8,425.9,858.8,425.9z"/>
		<path class="st11" d="M479.5,408.9l0.2,2.1c22.7,1.6,45.4,3.3,67.9,5c0.4-0.9,0.8-1.8,1.2-2.8c-23-1.7-46.2-3.4-69.5-5
			C479.4,408.5,479.5,408.7,479.5,408.9z"/>
		<path class="st11" d="M553.8,380.2c-6.6,0-13.2,0-19.6,0c-67.3,0-132.9,0.1-202.4,0.3c-70.1,0.1-142.5,0.3-217.4,0.3
			c-39.3,0-76.8,0-113.2-0.1v1.4c83.6,2,169.8,3,265.1,3c63.2,0,124.9-0.4,187.8-1c1.6-2,3.9-3.4,6.8-3.7c0.4,0,0.7-0.1,1.1,0
			c3.1,0,5.9,1.4,7.7,3.6c22.7-0.2,45.7-0.4,68.9-0.7c4.8,0,9.6-0.1,14.5-0.1c0.2-0.8,0.6-1.5,1.1-2.1
			C554,380.7,553.9,380.5,553.8,380.2z"/>
		<path class="st11" d="M549.5,370.5c-18.3,0-36.6,0.1-54.7,0.2c-60.7,0.2-123.5,0.4-183,0.4c-46.5,0-86.9-0.1-123.4-0.3H1.2v1.2
			c2.4,0,4.7,0,7.1,0c55.6,0,107.5,0.1,158.8,0.3h382.8C549.7,371.6,549.5,371,549.5,370.5z"/>
		<path class="st11" d="M249,394c57.4,1.6,106.9,1.9,152.4,1.9c17,0,34.1,0,51.6-0.1l-0.5-4.1c-80.2,0-165.1-0.2-254.3-0.5
			c-64.7-3.3-130.4-6.3-197.1-9v2.3c112.4,4.6,222.1,10.1,329.2,16.6c39.9,2.4,79.6,5,118.9,7.7c0.1-0.9,0.4-1.8,0.7-2.7
			c-45.2-3.1-90.8-5.9-136.9-8.6C292,396.3,270.4,395.2,249,394z"/>
		<path class="st11" d="M471.9,391.7l0.4,4c11.8-0.1,23.7-0.1,35.9-0.2c15.6-0.1,31.5-0.2,47.7-0.3c0.4-1.2,0.9-2.3,1.3-3.5
			c-15.7,0-31.4,0-47.2,0C497.5,391.7,484.8,391.7,471.9,391.7z"/>
		<path class="st11" d="M482,430.6c0.1,0.5,0,1,0,1.5c16.5,1.5,33,3,49.3,4.5c0.2,0,0.5,0,0.8-0.1s0.5-0.3,0.8-0.4
			c0.7-0.5,1.3-1,1.9-1.7c0-0.1,0-0.3,0-0.4c-0.2-0.6-0.3-1.3-0.3-1.9c-17.5-1.7-35.1-3.3-52.8-4.9L482,430.6z"/>
		<path class="st11" d="M941.7,372.1c-69.5-1.3-152-1.9-259.4-1.9c-14,0-28.1,0-42.3,0c0.1,0.6,0.1,1.2,0.2,1.9H941.7z"/>
		<path class="st11" d="M641.4,382.3c63-0.5,127.7-0.9,194.9-0.9h1.6c-71.1-0.6-137.1-0.9-196.7-1.1c0,0.2,0.1,0.4,0.1,0.5
			C641.3,381.3,641.3,381.8,641.4,382.3z"/>
		<path class="st11" d="M1.2,431.5c141.2,12,280.2,26.4,412.2,43.9c-0.1-0.8-0.3-1.6-0.4-2.5l-0.5-4.1
			c-130.2-16.9-267.6-31.2-411.3-43.1L1.2,431.5L1.2,431.5z"/>
		<path class="st11" d="M671.1,426c30.3,2.6,60.5,5.3,90.3,8.1h-0.1c0.1,0,0.2,0,0.3,0c27.9,2.6,55.5,5.4,82.8,8.2
			c-8,0.7-16.1,1.5-24.1,2.2c-1.3,0-2.7,0-4,0c0.7,0.1,1.6,0.1,2.4,0.2c-28.6,2.7-57,5.5-85.2,8.3c-20.1-2.3-40.4-4.6-60.8-6.9
			c0,0.7,0.1,1.4,0.1,2c0.9,0.5,3,1.9,5.5,3.5c11,1.2,22.1,2.4,33,3.7c-8.2,0.8-16.4,1.7-24.6,2.5c1,0.8,1.9,1.7,2.5,2.4
			c1.4,1.5,2.8,3,4.1,4.7c0.2,0.2,0.3,0.5,0.5,0.7c0.8,1.4,1.7,2.9,2.9,4.5c80.6-8.7,162.6-16.9,246.2-24.6c2.7,0,5.4,0,7.9,0.1
			c-1.4-0.1-3.1-0.2-4.6-0.4c2.6-0.2,5.2-0.5,7.8-0.7v-11.9c-6.3,0.5-12.7,1.1-19,1.6H793.9c-40.3-3.9-81.2-7.6-122.6-11.1
			c-0.1,0.3-0.2,0.6-0.3,0.8C671,424.6,671.1,425.3,671.1,426z M865.4,436c16.5,0,33.5-0.1,50.4-0.2c-18.5,1.6-36.8,3.4-55.1,5
			c-17.1-1.8-34.3-3.6-51.6-5.3C825.9,435.9,844.5,436,865.4,436z"/>
		<path class="st11" d="M642.2,391.7c0.1,1.1,0.2,2.2,0.3,3.3c2.3,0,4.6,0,6.9,0h304.4v-3c-78.2-0.2-158.3-0.3-244.2-0.3
			C687.2,391.7,664.7,391.7,642.2,391.7z"/>
		<path class="st11" d="M1.2,453.3c119.5,12.6,233.9,27,341.5,44c-29,3.6-57.9,7.4-86.6,11.1c-81-14.6-166-27.7-254.9-39.3v9.5
			C77.7,489,151.3,500.4,221.5,513c-28.4,3.8-56.6,7.6-84.7,11.6c-43.8-8.8-89.1-17.1-135.6-25v11.8c33.3,5.9,65.8,12.1,97.5,18.6
			c-27.4,3.9-54.7,7.9-81.8,11.9c-5.2-1.2-10.5-2.5-15.8-3.7v21.6c134.4-20.1,272.9-39.3,416-57.2l-0.1-0.3c0-0.2-0.1-0.5-0.1-0.7
			c-0.5-6-0.7-8.6-1.4-13.2c-14.8,1.8-29.5,3.6-44.2,5.4C255.4,475.3,131.6,459.3,1,445.7v7.6H1.2z"/>
		<path class="st11" d="M451.3,428.9c0-0.1-0.1-0.2-0.1-0.3c0-0.2-0.1-0.4-0.1-0.6l-0.4-3.5c-88.9-7.7-179.9-14.4-272.2-20
			C120,401,60.9,397.7,1.2,394.7v3.6c71.8,3.8,142.3,8,211.4,12.7c81.6,5.5,161.2,11.6,238.8,18.4L451.3,428.9z"/>
		<path class="st11" d="M62.8,412.8c-20.5-1.4-41-2.7-61.6-4v5.3c32.3,2.2,64.4,4.4,96.4,6.7c107.2,7.9,215.1,17.4,320.6,28.6
			c0,0,0-0.1,0.1-0.1c1-1.1,2.5-1.9,4.1-2c6.2-0.5,12.2-1,18-1.5C318,432.5,191.2,421.4,62.8,412.8z"/>
		<path class="st11" d="M647,414.9l5.1-1.1h-7.4c0,0.4,0.1,0.7,0.1,1.1C645.5,414.9,646.2,414.9,647,414.9z"/>
		<path class="st11" d="M823.5,415.7c43.1,0,86.9-0.1,130.3-0.2v-1.7H670.1c0.3,0.4,0.4,0.9,0.5,1.3
			C716.7,415.5,766.9,415.7,823.5,415.7z"/>
		<path class="st11" d="M1.2,570.8c135.1-21.5,274.3-41.6,417.6-60.2c-0.1-1.5-0.2-2.8-0.3-3.9c-143.4,18-282.4,37.5-417.3,58.4
			L1.2,570.8L1.2,570.8z"/>
		<path class="st11" d="M697.2,476.5c84.3-9.6,169.8-18.8,256.6-27.6V448c-86.7,8.1-172,16.8-255.9,25.9
			C697.8,474.9,697.6,475.8,697.2,476.5z"/>
		<path class="st11" d="M945.8,627.4c2.7-0.3,5.3-0.7,8-1v-16.7c-48,5.8-95.6,11.7-142.8,17.7H945.8z"/>
		<path class="st11" d="M953.8,473v-3.4c-87.9,9.2-174.5,18.8-259.9,28.8c0.3,2,0.5,3.9,0.5,5.8C779.7,493.5,866.2,483,953.8,473z"
			/>
		<path class="st11" d="M1.2,606c138.7-23.5,281.4-45.5,428.1-66.2c-0.7-0.8-1.3-1.7-2-2.7c-0.3-1.8-0.9-3.5-1.7-5.1
			c-145.5,19.3-287,40-424.4,62.1L1.2,606L1.2,606z"/>
		<path class="st11" d="M562.8,540.3l-0.2-1.5v-0.1c-9,1.4-22.8,3.5-40.3,6v1.2C535.8,544,549.3,542.1,562.8,540.3z"/>
		<path class="st11" d="M571.6,539c-0.1,0-0.2,0.1-0.3,0.1c1.3-0.2,2.6-0.3,3.9-0.5c-0.1-0.1-0.2-0.3-0.4-0.4
			c-0.3-0.4-0.5-0.8-0.7-1.3v-0.1H574C573.5,537.8,572.7,538.5,571.6,539z"/>
		<path class="st11" d="M1.2,624.9c141.1-23.8,286.5-46.1,435.6-67.2c-0.3-0.5-0.5-1-0.8-1.6c-0.4-0.6-0.6-1.3-0.7-2
			c-0.4-2.5-0.5-4.9-0.6-7.3c-148.8,20.1-293.3,41.7-433.6,64.7L1.2,624.9L1.2,624.9z"/>
		<path class="st11" d="M545.5,534.8c-1.6,0.2-3.4,0.4-5.1,0.6c0.1,0.1,0.1,0.2,0.2,0.3c1.6,0.2,3.2,0.5,4.5,0.6c0.6,0,1.2,0,1.7,0
			c0-0.1-0.1-0.1-0.2-0.2L545.5,534.8z"/>
		<path class="st11" d="M694,520.9c-0.1,0.7-0.3,1.4-0.4,2.1v0.1c85.4-10.9,172.2-21.4,260.2-31.5v-6.9
			c-87.9,9.2-174.4,19-259.6,29.1L694,520C694.1,520.4,694,520.7,694,520.9z"/>
		<path class="st11" d="M560.7,537.4c-1.8-0.8-3-2.3-3.4-4c-2.3,0.3-4.6,0.6-7.1,0.9c0.1,1.2,0.1,1.9,0.1,1.9s-0.1-0.7-0.4-1.9
			c-1.3,0.2-2.6,0.3-4,0.5l1,1.2c0.1,0.1,0.1,0.2,0.2,0.3c0.2,0,0.4,0,0.6,0c3.8-0.1,5.8-0.5,5.8-0.5s-0.7,0.5-2.1,1.1
			c3,0.2,4.7,0.2,4.7,0.2s-1.7,0.4-4.8,0.9C554.9,537.8,557.9,537.6,560.7,537.4z"/>
		<path class="st11" d="M527.8,539.1c0.5,0.1,1,0.2,1.4,0.3c0.9-0.1,1.8-0.1,2.7-0.2v-0.3C530.6,539,529.2,539.1,527.8,539.1z"/>
		<path class="st11" d="M437.2,563.8C319.6,580,204.8,597,92.7,614.7c-26.5,4.2-52.7,8.4-78.9,12.7H96
			C208.2,609,323.1,591.6,440.5,575c-0.8-2.1-1.8-4.1-2.9-6.1C437.4,567.2,437.3,565.5,437.2,563.8z"/>
		<path class="st11" d="M521.8,552.4c-0.1,0.6-0.3,1.2-0.5,1.8c0,0.2-0.1,0.4-0.1,0.6c-0.9,3.5-2.2,6.7-3.9,9.6
			c22.9-3.1,45.9-6.2,69-9.3c-0.6-0.6-1.2-1.1-1.7-1.7c-1.5-1.6-2.8-3.3-4.1-5.1c-0.4-1.1-0.9-2.2-1.4-3.4c-3.2,0.4-6.4,0.8-9.5,1.2
			c-0.1,0.4-0.2,0.7-0.2,1.1v0.2c-0.8-0.4-1.7-0.7-2.5-0.9C551.7,548.4,536.7,550.4,521.8,552.4L521.8,552.4z"/>
		<path class="st11" d="M691.9,533.6c0,0.2-0.1,0.4-0.1,0.6c-0.3,1.3-0.7,2.6-1,3.9c-1.2,3.8-2.8,7.6-4.8,11.3c0.2,0,0.5,0,0.7,0.1
			c-0.3,0-0.6,0.1-0.8,0.1c-1.4,2.5-3,4.8-4.7,7.1c-1,1.3-2.1,2.5-3.1,3.7c90.5-11.6,182.5-22.8,275.9-33.4v-11.4
			c-90,9.8-178.5,20.1-265.7,30.9c0.6-1.6,1.2-3.2,1.7-5c26.5-3.4,53-6.7,79.7-10c60.8-7.5,122.3-14.7,184.2-21.7v-9.5
			c-88.6,9.6-175.7,19.7-261.5,30.3v0.9C692.2,532.2,692,532.9,691.9,533.6z"/>
		<path class="st11" d="M662.9,572.3c-12.5,5.3-36.8,7-51.2,0.6c-37.1,4.8-73.9,9.7-110.5,14.7c-0.6,0.5-1.1,1-1.7,1.4
			c-1.3,0.9-2.6,1.8-4,2.5c-8.6,3.7-25.1,4.4-32,1.3c-80,11.1-158.7,22.7-236,34.6h99.7c200.4-30.4,409.2-58,626.6-82.5v-12.8
			c-95.1,10.4-188.7,21.4-280.6,32.9c-1.4,1.2-2.8,2.4-4.3,3.5C667,569.8,665,571.1,662.9,572.3z"/>
		<path class="st11" d="M598.7,558.1L598.7,558.1c-0.1,0.1,5.9,3.9,8,5.7c-1.4-1.2-2.9-2.6-4.5-4.1
			C601.1,559.2,599.9,558.7,598.7,558.1z"/>
		<path class="st11" d="M443.4,578.9l-0.1-0.1c-110.7,15.4-219.1,31.6-325.1,48.7h90.5c81.9-12.9,165.1-25.4,249.7-37.3
			c-3.1-1.5-4.9-2.3-10.2-7.1C446.7,581.9,445.2,580.5,443.4,578.9z"/>
		<path class="st11" d="M608.9,565.6c1.1,0.9,2.1,1.6,3,2.3c1.1-0.1,2.1-0.2,3.2-0.4c-1.7-0.6-3.4-1.3-5.1-2.1
			C609.6,565.5,609.3,565.6,608.9,565.6z"/>
		<path class="st11" d="M598.6,565.4c-1.8-0.9-3.8-2.1-5.6-3.9l0.3-0.2c-1-0.8-1.9-1.6-2.8-2.4c-25.6,3.3-51.1,6.7-76.4,10.1
			c0-0.1,0-0.1,0.1-0.2c0,0,0,0-0.1,0c-0.8,2.5-1.9,5.1-3.2,7.5c0.2,0,0.3,0,0.5,0.1c-0.2,0-0.4,0-0.5,0.1c0,0,0-0.1,0.1-0.1
			c0,0-3.7,5.2-5.2,7.1c33.2-4.6,66.6-9.1,100.1-13.6C603.4,568.7,601,567.2,598.6,565.4z"/>
		<path class="st11" d="M459.7,588c0.9,0.4,1.7,0.6,2,0.6C460.9,588.1,460.3,588,459.7,588z"/>
		<path class="st11" d="M555.5,627.4c130-19.3,262.9-37.6,398.3-55.1v-10c-175.6,19.9-345.9,41.6-511,65.1H555.5z"/>
		<path class="st11" d="M745.8,627.4c68.5-9.5,137.8-18.7,208-27.6v-14.2c-112.9,13.2-223.5,27.1-332,41.8H745.8z"/>
		<path class="st11" d="M574.1,498L574.1,498C574,498,574,498.1,574.1,498c1.7,0.3,3.5,0.5,5.3,0.7v-0.1l-5.3-1.7
			C574.1,497.2,574.1,497.6,574.1,498z"/>
		<path class="st11" d="M613.9,439.6c0-0.2-0.1-0.4-0.2-0.6c-0.1-0.3-0.3-0.7-0.5-1l-0.3-0.4c0.4-0.6,0.7-1.2,0.9-1.9
			c0.2-0.6,0.3-1.3,0.4-2.1l0.2,0.1c0-0.1,0-0.2,0-0.4c0-1-0.1-2.2-0.1-3.3c-0.1-0.8-0.1-1.7-0.2-2.6c0-0.2,0-0.3-0.1-0.5
			c-0.1-0.9-0.2-1.9-0.4-2.8c-0.1-1-0.3-2-0.4-3.1c-0.1-0.7-0.2-1.4-0.3-2.1c-0.1-0.8-0.2-1.6-0.4-2.4c0-0.1-0.1-0.3-0.1-0.4
			c0-0.2-0.6,0.3-1.4,1.4l0.4,2.1c0.1,0.6,0.2,1.1,0.3,1.7c0.2,1.1,0.3,2.1,0.4,3.1l0.1,0.7c0.1,0.7,0.2,1.5,0.3,2.1v0.5
			c0.1,0.9,0.2,1.7,0.2,2.6c0,0.5,0.1,1,0.1,1.5l-0.1,1.9c0,0.6-0.1,1.2-0.3,1.7s-0.4,1-0.6,1.4l-0.6,0.9l0.9,1.3l0.1,0.1
			c-5.7,0.4-11.8,0.9-18,1.5c-0.4,0.6-0.8,1.1-1.2,1.7c7.5-0.6,14.6-1.2,21.2-1.7C613.9,440.2,613.9,439.9,613.9,439.6z"/>
		<path class="st11" d="M552.6,424.6l-0.8,0.1l0.1,0.3l-0.1,0.1l0.4,0.7c0.2-0.5,0.4-0.9,0.6-1.4L552.6,424.6z"/>
		<path class="st11" d="M553.2,424.2c0,0.1,0.1,0.2,0.1,0.3h0.2c0,0,0,0,0,0.1c0.4,1,0.9,2.1,1.4,3.1c0.4,0.9,0.7,1.7,1.1,2.6
			c0.1,0.2,0.6-0.3,1.3-1.1c-0.2-0.4-0.3-0.8-0.5-1.1l-0.8-1.9c-0.3-0.7-0.6-1.4-0.9-2.1l-0.2-0.4c2.2-5.2,4.3-10.5,6.5-16.3
			c4.6-0.5,9.6-1,14.8-1.5c0.8-0.9,1.4-1.4,1.5-1.2c0,0-0.2,0.5-0.6,1.1c2.8-0.3,5.7-0.6,8.7-0.9c0.4-0.5,0.8-1.1,1.2-1.7
			c-9.9,1-18.9,1.9-26.8,2.7c0.2-0.4,0.3-0.9,0.5-1.3c7.6-1,16-2,25.3-3.2c0.9-0.1,1.7-0.2,2.6-0.3c0.4-0.5,0.8-1.1,1.3-1.7
			l-26.8,3.4c1.2-3.3,2.4-6.8,3.6-10.4l-2.1-3.8c-1.8,5.5-3.6,10.7-5.4,15.6l-0.6,1.7c-2.3,6.3-4.6,12-7,17.6l-0.2,0.7l0.3,0.6
			l1.3-0.4c0.1-0.1,0.1-0.2,0.2-0.4C553.1,424,553.2,424.1,553.2,424.2z"/>
		<path class="st11" d="M568,388.4c1.1-3.2,2.1-6.5,3.2-10.1l15.9-2.5c-0.7-0.3-1.4-0.8-2-1.3L570,377c0.2-0.6,0.4-1.1,0.5-1.7
			l-1.8,0.3l-0.3,0.9c-0.6,2-1.3,4-1.9,5.9l0.1,0.3L568,388.4z"/>
		<path class="st11" d="M596.5,403.9l12.5-1.3c0,0.2,0,0.5,0.1,0.7v0.9l0.9,0.4l0.9-1.3l-0.1-0.1v-0.1c-0.1-0.7-0.1-1.5-0.2-2.3
			c-4.9,0.5-9.6,1-14.2,1.4c-2.8,0.3-5.4,0.6-8,0.8c-0.6,0.6-1.2,1.2-1.7,1.7C589.9,404.5,593.1,404.2,596.5,403.9z"/>
		<path class="st11" d="M559.3,433.7c-0.6,1-1,1.7-1,1.8c0.7,1.5,1.3,3,2,4.7c0.2,0.3,0.7-0.1,1.4-0.8c-0.7-1.6-1.3-3.1-1.9-4.5
			L559.3,433.7z"/>
		<path class="st11" d="M610.3,404.8c0.7,0.4,0.9,1,0.7,1.9c-0.3,1.2-0.4,2.5-0.5,3.9c1.2-2,2-3.3,2.1-3.6c0.4-1.7-0.2-2.9-1.3-3.6
			c-0.1-0.1-0.2-0.2-0.4-0.2L610.3,404.8z"/>
		<path class="st11" d="M564.8,442.9c-0.3,0.6-0.6,1.1-0.9,1.6c9.4-0.8,18.4-1.6,26.9-2.3c0.3-0.5,0.7-1.1,1-1.7
			C583.3,441.3,574.3,442.1,564.8,442.9z"/>
		<path class="st11" d="M592.1,399.1c-0.6,0.6-1.2,1.2-1.7,1.8c3.9-0.5,8-1,12.3-1.5c-0.2-0.5-0.5-1-0.7-1.5L592.1,399.1z"/>
		<path class="st11" d="M606.7,377.1c0.4-0.6,0.9-1.2,1.4-1.8c-0.2-1.4-0.4-2.8-0.6-4.2l-4.3,0.7c0.3,0.1,0.7,0.1,1,0.2l-0.1,1.2
			l2.1-0.3C606.4,374.3,606.5,375.7,606.7,377.1z"/>
		<path class="st11" d="M608.8,381.1c-0.5,0.5-1,1.1-1.5,1.6c0.5,4.9,0.9,9.5,1.2,13.9v0.5l-4,0.5c0,0.6,0,1.1,0,1.6
			c1.9-0.2,3.8-0.5,5.7-0.7C610,392.9,609.5,387.1,608.8,381.1z"/>
		<path class="st11" d="M604.1,397.6c0,0.6-0.1,1.1-0.2,1.6c0.2,0,0.5-0.1,0.7-0.1l-0.2-1.6L604.1,397.6z"/>
		<path class="st11" d="M477,569.7c3.2-0.4,6-2,8-4.3c0.8-0.9,1.5-2,2-3.1c0.9-2,1.3-4.2,1-6.6c0-0.1,0-0.1,0-0.2
			c-0.2-1.4-0.7-2.7-1.3-3.9c-2.4-4.4-7.4-7.2-12.9-6.4c-3.1,0.4-5.7,1.9-7.6,3.9c-1,1.1-1.8,2.3-2.4,3.6c-0.8,1.9-1.2,4.1-0.9,6.4
			c0,0.1,0,0.1,0.1,0.2c0.2,1.3,0.6,2.5,1.2,3.6C466.4,567.5,471.5,570.4,477,569.7z M470.1,557.2c-0.2-1.3,0.5-2.8,1.7-3.5
			c0.4-0.3,0.9-0.5,1.5-0.5c0.2,0,0.5,0,0.7,0c0.1,0,0.2,0,0.3,0c0.5-0.1,1.1-0.2,1.7-0.1c1,0.1,2.1,0.7,2.9,1.4
			c0.7,0.7,1.3,1.6,1.4,2.5c0.2,1.8-0.8,3.2-2.2,4.2c-0.8,0.6-1.7,1-2.6,1.4c-2,0.8-4.3-0.3-4.9-2.3c0-0.2-0.1-0.3-0.1-0.5
			L470.1,557.2z"/>
		<path class="st11" d="M461,520.3l0.1,1.1l0.3,2.4l3-0.3l14.8-1.6C473.3,522.1,467.2,521.3,461,520.3z"/>
		<path class="st11" d="M670.9,529.7c0.6-3.1,0.7-6.1,0.6-9.1c-0.1-1.8-0.3-3.5-0.6-5.2c0-0.1-0.1-0.3-0.1-0.4
			c-0.6-2.8-1.4-5.4-2.5-7.9c-0.2-0.4-0.4-0.8-0.6-1.2c-1.6-3.4-3.7-6.5-6-9c-0.5-0.6-1-1.2-1.6-1.7c-2.3-2.3-4.8-4-7.2-5.4
			c-5.6-3.2-11-4.4-15-4.6c-5.8-0.3-8.9,0.7-8.8,0.6c0,0,1.1,0,2.9,0.1c-1.7,0-3.4,0.1-5.1,0.5c1.4-0.4,2.2-0.5,2.2-0.5
			c0,0.1-2.1-0.1-5.8,0.7c-0.9,0.2-1.9,0.4-2.9,0.7c-2.3,0.7-5.1,1.8-8,3.6c-3,1.8-6,4.3-8.8,7.6c-0.9,1.1-1.8,2.2-2.6,3.5
			s-1.6,2.7-2.3,4.2c-0.2,0.5-0.4,0.9-0.6,1.3c-0.6,1.4-1.1,2.9-1.5,4.4c0,0.1-0.1,0.2-0.1,0.3c-0.8,2.9-1.3,6.1-1.4,9.4
			c0,1.7,0,3.5,0.3,5.3c0.4,3.6,1.3,7.3,2.9,11c0.1,0.3,0.3,0.6,0.5,0.9c2.9,6.2,7.8,12.1,14.4,16.3c1.1,0.7,2.4,1.4,3.6,2
			c6.2,3,13.6,4.4,20.9,3.6c6.8-0.8,13.1-3.4,18.3-7.2c1.6-1.1,3-2.4,4.4-3.7c1-1,1.8-2,2.6-3.1c2.8-3.4,4.9-7.2,6.3-11
			c0.6-1.6,1-3.1,1.4-4.7C670.6,530.5,670.8,530.1,670.9,529.7z M653.5,543.1c-0.8,0.7-1.7,1.4-2.6,2c-4.1,3.1-9.1,5.2-14.4,5.8
			c-6.5,0.7-13-0.7-18.3-3.8c-3.2-1.8-5.9-4.3-8.2-7c-1.3-1.5-2.5-3.1-3.5-4.9c1.3,1.3,2.7,2.4,3.8,3.1c3,1.8,4.8,2.2,4.8,2.2
			s-1.6-1-3.7-3.4c-1.7-1.9-3.7-5.1-4.6-9c-0.2-0.8-0.4-1.6-0.4-2.4c-0.1-0.9,0-1.9,0-2.8c0.1-3.1,0.9-6.4,2.4-9.7
			c0.7-1.6,1.5-3.1,2.5-4.6c0.2-0.3,0.4-0.6,0.7-0.9c2-2.8,4.5-5.4,7.4-7.5c2.6-1.9,5.5-3.4,8.7-4.2c6.9-1.6,14.5,0.6,18.9,5
			c0.8,0.8,1.5,1.7,2.2,2.6c2.4,2.9,4.3,6.2,5.6,9.3c0.5,1.4,1,2.7,1.4,4c0.2,0.6,0.3,1.2,0.4,1.9c0.9,4.2,0.8,7.9-0.3,10.3
			c0,0.1-0.1,0.2-0.1,0.3c-1.4,2.8-3.4,3.5-3.3,3.5c-0.1-0.1,2.1,0,4.6-2.7c0.2-0.3,0.4-0.6,0.7-1c1.7-2.3,2.8-5.8,3-10
			c0.1-1,0.1-2.1,0-3.2c-0.1-0.8-0.1-1.6-0.3-2.5c-0.4-2.8-1.1-5.9-2.3-8.9c-1.1-3-2.8-6-5-8.9c-0.1-0.1-0.1-0.1-0.2-0.2
			c-1.1-1.4-2.4-2.6-3.8-3.8c1.7,1.1,3.2,2.5,4.8,4.1c0.8,0.8,1.6,1.6,2.3,2.5c1.6,1.9,2.8,4.1,4,6.5c0.3,0.7,0.7,1.4,1,2.1
			c0.8,2.2,1.5,4.5,1.9,6.9c0.1,0.4,0.2,0.7,0.2,1.1c0.2,1.5,0.3,3,0.3,4.6c0,2.7-0.3,5.5-1.1,8.3c-0.2,0.6-0.4,1.2-0.6,1.9
			c-0.5,1.6-1.2,3.1-2,4.7C658.3,537.7,656.2,540.6,653.5,543.1z"/>
		<path class="st11" d="M650.1,528.4c1.4-3,2-6.4,1.5-9.9c0-0.1,0-0.1-0.1-0.2c-0.3-2.1-1-4.1-2-5.9c-3.6-6.7-11.2-10.8-19.4-9.7
			c-4.6,0.6-8.5,2.8-11.5,5.9c-1.5,1.6-2.7,3.4-3.6,5.5c-1.3,2.9-1.8,6.2-1.4,9.6c0,0.1,0.1,0.2,0.1,0.3c0.3,1.9,1,3.7,1.8,5.4
			c3.5,6.9,11.3,11.2,19.6,10.1c4.9-0.7,9-3.1,12-6.4C648.4,531.6,649.4,530,650.1,528.4z M624.7,520.7c-0.3-1.9,0.8-4.1,2.5-5.3
			c0.6-0.4,1.4-0.7,2.2-0.7c0.4,0,0.7,0,1.1,0c0.2,0,0.3,0,0.5,0c0.8-0.2,1.7-0.3,2.5-0.2c1.6,0.2,3.2,1,4.4,2.2
			c1.1,1.1,1.9,2.4,2.1,3.8c0.4,2.7-1.2,4.8-3.4,6.3c-1.2,0.9-2.6,1.5-3.9,2.1c-3,1.2-6.5-0.4-7.4-3.4c-0.1-0.2-0.1-0.5-0.2-0.7
			L624.7,520.7z"/>
		<path class="st11" d="M644.4,462.5c0,0-0.1-0.6-0.3-1.8c-2.1-0.4-4.2-0.7-6.3-0.9c-0.3,0-0.6,0-0.9,0.1l0.1,1.9v0.4l0,0
			c-0.2,0-0.1,0-0.1-0.1l-0.1-0.4l-0.3-1.8c-0.9,0-1.9,0.1-2.8,0.2c-0.4,1.9-0.8,2.9-0.7,2.9c0,0,0.3-1,0.5-2.9
			c-5.1,0.4-10.1,1.3-14.9,2.6c-2.2,1-4.4,2.1-6.6,3.2l0.1,0.6l0.3,3.2l8.4-0.9l14.5-1.5l14-1.5c-0.8-0.4-1.6-0.9-2.4-1.3l1.7-2.7
			c-1.5-0.4-2.9-0.8-4.3-1.1C644.3,461.9,644.4,462.5,644.4,462.5z"/>
		<path class="st11" d="M427.9,512.5C427.8,512.4,427.8,512.4,427.9,512.5c0-0.3,0-0.4,0-0.3l0,0c0,0,0,0,0,0.1
			S427.9,512.4,427.9,512.5C427.9,512.5,427.9,512.5,427.9,512.5C427.8,512.4,427.8,512.5,427.9,512.5z"/>
		<path class="st11" d="M692.7,474.2c-1.1-1.5-2.4-3.1-3.9-4.8c-1.1-1.8-9.4-8.3-15.6-12.1c-0.2-0.1-0.5-0.2-0.7-0.3
			c-0.6-0.3-1-0.6-1.6-0.9c-0.1,0-0.1-0.1-0.2-0.1c-0.4-7.7-1.1-18.1-2.1-30.7l-8.9,0.9c0-0.3,0-0.5,0-0.8l-3.7,0.4
			c6.5-1.5,13.4-3.6,13.4-3.6s0,0-0.8-4.9l-25.2,6h-1.3c-0.6-7.3-0.9-13.9-1.6-19.2c-0.3-2.1-0.5-3.9-0.9-5.6
			c-0.5-6.3-1.1-13.1-1.7-20.2c-0.1-0.3-0.2-0.5-0.3-0.8c-0.5-4.7-1-9.3-1.3-14l-5.5,0.6c2.8,22.3,5.4,41.5,7.5,56.9
			c0,1.4,0,2.8,0,4.3c0,1.8,0.1,3.6,0.1,5.5l-0.6,0.1c0,0.1,0,0.3,0.1,0.4c0.5,2.3,0.8,4.8,1.1,7.4c0,0.1,0,0.1,0,0.2s0,0.2,0,0.3
			c0.2,2.1,0.4,4.4,0.6,6.7c-0.4,0-0.9,0-1.3-0.1c-0.5-1.7-0.9-3.4-1.2-5.1c-0.7-4.3-0.9-8.4-1-12.4c-0.2-7.9,0-14.8-0.2-20.4
			s-0.7-10.1-1.3-13s-1.3-4.4-1.2-4.4c0,0,1.5,6,0.6,17.1c-0.1,1.8-0.3,3.7-0.5,5.7c-1-13.7-2.4-29.9-4-48.4l-1.6,0.2
			c0.1-0.3,0.2-0.5,0.3-0.8c3.1-0.5,5.8-0.9,8.2-1.2c0-0.3-0.1-0.7-0.1-1c-2.6,0.2-5.7,0.4-9.1,0.6l-6.8,0.5c0,0-33.1,2.4-53.3,4.1
			c0.2,1.2,0.3,2.5,0.3,3.8c-0.5-1.4-1.2-3.2-2-5.4c0-0.2,0-0.5,0-0.7s0-0.4,0.1-0.5l-0.7-0.3l-1.3-3.2l-1.1,0.1l0.1,2.2l-1.2-0.5
			l0.1-1.6l-4,0.4l-0.7,1.1c-0.2,0.3-0.4,0.6-0.6,1c-0.2,0.5-0.5,0.8-0.4,2.2c0,0.7,0.6,1.6,0.9,1.8c0.1,0.2,0.2,0.2,0.2,0.2
			l0.5-0.2c0.7,2.7,1.4,4.9,2.1,6.5c0.9,2.4,1.8,3.5,1.7,3.5c0,0-0.2-1.3-0.1-3.8v-1.5c0.3,1.1,0.6,2.1,1,3.2l4.2-0.9
			c-0.2-1.1-0.3-2.2-0.4-3.2c0.1,0.1,0.3,0.2,0.4,0.3l1.1,0.8c0,0.4,0,0.9,0,1.3c0-0.1,0-0.1,0.1-0.1l1.1-0.1l-0.5-1
			c0-0.1,0-0.1-0.1-0.2l0,0c7.4-1,14.4-1.9,21-2.8l-17.5,2.7c-0.2,0.6-0.4,1.1-0.6,1.7c-0.1,0.3-0.2,0.6-0.3,1
			c-0.2,0.6-0.4,1.1-0.5,1.7l15.1-2.4c0.6,0.5,1.3,0.9,2,1.3c2.7,1.3,6.2,1.6,9.3,2.5c1.4,2.5,2.2,5.4,2.9,8.4
			c-3.8,5-6.9,9.2-9.5,12.6c-0.4,0.6-0.9,1.2-1.3,1.7c-0.9,0.1-1.7,0.2-2.6,0.3c-9.4,1.2-17.8,2.2-25.3,3.2
			c-0.2,0.4-0.3,0.9-0.5,1.3c7.9-0.8,16.9-1.7,26.8-2.7c-0.5,0.6-0.9,1.2-1.2,1.7c-1.7,2.3-2.6,3.5-2.6,3.5s1.2-1.3,3.5-3.6
			c0.5-0.5,1-1.1,1.7-1.7c2.6-0.3,5.3-0.5,8-0.8c4.6-0.5,9.2-0.9,14.2-1.4c0.1,0.7,0.1,1.5,0.2,2.3v0.1c0.1,0,0.1,0.1,0.1,0.1l0,0
			c0.1,0.1,0.2,0.1,0.4,0.2c1.1,0.7,1.7,1.9,1.3,3.6c-0.1,0.2-0.8,1.6-2.1,3.6c-4,6.5-12.8,20.4-18.6,30c-0.3,0.6-0.7,1.1-1,1.7
			c-8.5,0.7-17.4,1.5-26.9,2.3c0.3-0.6,0.6-1.1,0.9-1.6c10.3-18.8,10.4-18.8,10.3-18.8c-1.1-1-9.9,11.8-13.4,15.3
			c-0.7,0.7-1.2,1.1-1.4,0.8c-0.7-1.6-1.3-3.2-2-4.7c0-0.1,0.4-0.7,1-1.8c3.4-5.6,15-23.3,17.7-27.9c0.4-0.6,0.6-1.1,0.6-1.1
			c-0.1-0.2-0.7,0.3-1.5,1.2c-4,4.4-15.1,19.2-18.9,23.3c-0.7,0.8-1.2,1.2-1.3,1.1c-0.4-0.9-0.7-1.7-1.1-2.6c-0.5-1.1-1-2.2-1.4-3.1
			c0,0,0,0,0-0.1h-0.2c0-0.1-0.1-0.2-0.1-0.3c0-0.1-0.1-0.2-0.1-0.3c0,0.1-0.1,0.2-0.2,0.4c0,0,0,0.1-0.1,0.1
			c-0.2,0.5-0.4,0.9-0.6,1.4c-0.7,1.5-1.3,2.9-1.9,4.4c0.3,1.1,0.6,2.2,0.9,3.3c0.9,3.3,1.7,6.8,2.4,10.5c0,0.2,0.1,0.4,0.1,0.6
			c0.1,0.4,0.2,0.9,0.3,1.3l-0.2-0.4c-0.7,0.4-1.2,0.7-1.8,1.1c-0.2-0.7-0.4-1.6-0.7-2.4c-0.1-0.2-0.1-0.4-0.2-0.6
			c-0.8-2.7-1.7-5.8-2.7-9.3v0.1c-0.8-3.3-1.8-6.5-3-9.5c-1,2.5-2.2,4.9-3.7,7.1c-0.5,0.9-1,1.8-1.5,2.6c0.1,0.3,0.2,0.4,0.2,0.1
			l0.2,0.4c-0.1,1.2-0.1,2.4,0,3.7c-0.2,0.4-0.4,0.7-0.7,1.1c-0.9,1.3-2.2,2.8-4,4c-1,0.7-2,1.2-3.2,1.6v-0.1
			c-12.5,1-35.7,5.3-62.5,7.6l0.1,0.8c0.1,1.3-0.5,2.4-1.5,3.2c38.7-3.5,48.2-6.3,61-8l0.1,0.6c-42.7,5.7-44.9,9.8,13,4.4
			c0.3,1.5,0.6,2.9,0.9,4.3c-0.5-0.2-1-0.3-1.5-0.5c-0.7,0.6-1.5,1.1-2.4,1.6c0.5,0.7,1,1.5,1.7,2.5c-1.1-0.7-2.1-1.3-2.9-1.9
			c-0.1,0-0.1,0-0.2,0.1c0,0-7.5-5.1-7.5-5c0.4,0.6,8.2,6.4,8.7,7.1c-3.5,0.4-7.2,0.8-11.3,1.3c-2.2,0.3-4.5,0.5-6.9,0.8
			c-0.3,0.4-0.7,0.8-1.2,1.1l-4.7,0.5c0,0.3,0.1,0.6,0.2,0.8c-2.5,0.3-5,0.2-6.4,0.3c-3.8,0.2-7.6,0.3-11.4,0.2
			c-4.7,0.6-9.6,1.2-14.8,1.9c-17.7,2.3-38,4.9-60.5,7l0.2,1.6h-0.3c-0.2-2.2-0.4-4.6-1-7.2c-0.3-1.3-0.6-2.7-1.1-4.1
			c-0.3-0.7-0.6-1.4-1-2.2c0.2-0.3,0.4-0.7,0.5-1c16.4-2,31.5-3.9,45.1-5.6c-1.2-0.5-2.1-1.5-2.2-2.9l-0.1-1
			c-13.2,1.1-27.7,2.4-43.6,3.9l0.4,3.4c-0.4,0.3-1,0.7-1.5,1.2c-0.1-0.1-0.1-0.2-0.2-0.3l-2,2c-0.5,0.4-1,0.9-1.6,1.3
			c1.6,1.5,1.1,3.5-0.3,4.6l1,8.9c2.9,17.5,3.3,20.1,3.9,27.8l0,0c0.1,1.2,0.2,2.5,0.3,3.9c0,0.2,0,0.4,0,0.5c0.5,2.5,0,0,0.5,2.6
			l1-3.3c0.8,3.3,1.5,6.1,2.2,8.6c0,0.1,0.1,0.3,0.1,0.4c0.9,3.2,1.8,5.7,2.5,7.3l0.1,0.1l0,0c0.1,0,0.2,0.2,0.6,0.1c0,0,0,0,0.1,0
			c0.2-0.3,0.1-0.4,0.1-0.5c-0.1-0.2-0.1-0.4-0.2-0.6l-0.3-0.8c-0.1-0.2-0.1-0.3-0.2-0.4c-0.5-2.9-1.1-7-1.7-12.3l0.7,0.6
			c0.4,2.3,0.8,4.5,1.3,6.4c1,4.4,2.1,7.8,3,10.2h-0.8H428c-0.4-0.1-0.8-0.2-1.2-0.3v0.3h-1.9c0,0.1,0,0.2,0.1,0.4
			c0.4,0.6,0.7,1.3,1.1,2c0.8,1.6,1.5,3.3,1.7,5.1c0.7,1,1.3,1.9,2,2.7c0.4,0.5,0.8,1,1.2,1.5c1.6,1.8,3,3.4,4.3,4.8
			c0.6,0.7,1.3,1.4,1.8,2s1,1.1,1.4,1.6c-0.6,2.8-0.8,5.7-0.9,8.6c-0.1,1.9,0,3.7,0.1,5.6c0.1,1.7,0.3,3.4,0.5,5.1
			c1.1,2,2.1,4,2.9,6.1c0.1,0.2,0.1,0.3,0.2,0.5c0.8,1.1,1.6,2.3,2.6,3.2c0.1,0,0.1,0.1,0.1,0.1c1.8,1.6,3.3,3,4.7,4.1
			c5.3,4.8,7.1,5.6,10.2,7.1c1.2,0.6,2.6,1.3,4.4,2.3c0.2,0.1,0.5,0.2,0.8,0.4c6.8,3.2,23.4,2.4,32-1.3c1.4-0.8,2.7-1.6,4-2.5
			c0.6-0.4,1.1-0.9,1.7-1.4s1.3-1,1.8-1.5c0.7-0.6,1.3-1.3,2-2c0.1-0.1,0.3-0.4,0.5-0.6c1.5-2,5.2-7.1,5.2-7.1
			c1.4-2.4,2.4-4.9,3.2-7.5v-0.1c0.3-0.8,0.5-1.7,0.7-2.5c0-0.1,0.1-0.3,0.1-0.4c0.1-0.5,0.2-0.9,0.3-1.4l0.2-5.9
			c0,0,0.7-6.2-1.4-12.6c3-0.4,5.8-0.8,8.6-1.2c17.4-2.4,31.2-4.5,40.3-6v0.1l0.2,1.5v0.2c-0.1,0.3-0.1,0.5-0.2,0.8h0.2l0.1,0.5
			l0.4,3.6l0,0c0.5,0.2,1,0.4,1.5,0.6c0.6,0.1,1.3,0.2,1.9,0.4c0.9,0.2,1.7,0.6,2.5,0.9V547c0.1-0.4,0.1-0.7,0.2-1.1
			c0.4-2.5,1-4.7,1.5-6.9c0.2-0.7,0.3-1.4,0.5-2c1.1-0.2,1.9-0.3,2.5-0.4h0.1c0.5-0.1,0.7-0.1,0.7-0.1s-1.1,0.1-3.2,0.1
			c0.6-2.1,1.1-3.9,1.5-5.5c0.7-0.1,1.4-0.2,2-0.3c0.2,2.4,0.4,4.9,0.7,7.3c0.5,0.9,0.9,1.7,1.3,2.6c0.7,1.3,1.3,2.6,1.9,4
			c0.5,1.1,1,2.2,1.4,3.4c1.3,1.8,2.6,3.5,4.1,5.1c0.5,0.6,1.1,1.2,1.7,1.7c1.3,1.4,2.7,2.7,4.1,3.9c0.9,0.8,1.8,1.6,2.8,2.4
			l-0.3,0.2c1.9,1.8,3.8,3,5.6,3.9c2.4,1.8,4.8,3.2,7.2,4.4c0.9,0.5,1.8,0.9,2.7,1.2c0,0,0.1,0.1,0.2,0.1c1,0.6,2,1.1,3.2,1.6
			c14.3,6.5,38.7,4.8,51.2-0.6c2.1-1.2,4.1-2.4,6-3.8c1.5-1.1,2.9-2.3,4.3-3.5c0.3-0.3,0.8-0.6,1.1-0.9c1-1,2-1.9,3-2.9
			c0.2-0.2,0.4-0.5,0.6-0.7c1.1-1.2,2.2-2.4,3.1-3.7c1.8-2.3,3.4-4.7,4.7-7.1c0-0.1,0.1-0.1,0.1-0.2c2-3.6,3.7-7.4,4.8-11.3
			c0.4-1.3,0.8-2.6,1-3.9c0.1-0.2,0.1-0.4,0.1-0.6c0.2-0.7,0.3-1.4,0.4-2.1v-0.9l0.1-2.9l0.1-5.1c0.4-10.3,0.7-15.8-4.3-26.9
			c-0.3-1.8,0,0-1.2-3.4c-0.2-0.6-0.5-1.3-0.8-1.9c-4.8-7.9-11.3-14.2-19-19.2l-0.1,0.1c-0.7-0.5-1.4-1-2.1-1.5
			c-3.4-2.1-7-3.9-10.8-5.6c-1.4-0.6-1.8-1.7-1.8-2.8c-0.9-0.5-3.9,0.5-3.9,0.5l-1.7,2.7c0.8,0.5,1.6,0.9,2.4,1.3l-14,1.5
			c1.6,0,3.2,0.1,4.9,0.2c0.2,0,0.3,0,0.5,0.1c6.3,1.1,14.7,3.8,22.8,9.6c1.3,1,2.7,2,4,3.2c1.6,1.4,3.1,2.8,4.6,4.4
			c1.7,1.8,3.1,3.9,4.6,6c1.6,3.2,3.2,6.2,4.6,9c0.6,1.1,1.1,2.1,1.5,3.2c0.3,0.9,0.6,1.8,0.9,2.8c0.1,0.5,0.2,1,0.3,1.5
			c0.1,0.3,0.1,0.5,0.2,0.8c0.6,2.6,1,5.3,1.1,8.1c0,0.3,0,0.6,0,0.8c0.1,1.8,0.1,3.6,0,5.4c-0.2,3.4-0.7,6.8-1.6,10.1
			c0,0.1-0.1,0.1-0.1,0.2c-0.4,1.5-1,3.1-1.6,4.6c-1.5,3.9-3.5,7.6-6,11.1c-0.7,1-1.4,2-2.2,3c-1.8,2.2-3.7,4.2-5.9,6.1
			c-0.5,0.4-1,0.9-1.6,1.3c-1.9,1.5-3.9,3-6.1,4.2c-6.4,3.8-13.7,6.4-21.5,7.3c-8.1,0.9-16.2,0-23.6-2.6c-1.1,0.1-2.1,0.2-3.2,0.4
			c-0.9-0.7-1.9-1.4-3-2.3c0.4,0,0.7-0.1,1.1-0.1c-0.9-0.4-1.7-0.8-2.6-1.3c-0.2-0.1-0.4-0.3-0.6-0.4c-2.2-1.9-8.1-5.6-8.1-5.6
			c-1.4-1.2-2.8-2.4-4-3.7c-3.3-3.4-6-7.1-8.2-11c-1.1-2.1-2.1-4.2-2.9-6.3c-0.9-2.3-1.5-4.7-2-7.1c1.6-0.3,2.6-0.4,3.2-0.6
			c0.7,2.9,1.6,5.7,2.7,8.1c0.2,0.4,0.3,0.8,0.5,1.1c3.9,8.2,9.4,13.3,13.3,16.3c0.2,0.2,0.4,0.3,0.6,0.4c3.6,2.6,5.9,3.6,5.9,3.7
			c0,0-1.4-1.1-3.7-3.4c-0.5-0.5-1.1-1.1-1.7-1.8c-3-3.3-6.7-8.5-9.2-15.6c-0.2-0.5-0.4-0.9-0.5-1.3c-1-3.2-1.7-6.7-1.9-10.4
			c-0.1-1.7-0.1-3.5,0-5.3c0.2-3.2,0.8-6.4,1.7-9.7c0.2-0.7,0.4-1.3,0.6-2c0.4-1.3,1-2.6,1.6-3.8c1.3-2.7,3-5.3,5-7.7
			c2.4-2.9,5.1-5.5,8.4-7.6c2.3-1.5,4.8-2.9,7.4-3.9c0.6-0.2,1.2-0.4,1.7-0.6c10.6-3.7,22.4-3.3,31.7,0c3.4,1.2,6.6,2.8,9.4,4.6
			c3.3,2.1,6.2,4.5,8.6,7.1c1.5,1.7,2.9,3.4,4,5.1c0.8,1.3,1.5,2.6,2.2,3.8c1.6,3.2,2.6,6.3,3.1,9.1c0.4,2,0.6,3.8,0.7,5.3
			c0,0.1,0,0.2,0,0.3c0.2,4.5-0.3,7.1-0.2,7.1c-0.1,0,1-2.4,1.7-6.9c0-0.1,0.1-0.2,0.1-0.4c0.2-1.4,0.3-3.1,0.3-5
			c0-2.6-0.3-5.6-1.1-8.9c-0.5-2.2-1.3-4.4-2.3-6.7c-0.3-0.6-0.6-1.3-1-1.9c-1.2-2.3-2.6-4.5-4.4-6.7c-4.2-5.2-10.1-10.1-17.5-13.4
			c-0.1,0-0.2-0.1-0.3-0.2c-8.8-3.9-19.5-5.5-30.3-3.7c-3.4,0.6-6.8,1.5-10.2,2.8c-4.1,1.6-7.9,3.9-11.3,6.6
			c-1.9,1.5-3.7,3.1-5.2,4.8c-0.3,0.4-0.7,0.7-1,1.1c-1.9,2.2-3.5,4.6-4.8,7c-0.1,0.2-0.2,0.5-0.4,0.7c-1-0.3-2.1-0.6-3.1-0.8
			c0-0.1,0.1-0.2,0.1-0.3c0.3-0.7,0.6-1.4,1-2.1c1.3-2.2,2.6-4.2,4.1-6.1c1.3-1.8,2.7-3.4,4.1-4.9c4.5-4.6,9.3-8,13.6-10.4
			c1.1-0.6,2.2-1.2,3.2-1.6l0,0c2.8-1.1,5.7-1.9,8.7-2.5l-8.4,0.9l-0.3-3.2c-3.6,1.4-7,3.1-10.2,5c3.4-2,6.8-3.9,10.2-5.7
			c2.2-1.1,4.5-2.2,6.6-3.2c0.2-0.1,0.3-0.2,0.5-0.2c5-2.1,9.9-3.8,14.7-4.8c-0.1,0.9-0.2,1.7-0.2,2.4c-0.2,1.9-0.5,2.9-0.5,2.9
			s0.4-1,0.7-2.9c0.2-0.7,0.3-1.5,0.5-2.5c0.7-0.1,1.3-0.3,2-0.4l0.4,2.7l0.3,1.8l0.1,0.4c0.1,0-0.1,0.1,0.1,0.1l0,0v-0.4l-0.1-1.9
			l-0.2-2.7c2.3-0.3,4.6-0.5,6.8-0.4c0.2,1.7,0.4,3,0.6,3.9c0.2,1.2,0.3,1.8,0.3,1.8s0-0.6-0.1-1.8c-0.1-0.9-0.1-2.3-0.3-3.9
			c0.4,0,0.8,0,1.2,0h0.1c0.8,2.5,1.3,3.8,1.3,3.8s-0.2-1.3-0.4-3.8c2.8,0.3,5.4,0.9,8,1.6c0.8-0.5,25.8,13.9,27.6,15.4
			c1.9,1.5,3.5,3,5,4.4l-0.7,0.9c0.5,0.6,1.1,1.2,1.5,1.8l0,0l0,0c0.4,0.5,0.8,1.1,1.2,1.6c0.2,0.1,0.3,0.2,0.4,0.3
			c1,0.7,1.8,1.3,2.5,1.8c1.4-1.7,3-3.1,4.7-4.5c-0.4-0.6-0.8-1.2-1.2-1.9C694.3,477.1,693.5,475.7,692.7,474.2z M681.6,487.5
			c1.4,1.9,2.5,3.7,3.5,5.4c0.3,0.6,0.6,1.1,0.9,1.6c-0.3-0.4-0.5-0.8-0.8-1.3c-1.2-1.9-2.4-3.7-3.7-5.4
			C681.5,487.7,681.5,487.6,681.6,487.5z M664.7,449c0,0.1,0,0.2,0,0.3c0.2,1.7,0.4,3,0.5,3.9c-0.2-0.1-0.3-0.2-0.5-0.3
			c-0.1,0-0.1-0.1-0.2-0.1C664.6,452.2,664.7,450.9,664.7,449z M667.9,454.6c-0.7-0.3-1.3-0.7-2-1c0,0-0.1,0-0.1-0.1l0.9-4
			c0-0.2,0.1-0.3,0.1-0.5C667.2,451.1,667.6,452.9,667.9,454.6z M664.4,452.7c-1-0.8-2-1.6-2.8-2.4l-0.8,0.7c0-0.8,0-1.6-0.1-2.5
			c-0.1-3.8-0.4-8.9-0.7-14.9C662.1,443.9,663.9,450.7,664.4,452.7z M658.8,448.6l0.5,1.8c-1.1-0.5-2.3-0.9-3.5-1.3
			c0-0.2,0-0.3,0-0.5c-0.3-3.4-0.1-7.8,0-13.2C656.9,440.7,658,445.1,658.8,448.6z M649,442.4c0.5,1.8,1,3.4,1.4,4.8c0,0,0,0,0,0.1
			c-0.4-0.1-0.9-0.3-1.3-0.4c0-0.5,0-1,0-1.5C649.1,444.5,649.1,443.5,649,442.4z M652,441.3c0.5,2.7,1,5,1.5,7
			c-0.2-0.1-0.5-0.1-0.7-0.2c-0.1,0-0.3-0.1-0.4-0.2c0-0.3,0-0.6-0.1-1C652.3,445.4,652.2,443.4,652,441.3z M651.6,427.1
			c0-0.1,0-0.2,0-0.3c0.8-0.2,1.5-0.3,2.3-0.5c0,0.2,0.1,0.4,0.1,0.5L651.6,427.1z M645.1,437.4c0.8,3.1,1.5,5.8,2,8.1l0.2,0.7
			c-0.4-0.2-0.9-0.3-1.3-0.4c-0.3-0.8-0.5-1.6-0.7-2.4C645.1,441.5,645.1,439.6,645.1,437.4z M604.1,373.2l0.1-1.2
			c-0.3-0.1-0.6-0.2-1-0.2l4.3-0.7c0.2,1.4,0.4,2.8,0.6,4.2c-0.5,0.6-0.9,1.2-1.4,1.8c-1.2,1.5-2.3,3-3.4,4.4L604.1,373.2z
			 M601,380.6c0.1,0.1,0.3,0.2,0.4,0.3c0.4,0.4,0.8,0.9,1.2,1.5c-0.3,0.3-0.5,0.7-0.8,1C601.6,382.5,601.3,381.5,601,380.6z
			 M590.5,400.9c0.5-0.6,1.1-1.2,1.7-1.8c2.3-2.4,4.9-5.3,8-8.5c0.5,2.5,1.1,5,2,7.3c0.2,0.5,0.4,1,0.7,1.5
			C598.5,399.9,594.4,400.4,590.5,400.9z M603.9,399.2c0.1-0.5,0.1-1,0.2-1.6c0-0.5,0-1,0-1.6c0-0.1,0.1-0.2,0.1-0.2l0.2,1.8
			l0.2,1.6C604.3,399.1,604.1,399.2,603.9,399.2z M604.6,399.1c0-0.5,0-1,0-1.6c0-0.7-0.1-1.4-0.1-2.2c1-2.3,0.9-6-0.2-9.3
			c1-1.1,2-2.2,3.1-3.4c0.5-0.5,1-1,1.5-1.6c0.7,6.1,1.1,11.9,1.5,17.3C608.4,398.6,606.5,398.9,604.6,399.1z M618,397.4
			c-0.2,0-0.4,0-0.6,0.1c0.1-0.9,0.1-1.7,0.1-2.6C617.7,395.8,617.8,396.6,618,397.4z M617.4,394.4l-0.1,3.1c-0.4,0-0.9,0.1-1.3,0.2
			c-0.1-0.6-0.2-1-0.3-1.3c0-3.1,0-6.3,0-9.6C616.4,389.4,616.9,391.9,617.4,394.4z M618.1,413.6c-0.1-0.3-0.1-0.6-0.2-0.9v-0.6
			l-0.4-3.7c-0.1-1.1-0.2-2.1-0.3-3l0.1-4.9c-0.1,1.1-0.2,2.2-0.3,3.4c-0.2-1.4-0.4-2.6-0.5-3.6c0.3,0,0.6-0.1,0.8-0.1v0.3
			c0-0.1,0-0.2,0-0.3c0.4,0,0.8-0.1,1.2-0.1c0.2,1.4,0.4,2.8,0.6,4.2c0.4,2.8,0.8,5.5,1.1,8.1c0.3,2.7,0.5,5.1,0.6,7.4
			c0.1,0.7,0.1,1.4,0.1,2.1c0,0.3,0,0.7,0.1,1c0,0.7,0,1.3,0,1.9h-0.3h-0.2l0,0c-0.2-1.1-0.4-2.1-0.6-3.1c-0.2-0.7-0.3-1.4-0.4-2.1
			C619,417.4,618.5,415.3,618.1,413.6z M593.9,440.4c6-8.2,13.8-19.1,17-22.9c0.9-1,1.4-1.6,1.4-1.4c0,0.1,0.1,0.3,0.1,0.4
			c0.2,0.8,0.3,1.6,0.4,2.4c0.1,0.7,0.2,1.4,0.3,2.1c0.2,1.1,0.3,2.1,0.4,3.1c0.1,1,0.3,1.9,0.4,2.8c0,0.2,0,0.3,0.1,0.5
			c0.1,0.9,0.1,1.8,0.2,2.6c0.1,1.2,0.1,2.3,0.1,3.3c0,0.1,0,0.2,0,0.4l-0.2-0.1c0,0.7-0.2,1.4-0.4,2.1s-0.5,1.3-0.9,1.9l0.3,0.4
			c0.2,0.3,0.4,0.7,0.5,1c0.1,0.2,0.1,0.4,0.2,0.6c0,0.3,0,0.5,0,0.8c-6.7,0.5-13.8,1.1-21.2,1.7C593.1,441.6,593.5,441,593.9,440.4
			z M538.1,446.6c1.2-1.4,2.1-2.9,2.7-4.2c0.2,1.7,0.4,3.4,0.7,5.1c-1.2,0.1-2.7,0.2-4.6,0.3C537.3,447.4,537.7,447,538.1,446.6z
			 M535,449.2c0.4-0.3,0.8-0.5,1.2-0.8c2.2-0.3,4-0.6,5.3-0.7c0,0.3,0.1,0.5,0.1,0.8C539.3,448.6,537.2,448.9,535,449.2z
			 M555.6,488.5l0.4,2.8l0.2,2.1c-1.9,0.2-3.8,0.3-5.9,0.5c-0.1-6.4-0.2-13.4-0.4-21c0.6,0.6,1.2,1.1,1.8,1.7c1,4,2.2,7.7,3.1,11.1
			L555.6,488.5z M575.5,514.4c-0.3,2.2-0.4,4.5-0.5,6.8c-1.7-2.7-6.2-9.8-13.8-19.5c0.1,0,0.1,0,0.2,0c4.7,4.6,8.8,7.7,11.6,10.3
			C574,512.9,574.9,513.7,575.5,514.4z M574.6,510.9c-0.7-1.1-1.5-2.3-2.4-3.6c1.5,1.3,2.8,2.4,3.9,3.4c-0.1,0.7-0.2,1.4-0.3,2.1
			C575.5,512.2,575.1,511.6,574.6,510.9z M579.4,498.6v0.1c0,0.1-0.1,0.2-0.1,0.3l-0.2,0.3c-1,0.1-2.3,0.2-4,0.3l-0.5-0.7
			c-0.2-0.3-0.4-0.5-0.6-0.8l0,0c0.1,0,0.1,0,0.1,0c0.1-0.4,0.1-0.7,0.1-1.1L579.4,498.6z M578.7,500.8c-0.3,1-0.6,1.9-0.9,2.9
			c-0.5-0.8-1.1-1.7-1.8-2.8l-0.7-1c1.5-0.2,2.7-0.4,3.7-0.5l-1.8,2.1C577.7,501.3,578.2,501.1,578.7,500.8z M577.2,505.8
			c-0.1,0.5-0.3,1.1-0.4,1.6c-0.6-0.9-1.3-1.9-2-3c0.7,0.4,1.3,0.8,1.9,1.1C576.8,505.7,577,505.7,577.2,505.8z M563.1,497l-3.5,2.6
			c0-0.9,0-1.8,0-2.8c0-0.9-0.1-1.9-0.1-2.8c1-0.1,2-0.3,3-0.4C562.7,494.7,562.9,495.9,563.1,497z M562.5,536.5l-2.7-3.4
			c0.8-0.1,1.6-0.2,2.4-0.3L562.5,536.5z M562.1,530.7c-1.3,0.1-2.6,0.1-3.9,0.2l-2-2.5c-1.5-1.9-3.2-4.2-5.1-6.6
			c-0.1-1.8-0.2-3.8-0.3-5.9c0.1,0.1,0.2,0.2,0.3,0.3l7.9,8.4c1.1,1.2,2.1,2.2,3,3C562,528.6,562,529.7,562.1,530.7z M556.1,531
			c-1.4,0.1-2.8,0.1-4.4,0.2c0,0,0-0.1-0.1-0.1c-0.1-1.3-0.2-2.9-0.3-4.7c1.1,1.1,2.2,2.2,3.2,3.1C555.1,530,555.6,530.5,556.1,531z
			 M509.6,528.4c-1.5-1.7-3.3-3.5-5.2-5.4c2.9,2.8,5.4,5.1,7.7,7c0.1,0.5,0.1,1,0.2,1.3C511.5,530.5,510.6,529.5,509.6,528.4z
			 M508.3,520.4c0.9,0.6,1.7,1.2,2.5,1.7c0.1,0.1,0.3,0.3,0.4,0.4c0,0.3,0.1,0.6,0.1,0.9C510.4,522.6,509.4,521.6,508.3,520.4z
			 M554.3,499.9c-0.3,0-0.7,0-1.1,0c-0.4-0.5-0.8-1-1.1-1.5l-1.7,1.2c0-1.4,0-2.9-0.1-4.4c2.1-0.3,4.1-0.5,6-0.8l0.3,2.3l0.3,2.9
			l-0.4,0.4C555.8,499.9,555.1,499.9,554.3,499.9z M556,500.4l-0.9,0.8c-0.3,0-0.5,0-0.8,0.1c-0.2-0.3-0.4-0.6-0.7-0.9
			c0.1,0,0.3,0,0.4,0C554.7,500.4,555.4,500.4,556,500.4z M550.8,531.3c-0.3,0-0.6,0-0.9,0c0-0.3,0-0.6-0.1-0.9
			C550.2,530.7,550.5,531,550.8,531.3z M549.7,528.4c-0.1-1.2-0.2-2.5-0.2-3.9c0.1,0.1,0.3,0.3,0.5,0.4c0.3,1.8,0.6,3.5,0.8,4.9
			C550.5,529.4,550.1,528.9,549.7,528.4z M548.6,526.9c-2.6-3.5-6.4-8.3-11.4-14c0.2,0,0.4,0,0.5,0c3.8,3.8,7.2,7.2,10.2,10.2
			C548.2,524.4,548.4,525.7,548.6,526.9z M532.6,532.2c-0.7,0-1.2,0.1-1.9,0.1c-0.8-1.6-2-3.7-3.6-6.2
			C529,528.1,530.9,530.1,532.6,532.2z M531.3,506.5c0,0.1,0,0.1,0,0.2l-4,3.9c0.7,0.6,1.3,1.1,2,1.7c-0.8,0.1-1.6,0.2-2.5,0.3
			c-1.1-1.1-2.2-2.1-3.4-3.2c-0.1-0.1-0.3-0.2-0.4-0.4c0.1-0.7,0.2-1.5,0.3-2.3c2.7-0.3,5.3-0.7,7.8-1c0,0.1,0,0.2,0.1,0.3l-0.3,0.2
			C531.1,506.3,531.2,506.4,531.3,506.5z M546.3,511.3c0,0.2,0.1,0.4,0.1,0.7c-1-0.1-2-0.2-3.2-0.2c-1.8-2.2-3.7-4.5-5.8-6.9
			c1.5-0.2,3-0.4,4.5-0.6l-1.7,2C542.4,507.8,544.4,509.5,546.3,511.3z M544.2,502.2c-0.1-0.1-0.2-0.2-0.3-0.3l-0.3,0.4
			c-2.5,0.2-5.1,0.4-7.8,0.7c-0.1-0.1-0.2-0.2-0.2-0.3c3.5-0.7,6.6-1.2,9.5-1.5c0,0.3,0.1,0.6,0.1,1
			C544.8,502.1,544.5,502.1,544.2,502.2z M536.7,511.7c-0.1,0-0.3,0-0.4,0c-1-1.1-2-2.2-3-3.4C534.4,509.5,535.5,510.6,536.7,511.7z
			 M531.9,501.6c0-1.2-0.1-2.6-0.1-4.1c4.5-0.6,8.7-1.1,12.6-1.6c0.2,1.4,0.3,2.8,0.5,4.1C541.1,500.3,536.7,500.8,531.9,501.6z
			 M547,516.5c-1-1.3-2.1-2.6-3.2-4c0.9,0,1.8,0,2.6,0C546.6,513.9,546.8,515.3,547,516.5z M522.1,503.4c-1.4,0.3-2.8,0.6-4.3,0.9
			l-0.1-0.1l-0.7-0.6c-0.3-0.2-0.1,0-0.2-0.1c-0.1,0-0.2,0.1-0.3,0.1c0-1.3-0.1-2.7-0.2-4.1c1.8-0.2,3.5-0.4,5.1-0.6
			c0.1,0.3,0.1,0.6,0.1,0.9C521.9,501.1,522,502.3,522.1,503.4z M512.4,517c0.5-0.1,1-0.2,1.5-0.3l0.4,3c-0.6-0.8-1.2-1.6-1.9-2.4
			C512.4,517.2,512.4,517.1,512.4,517z M516.8,518.8c6.1,5.6,10.3,10.4,12.8,13.5c-2,0.1-4,0.2-6.1,0.3c-0.6-0.8-1.4-1.8-2.2-3
			l-0.4-0.5c1.3,0.9,2.6,1.7,3.7,2.5l0,0l1.1-1.3l0,0l0,0c-2.4-2.2-5.5-4.9-9-8c0-0.6,0-1.2,0-1.9
			C516.8,519.9,516.8,519.4,516.8,518.8z M516.1,531.2c-1.1-1.4-2.3-3.2-3.8-5.2c0-0.2,0-0.3,0-0.5c1.3,0.7,2,1.1,2,1.1
			s-0.7-0.7-2-2.1c0-0.3,0-0.6,0-0.9l0.1,0.1c1.1,1.1,2.1,2.1,3.1,3.1C515.7,528.4,515.9,529.9,516.1,531.2z M515.4,533
			c-0.6,0-1.2,0.1-1.8,0.1c-0.4-0.5-0.8-1-1.3-1.5c0-0.3,0-0.7,0-1.2c0.5,0.5,1.1,1,1.6,1.4C514.5,532.2,515,532.6,515.4,533z
			 M519.8,530.8c0.8,0.7,1.4,1.3,2.1,1.9c-1.5,0.1-3,0.1-4.6,0.2c-0.1-0.1-0.2-0.3-0.3-0.4c0-1.3-0.1-2.7-0.1-4.4
			C517.9,529.1,518.9,530,519.8,530.8z M510.9,533.2c-0.6,0-1.2,0-1.7,0.1c-0.7-1-1.6-2.1-2.5-3.4c0.3,0.2,0.5,0.4,0.8,0.6
			C508.7,531.4,509.8,532.3,510.9,533.2z M505.2,531.4c0.8,0.7,1.6,1.4,2.2,2c-0.4,0-0.9,0-1.3,0.1c-0.2-0.2-0.4-0.4-0.5-0.6
			c-0.2-0.3-0.4-0.5-0.6-0.8C505.1,531.8,505.1,531.6,505.2,531.4z M561.8,523.3c0,0.6,0,1.2,0,1.8l0,0c-0.4-0.6-0.7-1.1-1.1-1.8
			c-0.4-0.5-0.7-1.1-1.1-1.7c0-0.1,0-0.2,0-0.3C560.4,522.1,561.1,522.7,561.8,523.3z M563,516.6c-0.2-0.2-0.2-0.1-0.3,0
			s-0.2,0.3-0.2,0.4c-0.1,0.3-0.3,0.6-0.3,1c-0.1,0.5-0.2,0.9-0.2,1.3c0,0.3,0,0.5-0.1,0.8c-0.8-0.9-1.6-1.9-2.4-3
			c0-1.2,0-2.7,0-4.2c2.5,2.1,4.8,4,6.7,5.6L563,516.6z M558.5,515.8c-0.4-0.6-0.9-1.2-1.4-1.8c-1.6-2.1-3.2-4.5-4.6-7.2
			c1.9,1.7,3.8,3.3,5.5,4.8C558.2,513.1,558.3,514.5,558.5,515.8z M540.4,463.6L540.4,463.6c0.1,0.1,0.1,0.1,0.1,0.1
			c1.5,11.3,2.6,21.6,3.7,30.6c-3.8,0.3-8,0.7-12.5,1.1c-0.3-7.6-0.7-17.8-1.5-30.2C533.8,464.6,537.3,464.1,540.4,463.6z
			 M524.5,466.2c1.8,12,3.5,22,4.8,29.5c-1.8,0.2-3.7,0.3-5.6,0.5c-0.1-3.3-0.3-7-0.7-11.1c-0.5-5.4-1.2-11.6-1.7-18.3L524.5,466.2z
			 M427.7,481.2c20.4-2.6,38.8-5.5,55.1-8.2l19.5-3.2l0.3,1.2l1.7,7.3l3.3,13.4c0.4,2,0.8,3.9,1.1,5.7c-22.6,2-50.2,4.5-82.1,7.5
			C426.6,498,426.8,490.1,427.7,481.2z M422.5,498.2c0.2,2.5,0.4,4.8,0.7,7c-0.1,0-0.2,0-0.2,0C422.7,503,422.6,500.7,422.5,498.2z
			 M426.9,510.4c31.8-3.8,59.5-7.2,82.3-10c0.2,1.6,0.4,3.2,0.6,4.7c-16.9,1.5-36.4,3.2-58.5,5.3c-3.1,0.1-6.3,0.3-9.5,0.6
			c-1.4,0.2-2.8,0.4-4.3,0.6c-2.4,0.2-4.8,0.5-7.2,0.7c-0.5,0-1,0-1.4,0.1l0,0c-0.3,0-0.6,0.1-0.9,0.1s-0.6,0.1-0.9,0.1
			C427,512,426.9,511.2,426.9,510.4z M454,532.8c-1.3,1-2.4,2.1-3.5,3.2c-0.2,0.2-0.5,0.5-0.7,0.7c-0.4,0.5-0.8,1.1-1.2,1.6
			c-0.2,0-0.9-0.2-2.2-0.7c0.4-0.7,0.9-1.3,1.4-2c0.9-1.2,1.8-2.3,2.8-3.2c1.4-1.5,2.9-2.8,4.4-3.9l2.1,2.2
			C456,531.4,455,532.1,454,532.8z M442.1,538c-0.3,0.5-0.5,0.9-0.7,1.4c-0.2-0.3-0.5-0.7-0.8-1.1c-0.2-0.2-0.4-0.5-0.5-0.7
			C440.8,537.8,441.5,537.9,442.1,538z M438.7,545c-0.1-0.3-0.2-0.9-0.3-1.6c0.4,0.3,0.8,0.5,1.1,0.7c-0.2,0.7-0.5,1.4-0.7,2
			c-0.1-0.2-0.2-0.4-0.3-0.7h0.1c0.1-0.1,0.1-0.2,0.1-0.3L438.7,545L438.7,545z M441,529c0.2,0.1,0.5,0.2,0.6,0.2
			c0.5,0.2,0.9,0.3,1.3,0.4l0.3,0.7c0,0.1,0.1,0.3,0.2,0.5C442.7,530.3,441.8,529.7,441,529z M443,529.7c1,0.3,1.5,0.5,1.5,0.5
			s-0.3-0.6-1-1.6c1.6,0.9,2.9,1.6,3.8,2c-0.6,0.7-1.2,1.4-1.7,2.2l-0.1-0.3c-0.3-0.9-0.8-1.2-1.1-1.5l-0.9-0.7L443,529.7z
			 M444.5,533.1l0.7,0.1c-0.3,0.4-0.6,0.7-0.9,1.1c-0.2,0.3-0.4,0.7-0.6,1.1c-0.5-0.7-1.4-1.7-2.5-3v-0.1
			C442.4,532.7,443.6,533,444.5,533.1z M447.7,530.3l-4.2-3.9l-3.8-3.6c2.2,1.3,4.1,2.4,5.7,3.2c2.1,1.1,3.6,1.8,4.5,2.2
			C449.1,528.9,448.4,529.5,447.7,530.3z M443,520.8c3.9,1.8,7,3.8,9.3,5.5c-0.7,0.5-1.4,1-2.1,1.6c-0.7-0.7-1.8-1.8-3.5-3.4
			L443,520.8z M453,523.5c0.3,0.1,0.5,0.2,0.7,0.3c0.3,0.1,0.5,0.2,0.7,0c0-0.1,0-0.1,0-0.2c-0.1,0-0.3-0.1-0.4-0.3
			c-0.3-0.4-0.7-1.1-1.2-2c-0.4-0.6-0.8-1.4-1.2-2.2c2.6,1.8,4.7,3.1,6.1,3.8c-1.2,0.6-2.4,1.3-3.6,2
			C453.8,524.6,453.4,524.1,453,523.5z M427.5,519.3c0-0.1,0-0.3,0-0.4l0.8,1.5c0.4-0.2,0.8-0.3,1.2-0.5c1.1,0.8,2.2,1.5,3.2,2.2
			l-0.4,0.3l-4.1,1.8C427.9,522.6,427.7,521.1,427.5,519.3z M428.2,524.3c1.1,1.7,2.2,2.6,3.2,3.6c1.1,0.9,2.2,1.7,3.2,2.4
			c2,1.4,3.8,2.5,5.3,3.4c1.6,0.9,2.8,1.6,3.6,2.1c-0.1,0.2-0.2,0.4-0.3,0.6c-0.1,0-0.2-0.1-0.3-0.1c-1.8-0.8-4-2-6.6-3.3
			c-1.7-0.8-3.7-1.8-6-2.6c0-0.3,0-0.5,0-0.8h-1.1C428.9,528.2,428.5,526.4,428.2,524.3z M437.1,544.9l1.7,1.4
			c-0.1,0.4-0.2,0.7-0.3,1.1c-0.1-0.1-0.1-0.2-0.2-0.4C437.9,546.4,437.5,545.6,437.1,544.9z M459.7,588c0.6,0,1.2,0.2,2,0.6
			C461.4,588.6,460.6,588.3,459.7,588z M509.4,548.1c0,0.2,0.1,0.4,0.1,0.5c0.4,1.8,0.6,3.6,0.8,5.4c0,0.2,0,0.4,0,0.6
			c0,1.2,0,2.4,0,3.6c-0.1,2.2-0.4,4.5-1.1,6.7v0.1c-0.3,1-0.7,2-1.1,3c-1,2.6-2.3,5-4,7.4c-0.5,0.7-0.9,1.4-1.4,2
			c-1.2,1.4-2.4,2.8-3.9,4c-0.3,0.3-0.7,0.6-1.1,0.9c-1.3,1-2.6,2-4,2.8c-4.3,2.6-9.1,4.3-14.3,4.9c-5.4,0.6-10.8,0-15.7-1.7
			c-0.6-0.3-4.5-1.9-5.1-2.2c-3.2-1.7-6-3.9-8.5-6.4c-2.2-2.2-4-4.7-5.4-7.3c-0.8-1.4-1.4-2.8-1.9-4.2c-1-2.6-1.5-5.2-1.8-7.8
			c-0.1-1.2-0.2-2.4-0.2-3.6c0-0.6-0.1-1.1,0-1.7c0-0.6,0.1-1.1,0.2-1.7c0.3,0.5,0.5,0.8,0.5,0.8s-0.1-0.5-0.4-1.4
			c0.1-0.5,0.1-1,0.1-1.5c0.1-0.3,0.1-0.6,0.2-0.9c0.1-0.6,0.2-1.1,0.4-1.7c0.2-0.8,0.5-1.5,0.7-2.2c0.6-1.8,1.2-3.6,2.1-5.2
			c0.2-0.5,0.4-1,0.6-1.4c0.3-0.5,0.5-0.9,0.8-1.3c1.6,0,2.5,0,2.7-0.1c-0.7,1-1.4,2-1.9,3c-1,1.7-1.7,3.4-2.3,5.2
			c-0.2,0.6-0.4,1.1-0.6,1.7c-0.2,0.7-0.3,1.5-0.5,2.2c-0.4,2.2-0.6,4.4-0.5,6.5c0,1.2,0.2,2.4,0.3,3.6c0.4,2.9,1.3,5.6,2.3,7.9
			c0.1,0.2,0.2,0.5,0.3,0.7c2.6,5.4,6.2,8.8,8.8,10.8c0.1,0.1,0.3,0.2,0.4,0.3c2.4,1.7,3.9,2.4,3.9,2.4s-1-0.8-2.5-2.3
			c-0.3-0.4-0.7-0.7-1.1-1.2c-2-2.2-4.5-5.7-6.1-10.4c-0.1-0.3-0.2-0.6-0.3-0.9c-0.7-2.1-1.1-4.4-1.2-6.9c-0.1-1.2-0.1-2.3,0-3.5
			c0.1-2.1,0.5-4.3,1.2-6.4c0.1-0.4,0.2-0.9,0.4-1.3c0.3-0.9,0.6-1.7,1.1-2.5c0.8-1.8,2-3.5,3.3-5.1c1.6-1.9,3.4-3.6,5.6-5.1
			c1.5-1,3.2-1.9,4.9-2.6c0.4-0.2,0.8-0.3,1.1-0.4c7-2.4,14.9-2.2,21.1,0c0.9,0.3,1.6,0.6,2.4,1c0.2,0.7,0.3,1.3,0.4,1.8
			c-0.1,0-0.2-0.1-0.3-0.2c-3.7-2.1-7.3-2.9-10-3.1c-3.8-0.2-5.9,0.5-5.9,0.4c0,0,0.7,0,1.9,0c-1.1,0-2.3,0.1-3.4,0.3
			c0.9-0.3,1.5-0.3,1.5-0.4c0,0-1.4-0.1-3.9,0.4c-0.6,0.1-1.2,0.3-2,0.5c-1.5,0.5-3.4,1.2-5.3,2.4c-2,1.2-4,2.8-5.8,5.1
			c-0.6,0.7-1.2,1.5-1.7,2.3c-0.6,0.8-1,1.8-1.5,2.8c-0.1,0.3-0.3,0.6-0.4,0.9c-0.4,0.9-0.7,1.9-1,2.9c0,0.1,0,0.1-0.1,0.2
			c-0.5,2-0.9,4.1-0.9,6.2c0,1.2,0,2.3,0.2,3.5c0.3,2.4,0.9,4.9,2,7.3c0.1,0.2,0.2,0.4,0.3,0.6c1.9,4.2,5.2,8.1,9.6,10.8
			c0.8,0.5,1.6,0.9,2.4,1.3c4.1,2,9,2.9,13.9,2.4c4.5-0.5,8.7-2.3,12.2-4.8c1-0.8,2-1.6,2.9-2.5c0.6-0.7,1.2-1.4,1.7-2.1
			c1.8-2.3,3.3-4.8,4.2-7.3c0.4-1,0.7-2.1,0.9-3.1c0-0.3,0.2-0.6,0.2-0.8c0.4-2.1,0.5-4.1,0.4-6c-0.1-1.2-0.2-2.3-0.4-3.5
			c0-0.1-0.1-0.2-0.1-0.3c-0.4-1.9-0.9-3.6-1.6-5.2c-0.1-0.3-0.3-0.5-0.4-0.8c-1.1-2.3-2.4-4.3-4-6c-0.3-0.4-0.7-0.8-1.1-1.1
			c-1.4-1.3-2.8-2.3-4.2-3.2c0-0.4,0-1,0.1-1.6c1.1,0.5,2.1,1.1,3,1.7c2.2,1.4,4.1,3,5.7,4.7c1,1.1,1.9,2.3,2.6,3.4
			c0.6,0.9,1,1.7,1.4,2.6c1,2.1,1.7,4.2,2.1,6.1c0.3,1.3,0.4,2.5,0.5,3.5c0,0.1,0,0.1,0,0.2c0.1,3-0.2,4.7-0.1,4.7
			c0,0,0.6-1.6,1.1-4.6c0-0.1,0-0.2,0-0.3c0.1-1,0.2-2.1,0.2-3.4c0-1.7-0.2-3.8-0.7-5.9c-0.4-1.4-0.9-2.9-1.6-4.5
			c-0.2-0.4-0.4-0.8-0.6-1.3c-0.8-1.5-1.7-3-2.9-4.4c-2.1-2.7-5-5.1-8.4-7.1c-5.6-2.2-16.9-5.4-23.5-4.3c-2.3,0.4-4.5,1-6.8,1.9
			c-1.4,0.6-2.7,1.2-4,2l-1.6-2.6c1.2-0.9,2.5-1.7,3.7-2.3c0.7-0.4,1.5-0.8,2.1-1.1l0,0c0.9-0.3,1.8-0.6,2.7-0.8l-3,0.3l-0.3-2.4
			c-0.8,0.3-1.7,0.7-2.5,1.1c-0.4-0.7-0.8-1.6-1.5-2.8c1.3,0.2,2.6,0.4,3.9,0.6c6.2,0.9,12.3,1.8,18.1,1.7c0.6,0,1.2,0,1.9-0.1
			c1,0.2,5.3,1.9,8.6,3.2c0-0.2,0-0.3,0-0.4c1.1,0.5,2.2,1.1,3.3,1.7l0,0l0,0c1,0.6,1.9,1.2,2.9,1.8c0.9,0.6,1.8,1.4,2.7,2.1
			c1,0.9,2.1,1.8,3,2.9c1.2,1.3,2.3,2.8,3.3,4.4l0.1,1.5c0.3,0,0.5-0.1,0.8-0.1c0.4,0.7,0.8,1.4,1.2,2.1c-0.3,0-0.5,0-0.8,0.1
			c0,0,2.1,5.4,2.9,5.3c0.1,0.2,0.2,0.4,0.2,0.7C509.3,547.5,509.3,547.8,509.4,548.1z M489.6,540.8c0.5,0.5,1.1,1,1.6,1.7
			c1,1.3,1.9,2.8,2.6,4.4c0.2,0.5,0.5,0.9,0.7,1.4c0.6,1.4,1,3,1.2,4.6c0,0.2,0.1,0.5,0.1,0.7c0.1,1,0.2,2,0.2,3
			c0,1.8-0.2,3.7-0.7,5.5c-0.1,0.4-0.3,0.8-0.4,1.2c-0.4,1.1-0.8,2.1-1.3,3.1c-1.1,2.1-2.5,4.1-4.3,5.7c-0.5,0.5-1.1,0.9-1.7,1.4
			c-2.7,2-6,3.5-9.6,3.9c-4.3,0.5-8.6-0.5-12.2-2.5c-2.2-1.2-3.9-2.8-5.5-4.6c-0.9-1-1.7-2.1-2.3-3.2c0.9,0.9,1.8,1.6,2.5,2.1
			c2,1.2,3.2,1.5,3.2,1.5s-1.1-0.7-2.5-2.3c-1.2-1.3-2.5-3.4-3.1-6c-0.1-0.5-0.2-1.1-0.3-1.6c0-0.6,0-1.2,0-1.9
			c0.1-2.1,0.6-4.2,1.6-6.4c0.5-1,1-2.1,1.7-3.1c0.1-0.2,0.3-0.4,0.5-0.6c1.3-1.9,3-3.6,4.9-5c1.7-1.3,3.7-2.3,5.8-2.8
			c4.6-1.1,9.7,0.4,12.5,3.3c0.6,0.5,1,1.1,1.5,1.7c1.6,1.9,2.8,4.1,3.7,6.2c0.4,0.9,0.7,1.8,0.9,2.7c0.1,0.4,0.2,0.8,0.3,1.2
			c0.6,2.8,0.5,5.2-0.2,6.8c0,0.1,0,0.2-0.1,0.2c-0.9,1.8-2.3,2.3-2.2,2.4c-0.1-0.1,1.4,0,3.1-1.8c0.2-0.2,0.3-0.4,0.4-0.6
			c1.1-1.5,1.9-3.8,2-6.6c0-0.7,0.1-1.4,0-2.1c0-0.5-0.1-1.1-0.2-1.6c-0.3-1.9-0.7-3.9-1.5-5.9s-1.8-4-3.4-5.9
			c0-0.1-0.1-0.1-0.1-0.2c-0.7-0.9-1.6-1.7-2.6-2.5C487.5,538.8,488.6,539.7,489.6,540.8z M529.2,539.5c-0.4-0.1-0.9-0.2-1.4-0.3
			c1.4-0.1,2.7-0.1,4-0.2v0.3C531,539.3,530.1,539.4,529.2,539.5z M545.2,536.3c-1.4-0.2-2.9-0.4-4.5-0.6c-0.1-0.1-0.1-0.2-0.2-0.3
			c1.7-0.2,3.4-0.4,5.1-0.6l1.2,1.3c0.1,0.1,0.1,0.1,0.2,0.2C546.3,536.3,545.8,536.3,545.2,536.3z M551.5,536.9
			c1.4-0.6,2.1-1.1,2.1-1.1s-2,0.4-5.8,0.5c-0.2,0-0.4,0-0.6,0c-0.1-0.1-0.1-0.2-0.2-0.3l-1-1.2c1.4-0.2,2.7-0.3,4-0.5
			c0.2,1.2,0.4,1.9,0.4,1.9s0-0.7-0.1-1.9c2.5-0.3,4.9-0.6,7.1-0.9c0.4,0,0.8-0.1,1.2-0.1c1.8,1.7,3.2,3,4.1,3.7v0.3
			c-0.6,0-1.3,0.1-1.9,0.1c-2.8,0.2-5.8,0.3-9.3,0.6c3.1-0.4,4.8-0.9,4.8-0.9C556.1,537.1,554.5,537.1,551.5,536.9z M573.5,530.1
			c0.1-0.3,0.2-0.7,0.3-1c1-4.2,1.2-6.6,1.2-6.6s-0.4,1.4-1.2,3.8c0-0.3-0.2-1.1-0.7-2.1c-0.6-1.1-1.5-2.6-2.8-4.3
			c0.2-0.6,0.3-0.9,0.2-0.9c0,0-0.2,0.2-0.4,0.6c-0.3-0.5-0.7-0.9-1.1-1.4c-1.9-2.5-4.4-5.4-7.4-8.7c-0.7-0.7-1.4-1.5-2.1-2.3v-0.1
			l15.4,14.5c-0.1,2.8,0,5.5,0.1,8.3C574.6,530.1,574,530.1,573.5,530.1z M587.3,501.1c-0.5,1.2-1,2.4-1.4,3.6
			c-0.3,0.9-0.6,1.7-0.8,2.6c-0.3,1.1-0.5,2.2-0.7,3.3c-0.6,3.3-0.9,6.6-0.8,9.7c0,1.9,0.3,3.7,0.5,5.4c0.2,1.3,0.4,2.5,0.7,3.7
			c-0.6,0.1-1.7,0.2-3.3,0.3c-0.3-1.4-0.5-2.9-0.7-4.3c-0.2-1.8-0.3-3.6-0.3-5.4c0-0.8-0.1-1.7-0.1-2.5c0.1-2,0.3-3.9,0.6-5.8
			c0.1-0.5,0.2-0.9,0.3-1.3c0.2-0.9,0.4-1.7,0.5-2.5c0.3-1.2,0.7-2.2,1.1-3.4c0.4-1.4,0.9-2.8,1.4-4.1L587.3,501.1z M562.3,492.8
			c-0.9,0.1-1.9,0.2-2.8,0.2c0-0.6,0-1.1,0-1.8l-0.2-2.9c-0.1-1.3-0.3-2.1-0.5-3.2c-0.5-2.9-1.2-5.9-1.9-9l1.8,0.2
			C560.2,481.8,561.4,487.3,562.3,492.8z M591.3,479.7c-0.6,0-1.2,0-1.8,0c-0.2,0-0.5,0-0.7,0c1-0.7,2-1.4,3-2
			c3.3-2.1,6.6-4.1,9.8-6.1C597.8,474,594.4,476.7,591.3,479.7z M605,455.9l0.1-0.1c5.3-5.3,12.1-10,19.6-13.4l-1.6-14.9L623,427
			c0,0,0-0.1,0-0.2l-5.9-55c1.4-1.6,2.9-3.2,4.4-4.9c-0.3,2.6-0.2,5.1-0.1,7.4c0.3,3.8,0.8,7.4,1.5,10.9c1.3,7,2.7,13.2,3.5,19.4
			c2,12.3,4.3,22.7,5.6,31.3c0,0.2,0.1,0.4,0.1,0.5c0,1.5,0,3,0.2,4.6s0.4,3.2,0.7,4.9c-4.1,0.4-8.3,1.5-12.3,2.9
			C615.6,450.9,610.3,453.2,605,455.9z"/>
		<path class="st11" d="M492.9,526.4L492.9,526.4c-0.6-0.2-1.9-0.7-3.3-1.3c0,1.6,0,3.1,0,4.5c0.8,0.4,1.5,0.8,2.2,1.3
			c0.1,0,0.1,0,0.2,0.1C491.6,529.4,493.3,528.3,492.9,526.4z"/>
		<path class="st11" d="M438.8,545l-0.1-0.1L438.8,545C438.9,545.3,438.9,545.1,438.8,545z"/>
		<path class="st11" d="M454.4,523.6L454.4,523.6L454.4,523.6C454.5,523.6,454.4,523.6,454.4,523.6z"/>
		<path class="st11" d="M465.8,454.5c0.1,0.6,1.1,0.5,1.1-0.1l-0.1-0.9c-0.4,0-0.7,0.1-1.1,0.1L465.8,454.5z"/>
		<path class="st11" d="M566.1,361.2c0.3,1.8,0.6,3.6,0.9,5.4c34.9-4.6,59.9-5.9,69.3-7.4c0-0.1-0.4-3.6-0.5-4.9c0-0.3,0-0.5,0-0.5
			c-0.2,0-0.5,0-0.7,0.1C625.1,354.5,601.1,358.4,566.1,361.2z"/>
		<path class="st11" d="M465.5,411.3c-0.1-0.1-0.3-0.1-0.4-0.2c0.2,0.4,0.3,0.8,0.5,1.1l0,0L465.5,411.3z"/>
		<path class="st11" d="M454.4,431.7l0.1,0.7l0.4-0.4C454.7,431.8,454.6,431.8,454.4,431.7z"/>
		<path class="st11" d="M462.6,454.8c0.1,1.3,1,2.4,2.2,2.9c0.6,0.3,1.2,0.4,1.9,0.3c0.7-0.1,1.4-0.4,1.9-0.8c1-0.7,1.6-1.9,1.5-3.2
			l-0.1-0.8l-1.1-10.5c3.2-1.8,5.2-5.2,4.8-9l-2.5-23.9c-0.4-3.7-3.1-6.7-6.6-7.8l-1.6-15.1c-0.2-2-2.1-3.4-4.1-3.2
			c-2.1,0.2-3.6,2-3.4,4l1.6,15.1c-3.2,1.8-5.2,5.2-4.8,9l1.9,17.9c0,0.1,0.1,0.2,0.1,0.4l0.1,1.5l2.5-2.5l0,0l0.4-0.4l-1.8-17.2
			c-0.2-2,0.6-3.8,2-5l0.1,1.4l0,0v-0.1l0,0c0-0.3,0-0.6,0-0.8c0.1-1.5,1.1-2.2,2.3-2.5c-0.5-0.4-1.1-0.7-1.7-1.1l1.9-1.7l-1.5-14.2
			c0-0.3,0.2-0.5,0.5-0.6c0.3,0,0.6,0.2,0.6,0.5l1.4,13.5l1.4-1.3c1.7,2.8,2.5,5.1,3,6.6c1.3,1,2.2,2.4,2.4,4.1l0.8,7.4
			c0.1,0.6,0.2,1.2,0.2,1.9l1,9l0.1,0.1l0,0l0.6,5.5c0.2,2-0.6,3.8-2,5.1l-0.2-1.7c-0.3,0.2-0.6,0.3-0.9,0.4c0.5,0.6,0.8,1,0.8,1
			s-0.7-0.3-2-0.8c-0.3,0-0.6,0.1-0.8,0c-0.1,0-0.1,0-0.2,0c1.5,1.8,2.1,3,2.1,2.9c0,0-0.7-0.4-2-1.1l0.1,0.7
			c-0.2,0-0.4,0.1-0.5,0.1c-0.2,0-0.4,0-0.5,0l-0.2-1.4c-0.2-0.1-0.4-0.2-0.6-0.3c-0.4-0.2-1-0.4-1.5-0.7c-0.2-0.1-0.4-0.2-0.6-0.2
			c0.3,0.4,0.5,0.7,0.6,1c2,1.8,2.8,3.2,2.7,3.2c0-0.1-1.2-0.7-3.8-1.6c-1.3-0.4-2.8-1-4.6-1.9c-0.2-0.1-0.5-0.3-0.7-0.4
			c1.1,2.4,3.2,4.3,5.8,5.1l1.1,10.4L462.6,454.8z M464.7,443.8c0.2,0,0.4,0,0.5,0c0.2,0,0.3-0.1,0.5-0.1l1,9.7l0.1,0.9
			c0.1,0.6-1,0.7-1.1,0.1l-0.1-0.9L464.7,443.8z"/>
		<path class="st11" d="M461,440.7c2.6,0.8,3.8,1.5,3.8,1.6c0.1,0-0.7-1.4-2.7-3.2c-0.1-0.3-0.3-0.6-0.6-1c-1-1.5-2.9-3.4-3.8-4.9
			c-0.4-1.3-0.7-2.5-0.7-2.6c-0.1-0.5-0.1-1-0.2-1.6l0,0l-2.5,2.5v0.1c0.1,0.1,0.3,0.2,0.4,0.3l-0.4,0.4l0.6,5.8
			c0.2,0.1,0.3,0.2,0.5,0.3c0.2,0.1,0.5,0.3,0.7,0.4C458.1,439.7,459.7,440.3,461,440.7z"/>
		<path class="st11" d="M458.5,406.7c0.2,0.2,0.4,0.3,0.6,0.5c0.5-0.2,1-0.1,1.4,0.3c2.7,2.7,3.2,10.1,3.8,13.6
			c0.8,5.5,1.2,11.1-0.7,16.4c-0.2,0.6-0.9,0.9-1.5,0.9h0.1c0.5,0.2,1.1,0.4,1.5,0.7c0.2,0.1,0.4,0.2,0.6,0.3
			c0.4,0.2,0.8,0.4,1.1,0.5c1.3,0.7,2,1.1,2,1.1s-0.6-1.2-2.1-2.9c-0.2-0.2-0.3-0.3-0.4-0.5c-0.1-0.1-0.2-0.2-0.3-0.3
			c0.6,0.3,1.2,0.5,1.7,0.7c1.2,0.5,2,0.8,2,0.8s-0.3-0.4-0.8-1c-0.4-0.5-1-1.2-1.8-2.1c-0.1-0.2-0.3-0.3-0.5-0.5
			c2,0.6,3.3,0.7,3.3,0.5c-0.1,0.2-1.2-1-2.8-3.2c0.1,0,0.2,0,0.2,0.1l1.9,0.5c0.2,0,0.4,0.1,0.5,0.1l0,0c0.5,0.1-0.7-1.8-2.8-4.4
			c1.5,0.5,2.4,0.7,2.4,0.7s-0.4-0.9-1.3-2.3l0,0c0.6,0.3,1.2,0.5,1.7,0.7l1.8,0.7l0,0l-0.1-0.1l-0.5-1.3c-0.1-0.2-0.2-0.3-0.3-0.5
			l0,0l-2.8-4.2c1.5,0.5,2.4,0.6,2.4,0.6s-0.9-1.2-2.2-3.3c0.2,0.1,0.5,0.2,0.7,0.3l1.8,0.7l-0.5-1.4c-0.1-0.2-0.2-0.3-0.3-0.5l0,0
			c-0.1-0.1-0.2-0.3-0.3-0.5c0,0-0.1-0.1-0.1-0.2c-0.8-1.1-1.7-2.5-2.8-4.2c1,0.3,1.6,0.4,1.6,0.3c-0.1,0.1-0.5-0.7-1.1-2.2
			c-0.2-0.3-0.3-0.7-0.5-1.1c0.2,0.1,0.3,0.1,0.4,0.2c0.5,0.2,0.9,0.3,1.2,0.4c0.5,0.1,0.7,0,0.8,0c-0.3,0.2-1-1.3-2.3-3.9
			c0.5,0.3,0.8,0.4,0.8,0.4s-0.2-0.8-0.5-2.1c-0.5-1.5-1.3-3.8-3-6.6l-1.4,1.3l-1,0.9l-1.9,1.7c0.6,0.4,1.1,0.7,1.7,1.1
			c0.3,0.2,0.6,0.4,0.9,0.6L458.5,406.7z"/>
		<path class="st11" d="M566.7,392.3l3.8,6.7l-2.5-10.6l-1.4-5.7l-0.1-0.3l-1-4.3l0,0c0-0.1,0-0.2-0.1-0.4l-1.5,0.3c0,0,0,0,0-0.1
			l-0.1,0.1l-2.1,0.4v1.3l-2.6,2.1c0.5,0.2,1.2,0.4,1.8,0.9c0.5,0.7-0.2-0.3-0.1-0.2c0,0,0.1,0,0.2,0.1c0.2,0.2,0.5,0.6,0.8,1
			l2.7,4.7L566.7,392.3z"/>
	</g>
</g>
<g id="Слой_2_1_">
	
		<radialGradient id="SVGID_6_" cx="477.95" cy="339.1" r="414.0272" gradientTransform="matrix(1 0 0 -1 0 680)" gradientUnits="userSpaceOnUse">
		<stop  offset="0" style="stop-color:#757474;stop-opacity:0.5"/>
		<stop  offset="0" style="stop-color:#777676;stop-opacity:0.6894"/>
		<stop  offset="0" style="stop-color:#7E7D7D;stop-opacity:0.7577"/>
		<stop  offset="0" style="stop-color:#898888;stop-opacity:0.8063"/>
		<stop  offset="0" style="stop-color:#9A9999;stop-opacity:0.8457"/>
		<stop  offset="0" style="stop-color:#B0AFAF;stop-opacity:0.8793"/>
		<stop  offset="0" style="stop-color:#CBCBCB;stop-opacity:0.9091"/>
		<stop  offset="0" style="stop-color:#EAEAEA;stop-opacity:0.9355"/>
		<stop  offset="0" style="stop-color:#FFFFFF;stop-opacity:0.4"/>
		<stop  offset="1" style="stop-color:#FFFFFF"/>
	</radialGradient>
	<rect x="0.9" y="1.4" class="st12" width="954.1" height="679"/>
</g>
</svg>
