<?xml version="1.0" encoding="utf-8"?>
<!-- Generator: Adobe Illustrator 24.0.1, SVG Export Plug-In . SVG Version: 6.00 Build 0)  -->
<svg version="1.1" id="Слой_1" xmlns="http://www.w3.org/2000/svg" xmlns:xlink="http://www.w3.org/1999/xlink" x="0px" y="0px"
	 viewBox="0 0 200 30" style="enable-background:new 0 0 200 30;" xml:space="preserve">
<style type="text/css">
	.st0{fill:#998675;}
	.st1{fill:#7DB43C;}
	.st2{fill:#998675;stroke:#000000;stroke-width:0.25;stroke-miterlimit:10;}
</style>
<g>
	<path class="st0" d="M21.8,20c0.5-0.3,1-0.7,1.5-1c2.4-1.5,4.9-2.9,7.6-3.8c-0.1,0-0.2,0-0.4,0c-1,0-1.9,0.1-2.9,0.2l-1.1,0.1
		c-0.3,0-0.6,0.1-0.9,0.1L22,16.5c-0.6,0.2-1.2,0.4-1.8,0.6c-0.2,0.1-0.5,0.2-0.7,0.3c-0.1,0-0.6,0.4-0.7,0.4
		c0.5,0.3,0.9,0.6,1.3,0.9C20.7,19.1,21.2,19.6,21.8,20z"/>
	<path class="st1" d="M22.4,20.6c0.9,0.8,1.7,1.6,2.4,2.5c0.1,0.1,0.1,0.2,0.2,0.2c0.6-0.5,1.2-1.1,1.8-1.7c0.6-0.7,1.3-1.4,1.9-2.1
		c0.6-0.8,1.2-1.6,1.7-2.4c0.2-0.3,0.4-0.6,0.6-1c-0.1,0-0.3,0.1-0.4,0.1C27.6,17.2,24.9,18.9,22.4,20.6z"/>
	<path class="st0" d="M29,20.2c-1.1,1.3-2.2,2.6-3.5,3.7c0.4,0.5,0.9,1,1.3,1.6c2.7-2.2,4.6-5.4,4.9-9.1C30.9,17.7,30,19,29,20.2z"
		/>
	<path class="st0" d="M23.9,23c-1.3-1.4-2.7-2.7-4.2-3.8c-1.6-1.1-3.3-2-5.2-2.6c-1-0.4-2.1-0.6-3.2-0.9v0c-0.1,0-0.2,0-0.3,0v0
		c-0.3-0.1-0.6-0.1-0.8-0.1c-0.5-0.1-1.1-0.2-1.6-0.2v0c0,0,0,0,0,0c-0.1,0-0.1,0-0.2,0v0c-0.9-0.1-1.7-0.2-2.6-0.1
		c-0.1,0-0.2,0-0.2,0c0.7,0.2,1.3,0.4,2,0.6c0.9,0.3,1.9,0.6,2.8,1c3.4,1.3,6.6,3.2,9.4,5.4c1.4,1.1,2.7,2.3,3.9,3.5
		c0.4,0.4,0.7,0.7,1.1,1.1c0.6-0.3,1.1-0.6,1.6-1C25.5,24.9,24.7,23.9,23.9,23z"/>
	<path class="st1" d="M22.6,25.8c-1.2-1.2-2.5-2.3-3.9-3.4c-1.4-1-2.9-2-4.4-2.9c-1.5-0.9-3.2-1.6-4.8-2.2C8.7,17,7.8,16.8,7,16.5
		c-0.6-0.2-1.1-0.4-1.7-0.6c0,0,0,0,0,0.1c1.2,0.8,2.4,1.5,3.6,2.3c2.6,1.8,4.8,3.9,7,6.2c1,1.1,2.1,2.1,3.1,3.2
		c0.2,0.2,0.4,0.4,0.5,0.6c1.5-0.1,3-0.5,4.3-1.1C23.5,26.7,23,26.3,22.6,25.8z"/>
	<path class="st0" d="M7.2,20.1c-0.5-0.6-1-1.1-1.5-1.7c0.7,2.8,2.3,5.3,4.6,7.1c0.9,0.7,1.8,1.3,2.9,1.7c-1.1-1.6-2.2-3.1-3.5-4.5
		C8.8,21.9,8,21,7.2,20.1z"/>
	<path class="st0" d="M14.9,24.5c-1.1-1.1-2.2-2.2-3.3-3.2c-1.1-1-2.3-1.9-3.6-2.7c-0.8-0.6-1.7-1.1-2.6-1.6c0,0,0,0,0,0
		c0.9,0.9,1.8,1.9,2.6,2.9c0.8,0.9,1.7,1.8,2.5,2.7c0.8,0.9,1.5,1.8,2.2,2.7c0.6,0.8,1.1,1.6,1.6,2.4c1.3,0.4,2.7,0.7,4.1,0.7
		c0,0,0.1,0,0.1,0c-0.2-0.2-0.4-0.5-0.6-0.7C17,26.6,15.9,25.6,14.9,24.5z"/>
	<g>
		<path class="st2" d="M17.9,1.7C17.9,1.7,17.9,1.7,17.9,1.7c0.2,0,0.4,0,0.6,0c0,0,0,0,0,0c0,0,0,0,0,0c0,0,0,0,0,0
			C18.3,1.6,18.1,1.6,17.9,1.7C17.9,1.6,17.8,1.7,17.9,1.7C17.8,1.7,17.9,1.7,17.9,1.7z"/>
		<path class="st2" d="M13,2.9C13,2.9,13,2.9,13,2.9c0.2-0.1,0.4-0.2,0.6-0.3c0,0,0,0,0,0c0,0,0,0,0,0C13.4,2.7,13.2,2.8,13,2.9
			C13,2.9,13,2.9,13,2.9C13,2.9,13,2.9,13,2.9z"/>
		<path class="st2" d="M10.8,4.2C10.8,4.2,10.8,4.2,10.8,4.2C11,4.1,11.2,4,11.3,3.8c0,0,0,0,0,0c0,0,0,0,0,0
			C11.1,3.9,11,4,10.8,4.2C10.8,4.2,10.8,4.2,10.8,4.2C10.8,4.2,10.8,4.2,10.8,4.2z"/>
		<path class="st2" d="M9.8,5C9.8,5,9.8,5,9.8,5c0.2-0.1,0.3-0.3,0.5-0.4c0,0,0,0,0,0c0,0,0,0,0,0C10.1,4.7,10,4.8,9.8,5
			C9.8,5,9.8,5,9.8,5C9.8,5,9.8,5,9.8,5z"/>
		<path class="st2" d="M15.4,2.1C15.4,2.1,15.4,2.1,15.4,2.1C15.6,2,15.8,2,16,1.9c0,0,0,0,0,0c0,0,0,0,0,0
			C15.8,1.9,15.6,2,15.4,2.1C15.4,2,15.3,2,15.4,2.1C15.3,2.1,15.4,2.1,15.4,2.1z"/>
		<path class="st2" d="M16.6,1.8C16.6,1.8,16.6,1.8,16.6,1.8c0.2,0,0.4-0.1,0.6-0.1c0,0,0,0,0,0c0,0,0,0,0,0
			C17,1.7,16.8,1.7,16.6,1.8C16.6,1.8,16.6,1.8,16.6,1.8C16.6,1.8,16.6,1.8,16.6,1.8z"/>
		<path class="st2" d="M11.9,3.5C11.9,3.5,11.9,3.5,11.9,3.5c0.2-0.1,0.4-0.2,0.6-0.3c0,0,0,0,0,0c0,0,0,0,0,0
			C12.2,3.3,12,3.4,11.9,3.5C11.8,3.5,11.8,3.5,11.9,3.5C11.8,3.5,11.9,3.5,11.9,3.5z"/>
		<path class="st2" d="M8.9,5.9C8.9,5.9,8.9,5.9,8.9,5.9c0.2-0.2,0.3-0.3,0.5-0.5c0,0,0,0,0,0c0,0,0,0,0,0C9.2,5.5,9,5.7,8.9,5.9
			C8.9,5.9,8.9,5.9,8.9,5.9C8.9,5.9,8.9,5.9,8.9,5.9z"/>
		<path class="st2" d="M5.8,11.4C5.8,11.4,5.8,11.4,5.8,11.4C5.9,11.4,5.9,11.4,5.8,11.4c0.1-0.2,0.2-0.4,0.2-0.6c0,0,0,0,0,0
			c0,0,0,0,0,0C5.9,10.9,5.9,11.1,5.8,11.4C5.8,11.3,5.8,11.4,5.8,11.4z"/>
		<path class="st2" d="M5.6,12.6C5.6,12.6,5.6,12.6,5.6,12.6C5.6,12.6,5.6,12.6,5.6,12.6c0.1-0.2,0.1-0.4,0.2-0.6c0,0,0,0,0,0
			c0,0,0,0,0,0C5.6,12.2,5.6,12.4,5.6,12.6C5.5,12.6,5.6,12.6,5.6,12.6z"/>
		<path class="st2" d="M6.2,10.2C6.2,10.2,6.2,10.2,6.2,10.2C6.3,10.2,6.3,10.2,6.2,10.2c0.1-0.2,0.2-0.4,0.3-0.6c0,0,0,0,0,0
			c0,0,0,0,0,0C6.4,9.7,6.3,9.9,6.2,10.2C6.2,10.1,6.2,10.2,6.2,10.2z"/>
		<path class="st2" d="M8.1,6.9C8.1,6.9,8.1,6.9,8.1,6.9c0.1-0.2,0.3-0.3,0.4-0.5c0,0,0,0,0,0c0,0,0,0,0,0C8.3,6.5,8.2,6.7,8.1,6.9
			C8.1,6.8,8.1,6.8,8.1,6.9C8.1,6.9,8.1,6.9,8.1,6.9z"/>
		<path class="st2" d="M7.4,7.9C7.4,7.9,7.4,7.9,7.4,7.9C7.4,7.9,7.4,7.9,7.4,7.9c0.1-0.2,0.3-0.4,0.4-0.5c0,0,0,0,0,0c0,0,0,0,0,0
			C7.6,7.5,7.5,7.7,7.4,7.9C7.3,7.9,7.3,7.9,7.4,7.9z"/>
		<path class="st2" d="M6.7,9C6.7,9,6.7,9,6.7,9C6.8,9,6.8,9,6.7,9C6.9,8.8,7,8.6,7.1,8.4c0,0,0,0,0,0c0,0,0,0,0,0
			C6.9,8.6,6.8,8.8,6.7,9C6.7,9,6.7,9,6.7,9z"/>
		<path class="st2" d="M24,2.9c0.2,0.1,0.4,0.2,0.6,0.3c0,0,0,0,0,0c0,0,0,0,0,0c0,0,0,0,0,0C24.4,3,24.2,2.9,24,2.9
			C24,2.8,24,2.8,24,2.9C24,2.8,24,2.9,24,2.9z"/>
		<path class="st2" d="M30.6,9.4C30.6,9.4,30.6,9.4,30.6,9.4C30.6,9.4,30.6,9.4,30.6,9.4C30.6,9.4,30.6,9.4,30.6,9.4
			c0-0.2-0.1-0.4-0.2-0.6c0,0,0,0,0,0c0,0,0,0,0,0C30.4,9,30.5,9.2,30.6,9.4z"/>
		<path class="st2" d="M30,8.3C30,8.3,30,8.3,30,8.3C30,8.3,30,8.3,30,8.3C30.1,8.3,30.1,8.3,30,8.3c-0.1-0.2-0.2-0.4-0.3-0.6
			c0,0,0,0,0,0c0,0,0,0,0,0C29.8,7.9,29.9,8.1,30,8.3z"/>
		<path class="st2" d="M29.3,7.2C29.3,7.2,29.3,7.2,29.3,7.2C29.4,7.2,29.4,7.2,29.3,7.2C29.4,7.2,29.4,7.2,29.3,7.2
			C29.2,7,29.1,6.9,29,6.7c0,0,0,0,0,0c0,0,0,0,0,0C29.1,6.9,29.2,7.1,29.3,7.2z"/>
		<path class="st2" d="M31.1,10.6C31.1,10.6,31.1,10.6,31.1,10.6C31.1,10.6,31.1,10.6,31.1,10.6C31.1,10.6,31.1,10.6,31.1,10.6
			c0-0.2-0.1-0.4-0.2-0.6c0,0,0,0,0,0c0,0,0,0,0,0C30.9,10.2,31,10.4,31.1,10.6z"/>
		<path class="st2" d="M31.8,14.3C31.8,14.3,31.8,14.3,31.8,14.3C31.8,14.3,31.8,14.3,31.8,14.3c0-0.2,0-0.5,0-0.7c0,0,0,0,0,0
			c0,0,0,0,0,0C31.7,13.9,31.7,14.1,31.8,14.3C31.7,14.3,31.8,14.3,31.8,14.3z"/>
		<path class="st2" d="M28.5,6.2C28.6,6.2,28.6,6.2,28.5,6.2C28.6,6.2,28.6,6.2,28.5,6.2C28.6,6.2,28.6,6.2,28.5,6.2
			c-0.1-0.2-0.2-0.4-0.4-0.5c0,0,0,0,0,0c0,0,0,0,0,0C28.3,5.9,28.4,6.1,28.5,6.2z"/>
		<path class="st2" d="M31.7,13.1C31.7,13.1,31.7,13.1,31.7,13.1C31.7,13.1,31.7,13.1,31.7,13.1c0-0.2,0-0.5-0.1-0.7c0,0,0,0,0,0
			c0,0,0,0,0,0C31.6,12.6,31.6,12.8,31.7,13.1C31.6,13.1,31.6,13.1,31.7,13.1z"/>
		<path class="st2" d="M31.4,11.8C31.4,11.8,31.4,11.8,31.4,11.8C31.4,11.8,31.4,11.8,31.4,11.8C31.5,11.8,31.5,11.8,31.4,11.8
			c0-0.2-0.1-0.4-0.1-0.6c0,0,0,0,0,0c0,0,0,0,0,0C31.3,11.4,31.4,11.6,31.4,11.8z"/>
		<path class="st2" d="M20.4,1.8c0.2,0,0.4,0.1,0.6,0.1c0,0,0,0,0,0c0,0,0,0,0,0c0,0,0,0,0,0C20.8,1.8,20.6,1.8,20.4,1.8
			C20.4,1.8,20.4,1.8,20.4,1.8C20.4,1.8,20.4,1.8,20.4,1.8z"/>
		<path class="st2" d="M27.7,5.3C27.7,5.3,27.7,5.3,27.7,5.3C27.7,5.3,27.7,5.3,27.7,5.3C27.7,5.3,27.7,5.3,27.7,5.3
			c-0.1-0.2-0.3-0.3-0.4-0.5c0,0,0,0,0,0c0,0,0,0,0,0C27.4,5,27.5,5.2,27.7,5.3z"/>
		<path class="st2" d="M19.1,1.7c0.2,0,0.4,0,0.6,0c0,0,0,0,0,0c0,0,0,0,0,0c0,0,0,0,0,0C19.6,1.7,19.4,1.7,19.1,1.7
			C19.1,1.6,19.1,1.7,19.1,1.7C19.1,1.7,19.1,1.7,19.1,1.7z"/>
		<path class="st2" d="M22.9,2.4c0.2,0.1,0.4,0.1,0.6,0.2c0,0,0,0,0,0c0,0,0,0,0,0c0,0,0,0,0,0C23.3,2.5,23.1,2.4,22.9,2.4
			C22.9,2.3,22.8,2.3,22.9,2.4C22.8,2.4,22.8,2.4,22.9,2.4z"/>
		<path class="st2" d="M21.6,2c0.2,0,0.4,0.1,0.6,0.2c0,0,0,0,0,0c0,0,0,0,0,0c0,0,0,0,0,0C22.1,2.1,21.9,2,21.6,2
			C21.6,2,21.6,2,21.6,2C21.6,2,21.6,2,21.6,2z"/>
		<path class="st2" d="M26.7,4.5C26.7,4.5,26.7,4.5,26.7,4.5C26.7,4.5,26.8,4.5,26.7,4.5C26.8,4.5,26.8,4.5,26.7,4.5
			c-0.1-0.2-0.3-0.3-0.5-0.4c0,0,0,0,0,0c0,0,0,0,0,0C26.4,4.2,26.6,4.4,26.7,4.5z"/>
		<path class="st2" d="M25.1,3.4c0.2,0.1,0.4,0.2,0.5,0.3c0,0,0,0,0,0c0,0,0,0,0,0c0,0,0,0,0,0C25.5,3.6,25.4,3.5,25.1,3.4
			C25.2,3.4,25.1,3.4,25.1,3.4C25.1,3.4,25.1,3.4,25.1,3.4z"/>
		<path class="st2" d="M5.4,13.9C5.4,13.9,5.4,13.9,5.4,13.9C5.4,13.9,5.4,13.8,5.4,13.9c0-0.2,0.1-0.4,0.1-0.7c0,0,0,0,0,0
			c0,0,0,0,0,0C5.4,13.4,5.4,13.6,5.4,13.9C5.4,13.8,5.4,13.9,5.4,13.9z"/>
		<path class="st2" d="M14.2,2.4C14.2,2.4,14.2,2.4,14.2,2.4c0.2-0.1,0.4-0.1,0.6-0.2c0,0,0,0,0,0c0,0,0,0,0,0
			C14.6,2.3,14.3,2.3,14.2,2.4C14.1,2.4,14.1,2.4,14.2,2.4C14.1,2.4,14.1,2.4,14.2,2.4z"/>
		<path class="st2" d="M31.8,15.6C31.8,15.6,31.8,15.6,31.8,15.6C31.8,15.6,31.8,15.6,31.8,15.6C31.8,15.6,31.7,15.6,31.8,15.6
			c0-0.2,0-0.4,0-0.6c0,0,0,0,0,0c0,0,0,0,0,0c0,0,0,0,0,0C31.8,15.2,31.8,15.4,31.8,15.6z"/>
		<path class="st2" d="M31.8,14.9C31.8,14.9,31.8,14.9,31.8,14.9C31.8,14.9,31.8,14.9,31.8,14.9c0,0.2,0,0.4,0,0.7c0,0,0,0,0,0
			c0,0,0,0,0,0c0,0,0,0,0,0C31.8,15.4,31.8,15.2,31.8,14.9C31.8,14.9,31.8,14.9,31.8,14.9z"/>
	</g>
</g>
<path class="st1" d="M20.5,7.4c0.2,0.2,0.6,0.2,0.8,0L21.7,7l5.6,5.6L26.8,13c-0.2,0.2-0.2,0.6,0,0.8c0.2,0.2,0.6,0.2,0.8,0
	c0.1-0.1,6-6,5.6-5.6c0.2-0.2,0.2-0.6,0-0.8s-0.6-0.2-0.8,0l-0.4,0.4l-5.6-5.6l0.4-0.4c0.2-0.2,0.2-0.6,0-0.8
	c-0.2-0.2-0.6-0.2-0.8,0c-0.1,0.1-6,6-5.6,5.6C20.2,6.9,20.2,7.2,20.5,7.4L20.5,7.4z M15.8,16.9c-0.2,0.2-0.3,0.5-0.3,0.8
	c0,0.6,0.5,1.1,1.1,1.1c0.3,0,0.6-0.1,0.8-0.3l7.1-7.1l-1.6-1.6L15.8,16.9z"/>
<g>
	<g>
		<path class="st0" d="M46.5,21.6h-8.8V8.4h8.8v1.6l-0.7,1.7h-4v1.5h4v3.3h-4v1.8h4.7V21.6z"/>
		<path class="st0" d="M49.2,13.7h9.3v2.6h-9.3V13.7z"/>
		<path class="st0" d="M65.6,21.6h-4.1V8.4h4.1V21.6z"/>
		<path class="st0" d="M73.3,21.6h-4.9v-3.3h2.4V8.4h4.1V20c0,0.5-0.2,0.9-0.5,1.2C74.1,21.4,73.7,21.6,73.3,21.6z"/>
		<path class="st0" d="M79.8,8.4h6.8L88.4,20v1.6h-4.1l-0.2-2.7h-1.8L82,21.6h-4.1V20L79.8,8.4z M82.6,15.6h1.2l-0.4-3.9h-0.4
			L82.6,15.6z"/>
		<path class="st0" d="M91.5,8.4h8.2c0.5,0,0.9,0.1,1.2,0.5s0.5,0.7,0.5,1.2v5.2c0,0.3-0.1,0.6-0.3,0.9c-0.2,0.3-0.5,0.5-0.8,0.6
			l1.3,3.2v1.6h-4l-1.1-4.1h-0.8v4.1h-4.1L91.5,8.4L91.5,8.4z M97.2,11.7h-1.6v2.5h1.6V11.7z"/>
		<path class="st0" d="M106,8.4h6.8l1.8,11.5v1.6h-4.1l-0.2-2.7h-1.8l-0.3,2.7h-4.1V20L106,8.4z M108.9,15.6h1.2l-0.4-3.9h-0.4
			L108.9,15.6z"/>
	</g>
	<path class="st0" d="M123.8,11.7h-2.5V8.4h9.2v1.6l-0.7,1.7h-2v9.9h-4.1L123.8,11.7L123.8,11.7z"/>
	<path class="st0" d="M133.9,8.4h6.9l1.9,11.5v1.6h-4.1l-0.2-2.7h-1.8l-0.3,2.7H132V20L133.9,8.4z M136.7,15.6h1.2l-0.4-3.9h-0.4
		L136.7,15.6z"/>
	<path class="st0" d="M151.9,14.5h0.3l-0.6-4.5V8.4h3.8v13.2h-4.4l-1.9-6.1h-0.3l0.5,4.4v1.6h-3.8V8.4h4.4L151.9,14.5z"/>
	<path class="st0" d="M158.9,21.6V8.4h4.1v9.9h4.1v3.3L158.9,21.6L158.9,21.6z"/>
	<path class="st0" d="M184.7,21.6l-2.1-12.1V8.4h4.1l0.9,9.9h0.5l0.9-9.9h4.1v1.1l-2.1,12.1H184.7z"/>
	<path class="st0" d="M178.1,21.6h-6.6c-0.5,0-0.9-0.2-1.2-0.5c-0.3-0.3-0.5-0.7-0.5-1.2v-9.9c0-0.5,0.1-0.9,0.5-1.2
		c0.3-0.3,0.7-0.5,1.2-0.5h6.6c0.5,0,0.9,0.1,1.2,0.5s0.5,0.7,0.5,1.2V20c0,0.5-0.1,0.9-0.5,1.2C179,21.4,178.6,21.6,178.1,21.6z
		 M175.7,11.7H174v6.6h1.6V11.7z"/>
</g>
<g>
	<path class="st1" d="M133.5,27.4c0,1-0.5,1.8-1.6,1.8c-0.5,0-0.9-0.2-1.2-0.4l0.3-0.6c0.3,0.2,0.5,0.3,0.9,0.3
		c0.4,0,0.7-0.3,0.8-0.7h0.2c-0.1,0.5-0.5,0.9-1,0.9c-0.3,0-0.6-0.1-0.8-0.2l-0.1,0.3c0.2,0.1,0.5,0.2,0.9,0.2
		c0.9,0,1.3-0.6,1.4-1.4h-1.7v-0.7h1.6c-0.1-0.7-0.5-1.2-1.3-1.2c-0.4,0-0.6,0.1-0.8,0.2l0.1,0.3c0.2-0.1,0.4-0.2,0.7-0.2
		c0.4,0,0.7,0.3,0.9,0.7h-0.2c-0.1-0.3-0.4-0.5-0.7-0.5c-0.4,0-0.6,0.2-0.8,0.3l-0.3-0.6c0.3-0.2,0.6-0.4,1.1-0.4
		c0.9,0,1.5,0.7,1.5,1.7h-1.7v0.3H133.5z"/>
	<path class="st1" d="M137,25.5v3.7h-0.7v-3h-0.8V26h1v3h0.3v-3.2h-1.6v2c0,1-0.5,1.5-1.3,1.5v-0.7c0.3-0.1,0.6-0.1,0.6-0.9V26h0.2
		v1.6c0,0.8-0.3,1-0.6,1v0.3c0.6-0.1,0.9-0.5,0.9-1.3v-2.2H137z"/>
	<path class="st1" d="M140.2,28.5v0.7H138v-3.7h2.2v0.7h-1.5v0.4h-0.2V26h1.5v-0.3h-1.8v3.2h1.9v-0.3h-1.5v-1.8h1.7v0.7H139v-0.2
		h0.9v-0.3h-1.2v1.4H140.2z"/>
	<path class="st1" d="M144,29.1h-0.9l-1-1.1v-0.3l1.1,1.3h0.4l-1.5-1.7l1.3-1.5h-0.4l-1.3,1.5v2h-0.7v-3.7h0.7v0.9l-0.2,0.2v-1h-0.3
		v3.2h0.3v-1.9l1.4-1.6h0.9l-1.5,1.8L144,29.1z"/>
	<path class="st1" d="M147,25.5v0.7h-0.6V26h0.4v-0.3H146v3.5h-0.7v-3.5h-0.7V26h0.4v0.2h-0.6v-0.7h1.2v3.5h0.3v-3.5H147z"/>
	<path class="st1" d="M150.2,26.7c0,0.7-0.4,1.2-1.2,1.2h-0.3v-0.2h0.3c0.6,0,1-0.4,1-1c0-0.3-0.1-1-1.1-1h-1.1v3.2h0.3v-1.7h0.8
		c0.4,0,0.5-0.2,0.5-0.5c0-0.3-0.2-0.5-0.5-0.5h-0.6v0.8h-0.2v-1h0.8c0.4,0,0.7,0.3,0.7,0.7c0,0.5-0.3,0.7-0.8,0.7h-0.6v1.7h-0.7
		v-3.7h1.3C149.8,25.5,150.2,26,150.2,26.7z"/>
	<path class="st1" d="M154,27.3c0,1-0.6,1.9-1.6,1.9s-1.6-0.9-1.6-1.9s0.6-1.9,1.6-1.9c0,0,0.1,0,0.1,0v0.5c0.7,0.1,1,0.8,1,1.4
		c0,0.7-0.3,1.4-1.1,1.4s-1.1-0.7-1.1-1.4c0-0.5,0.2-1.1,0.7-1.3v0.2c-0.3,0.2-0.5,0.7-0.5,1.1c0,0.5,0.2,1.2,0.9,1.2
		c0.7,0,0.9-0.7,0.9-1.2s-0.2-1.2-0.9-1.2c0,0-0.1,0-0.1,0v-0.5c-0.9,0.1-1.3,0.9-1.3,1.7c0,0.8,0.4,1.7,1.4,1.7s1.4-0.8,1.4-1.7
		c0-0.7-0.3-1.4-1-1.6v-0.2C153.6,25.7,154,26.4,154,27.3z"/>
	<path class="st1" d="M157.6,25.5v3.7h-0.7v-1.6H155v1.4h0.3v-1.1h0.2v1.3h-0.7v-1.8h2.3v1.6h0.3v-3.2h-0.3v1.4h-2.3v-1.6h0.7v1.1
		h-0.2v-0.9H155v1.2h1.9v-1.4H157.6z"/>
	<path class="st1" d="M165,25.5v3.7h-0.7v-2.2l-0.8,1.4h-0.2l1.2-2.1v2.8h0.3v-3.2h-0.4l-1.5,2.6l-0.8-1.4v2.2h-0.7v-3.7h0.7L163,27
		l-0.1,0.2l-0.9-1.6h-0.4v3.2h0.3v-2.8l1,1.7l1.4-2.4H165z"/>
	<path class="st1" d="M169,29.1h-0.8l-0.3-0.9h-1.8l-0.3,0.7h0.3l0.2-0.4h0.2l-0.2,0.6h-0.7L166,28h2l0.3,0.9h0.3l-1.2-3.2h-0.4
		l-0.7,1.9h1.2l-0.4-1l-0.3,0.7h-0.2l0.5-1.3l0.7,1.8h-1.8l0.8-2.3h0.7L169,29.1z"/>
	<path class="st1" d="M172.5,25.5v3.7h-0.7v-1.8L172,27v2h0.3v-3l-1.9,3.2h-0.7v-3.7h0.7v2.4l1.4-2.4h0.2l-1.8,3.1v-2.9h-0.3v3.2
		h0.4l2-3.5H172.5z M170.2,25c0-0.1-0.1-0.1-0.1-0.2l0.6-0.2c0.1,0.1,0.2,0.2,0.3,0.2c0.1,0,0.2-0.1,0.3-0.2l0.6,0.2
		c-0.2,0.4-0.5,0.6-0.9,0.6c-0.2,0-0.5-0.1-0.6-0.2l0.3-0.1c0.1,0.1,0.2,0.1,0.4,0.1c0.2,0,0.4-0.1,0.6-0.2l-0.2-0.1
		c-0.1,0.1-0.2,0.1-0.4,0.1c-0.1,0-0.3,0-0.4-0.1L170.2,25z"/>
	<path class="st1" d="M176,30v-0.9h-2.2V30h-0.7v-1.5h0.3c0.2-0.2,0.5-0.6,0.5-1.5v-1h1.9v2h0.3v-2.3h-1.7v-0.2h1.9v2.7h-0.7v-2
		h-1.5V27c0,0.9-0.3,1.3-0.5,1.6l-0.1,0.1h-0.2v1.1h0.3v-0.9h2.6v0.9h0.3v-1.1h-2.6l0.2-0.3c0.1-0.2,0.3-0.6,0.3-1.3v-0.6h0.2V27
		c0,0.7-0.2,1.2-0.3,1.4h2.5V30H176z"/>
	<path class="st1" d="M180.5,27.3c0,1-0.6,1.9-1.6,1.9s-1.6-0.9-1.6-1.9s0.6-1.9,1.6-1.9c0,0,0.1,0,0.1,0v0.5c0.7,0.1,1,0.8,1,1.4
		c0,0.7-0.3,1.4-1.1,1.4s-1.1-0.7-1.1-1.4c0-0.5,0.2-1.1,0.7-1.3v0.2c-0.3,0.2-0.5,0.7-0.5,1.1c0,0.5,0.2,1.2,0.9,1.2
		c0.7,0,0.9-0.7,0.9-1.2s-0.2-1.2-0.9-1.2c0,0-0.1,0-0.1,0v-0.5c-0.9,0.1-1.3,0.9-1.3,1.7c0,0.8,0.4,1.7,1.4,1.7s1.4-0.8,1.4-1.7
		c0-0.7-0.3-1.4-1-1.6v-0.2C180.1,25.7,180.5,26.4,180.5,27.3z"/>
	<path class="st1" d="M184.1,25.5v3.7h-0.7v-1.6h-1.9v1.4h0.3v-1.1h0.2v1.3h-0.7v-1.8h2.3v1.6h0.3v-3.2h-0.3v1.4h-2.3v-1.6h0.7v1.1
		h-0.2v-0.9h-0.3v1.2h1.9v-1.4H184.1z"/>
	<path class="st1" d="M185.5,26.7v-1h-0.3v1c0,0.7,0.6,1,1.1,1c0.6,0,1.1-0.1,1.4-0.2v1.6h-0.7v-1c0.1,0,0.1,0,0.2,0v0.8h0.3v-1.2
		c-0.3,0-0.6,0.1-1.2,0.1c-0.7,0-1.3-0.4-1.3-1.2v-1.2h0.7v1.2c0,0.3,0.2,0.5,0.6,0.5c0.5,0,0.9-0.1,1.2-0.2v-1.4h-0.3v1.1
		c-0.1,0-0.1,0-0.2,0v-1.4h0.7v1.7c-0.3,0.1-0.8,0.2-1.4,0.2C185.8,27.4,185.5,27,185.5,26.7z"/>
	<path class="st1" d="M191.7,29.1h-0.8l-0.3-0.9h-1.8l-0.3,0.7h0.3l0.2-0.4h0.2l-0.2,0.6h-0.7l0.4-1.1h2l0.3,0.9h0.3l-1.2-3.2h-0.4
		l-0.7,1.9h1.2l-0.4-1l-0.3,0.7h-0.2l0.5-1.3l0.7,1.8h-1.8l0.8-2.3h0.7L191.7,29.1z"/>
</g>
</svg>
