<?xml version="1.0" encoding="utf-8"?>
<!-- Generator: Adobe Illustrator 24.0.1, SVG Export Plug-In . SVG Version: 6.00 Build 0)  -->
<svg version="1.1" id="Слой_1" xmlns="http://www.w3.org/2000/svg" xmlns:xlink="http://www.w3.org/1999/xlink" x="0px" y="0px"
	 viewBox="0 0 129 40" style="enable-background:new 0 0 129 40;" xml:space="preserve">
<style type="text/css">
	.st0{fill-rule:evenodd;clip-rule:evenodd;fill:#0061D9;}
</style>
<path class="st0" d="M129,20l0,2l0,0.8l0,0.6l0,0.5l0,0.5l0,0.4l0,0.4l0,0.4l0,0.3l0,0.3l0,0.3l0,0.3l0,0.3l0,0.3l0,0.3l0,0.3l0,0.2
	l0,0.2l0,0.2l0,0.2l0,0.2l0,0.2l0,0.2l0,0.2l0,0.2l0,0.2l0,0.2l0,0.2l0,0.2l0,0.2l0,0.2l0,0.2l0,0.2l0,0.2l0,0.2l0,0.2l0,0.2l0,0.2
	l0,0.2l0,0.1l0,0.1l0,0.1l0,0.1l0,0.1l0,0.1l0,0.1l0,0.1l0,0.1l-0.1,0.1l-0.1,0.1l-0.1,0.1l-0.1,0.1l-0.1,0.1l-0.1,0.1l-0.1,0.1
	l-0.1,0.1l-0.1,0.1l-0.1,0.1l-0.1,0.1l-0.1,0.1l-0.1,0.1l-0.1,0.1l-0.1,0.1l-0.1,0.1l-0.1,0.1l-0.1,0.1l-0.1,0.1l-0.1,0.1l-0.1,0.1
	l-0.1,0.1l-0.1,0.1l-0.1,0.1l-0.1,0.1l-0.1,0.1l-0.1,0.1l-0.1,0.1l-0.1,0.1l-0.1,0.1l-0.1,0.1l-0.1,0.1l-0.1,0.1l-0.1,0.1l-0.1,0.1
	l-0.1,0.1l-0.1,0.1l-0.1,0.1l-0.1,0.1l-0.1,0.1l-0.1,0.1l-0.1,0.1l-0.1,0.1l-0.1,0.1l-0.1,0.1l-0.1,0.1l-0.1,0.1l-0.1,0.1l-0.1,0.1
	l-0.1,0.1l-0.1,0.1l-0.1,0.1l-0.1,0.1l-0.1,0.1l-0.1,0.1l-0.1,0.1l-0.1,0.1l-0.1,0.1l-0.1,0.1l-0.1,0.1l-0.1,0l-0.1,0l-0.1,0l-0.1,0
	l-0.1,0l-0.1,0l-0.1,0l-0.1,0l-0.1,0l-0.2,0l-0.2,0l-0.2,0l-0.2,0l-0.2,0l-0.2,0l-0.2,0l-0.2,0l-0.2,0l-0.2,0l-0.2,0l-0.2,0l-0.2,0
	l-0.2,0l-0.2,0l-0.2,0l-0.2,0l-0.2,0l-0.2,0l-0.2,0l-0.2,0l-0.2,0l-0.2,0l-0.2,0l-0.3,0l-0.3,0l-0.3,0l-0.3,0l-0.3,0l-0.3,0l-0.3,0
	l-0.3,0l-0.4,0l-0.4,0l-0.4,0l-0.5,0l-0.5,0l-0.6,0l-0.8,0L99,40l-2.5,0l-0.9,0L95,40l-0.6,0l-0.5,0l-0.4,0l-0.4,0l-0.4,0l-0.4,0
	L92,40l-0.3,0l-0.3,0l-0.3,0l-0.3,0l-0.3,0l-0.3,0l-0.2,0l-0.2,0l-0.2,0l-0.2,0l-0.2,0l-0.2,0l-0.2,0l-0.2,0l-0.2,0l-0.2,0l-0.2,0
	l-0.2,0l-0.2,0l-0.2,0l-0.2,0l-0.2,0l-0.2,0l-0.2,0l-0.2,0l-0.2,0l-0.2,0l-0.2,0l-0.2,0l-0.2,0l-0.2,0l-0.1,0l-0.1,0l-0.1,0L85,39
	l-0.1,0l-0.1,0l-0.1,0l-0.1,0l-0.1-0.1l-0.1-0.1l-0.1-0.1l-0.1-0.1l-0.1-0.1l-0.1-0.1l-0.1-0.1l-0.1-0.1l-0.1-0.1l-0.1-0.1l-0.1-0.1
	L83,38.1L82.9,38L82.8,38l-0.1-0.1l-0.1-0.1l-0.1-0.1l-0.1-0.1l-0.1-0.1l-0.1-0.1L82,37.5L82,37.4l-0.1-0.1l-0.1-0.1l-0.1-0.1
	l-0.1-0.1L81.5,37L81.4,37l-0.1-0.1l-0.1-0.1l-0.1-0.1l-0.1-0.1L81,36.5l-0.1-0.1l-0.1-0.1l-0.1-0.1l-0.1-0.1l-0.1-0.1L80.5,36
	l-0.1-0.1l-0.1-0.1l-0.1-0.1l-0.1-0.1l-0.1-0.1l-0.1-0.1L80,35.3l-0.1-0.1L79.9,35l-0.1-0.1l-0.1-0.1l-0.1-0.1l-0.1-0.1l-0.1-0.1
	l-0.1-0.1l-0.1-0.1l-0.1-0.1L79.4,34l-0.1-0.1l-0.1-0.1l-0.1-0.1l0-0.1l0-0.1l0-0.1l0-0.1l0-0.1l0-0.1l0-0.1l0-0.1l0-0.1l0-0.2
	l0-0.2l0-0.2l0-0.2l0-0.2l0-0.2l0-0.2l0-0.2l0-0.2l0-0.2l0-0.2l0-0.2l0-0.2l0-0.2l0-0.2l0-0.2l0-0.2l0-0.2l0-0.2l0-0.2l0-0.2l0-0.2
	l0-0.2l0-0.3l0-0.3l0-0.3l0-0.3l0-0.3l0-0.3l0-0.3l0-0.3l0-0.4l0-0.4l0-0.4l0-0.5l0-0.5l0-0.6l0-0.8l0-1.4l0-2.6l0-0.9l0-0.7l0-0.5
	l0-0.5l0-0.4l0-0.4l0-0.4l0-0.3l0-0.3l0-0.3l0-0.3l0-0.3l0-0.3l0-0.3l0-0.3l0-0.2l0-0.2l0-0.2l0-0.2l0-0.2l0-0.2l0-0.2l0-0.2l0-0.2
	l0-0.2l0-0.2l0-0.2l0-0.2l0-0.2l0-0.2l0-0.2l0-0.2l0-0.2l0-0.2l0-0.2l0-0.2l0-0.2l0-0.2l0-0.1l0-0.1l0-0.1l0-0.1L79,7l0-0.1l0-0.1
	l0-0.1l0-0.1l0.1-0.1l0.1-0.1L79.3,6l0.1-0.1l0.1-0.1l0.1-0.1l0.1-0.1l0.1-0.1l0.1-0.1l0.1-0.1l0.1-0.1L79.9,5l0.1-0.1L80,4.8
	l0.1-0.1l0.1-0.1l0.1-0.1l0.1-0.1l0.1-0.1l0.1-0.1l0.1-0.1L80.6,4l0.1-0.1l0.1-0.1l0.1-0.1l0.1-0.1l0.1-0.1L81,3.4l0.1-0.1l0.1-0.1
	l0.1-0.1l0.1-0.1L81.5,3l0.1-0.1l0.1-0.1l0.1-0.1l0.1-0.1l0.1-0.1L82,2.5l0.1-0.1l0.1-0.1l0.1-0.1l0.1-0.1l0.1-0.1l0.1-0.1L82.7,2
	L82.8,2L83,1.9l0.1-0.1l0.1-0.1l0.1-0.1l0.1-0.1l0.1-0.1l0.1-0.1l0.1-0.1l0.1-0.1L84,1.4l0.1-0.1l0.1-0.1l0.1-0.1l0.1,0l0.1,0l0.1,0
	l0.1,0l0.1,0l0.1,0l0.1,0l0.1,0l0.1,0l0.2,0l0.2,0l0.2,0l0.2,0l0.2,0l0.2,0l0.2,0l0.2,0l0.2,0l0.2,0l0.2,0l0.2,0l0.2,0l0.2,0l0.2,0
	l0.2,0l0.2,0l0.2,0l0.2,0l0.2,0l0.2,0l0.2,0l0.2,0l0.2,0l0.3,0l0.3,0l0.3,0l0.3,0l0.3,0l0.3,0l0.3,0l0.3,0L93,0l0.4,0l0.4,0l0.5,0
	l0.5,0l0.6,0l0.8,0l1.3,0l12.8,0l0.9,0l0.7,0l0.6,0l0.5,0l0.4,0l0.4,0l0.4,0l0.4,0l0.3,0l0.3,0l0.3,0l0.3,0l0.3,0l0.3,0l0.3,0l0.3,0
	l0.2,0l0.2,0l0.2,0l0.2,0l0.2,0l0.2,0l0.2,0l0.2,0l0.2,0l0.2,0l0.2,0l0.2,0l0.2,0l0.2,0l0.2,0l0.2,0l0.2,0l0.2,0l0.2,0l0.2,0l0.2,0
	l0.2,0l0.2,0l0.2,0l0.1,0l0.1,0l0.1,0l0.1,0l0.1,0l0.1,0l0.1,0l0.1,0l0.1,0.1l0.1,0.1l0.1,0.1l0.1,0.1l0.1,0.1l0.1,0.1l0.1,0.1
	l0.1,0.1l0.1,0.1l0.1,0.1l0.1,0.1l0.1,0.1l0.1,0.1l0.1,0.1l0.1,0.1l0.1,0.1l0.1,0.1l0.1,0.1l0.1,0.1l0.1,0.1l0.1,0.1l0.1,0.1
	l0.1,0.1l0.1,0.1l0.1,0.1l0.1,0.1l0.1,0.1l0.1,0.1l0.1,0.1l0.1,0.1l0.1,0.1l0.1,0.1l0.1,0.1l0.1,0.1l0.1,0.1l0.1,0.1l0.1,0.1
	l0.1,0.1l0.1,0.1l0.1,0.1l0.1,0.1l0.1,0.1l0.1,0.1l0.1,0.1l0.1,0.1l0.1,0.1l0.1,0.1l0.1,0.1l0.1,0.1l0.1,0.1l0.1,0.1l0.1,0.1
	l0.1,0.1l0.1,0.1l0.1,0.1l0.1,0.1l0.1,0.1l0.1,0.1l0.1,0.1l0.1,0.1l0.1,0.1l0,0.1l0,0.1l0,0.1l0,0.1l0,0.1l0,0.1l0,0.1l0,0.1l0,0.2
	l0,0.2l0,0.2l0,0.2l0,0.2l0,0.2l0,0.2l0,0.2l0,0.2l0,0.2l0,0.2l0,0.2l0,0.2l0,0.2l0,0.2l0,0.2l0,0.2l0,0.2l0,0.2l0,0.2l0,0.2l0,0.2
	l0,0.2l0,0.2l0,0.3l0,0.3l0,0.3l0,0.3l0,0.3l0,0.3l0,0.3l0,0.4l0,0.4l0,0.4l0,0.5l0,0.5l0,0.6l0,0.7l0,1.2V20z M99,31h8
	c7.6,0,12-4.7,12-11.1c0-6.4-4.4-10.9-11.9-10.9H99V31z M95,31h-6V9h6V31z M22,20c0,6.1-4.4,11.5-11,11.5C4.3,31.5,0,26.1,0,20
	C0,13.9,4.4,8.5,11,8.5C17.6,8.5,22,13.9,22,20z M1.7,20c0,5.5,3.9,10,9.3,10c5.4,0,9.3-4.4,9.3-10c0-5.5-3.9-10-9.3-10
	C5.6,10,1.7,14.4,1.7,20z M29.5,31H28V9h1.5l14.9,19.1V9H46v22h-1.2L29.5,11.5V31z M68,31H52.4V9h15.4v1.5H54v8.6h12.4v1.5H54v8.8
	h14V31z M108.2,27.1c0.6,0,1.3-0.1,1.9-0.3c0.1,0,0.2,0,0.3-0.1c0.5-0.1,1.1-0.4,1.7-0.7c0.1-0.1,0.3-0.2,0.4-0.3l0,0
	c0.4-0.3,0.8-0.7,1.3-1.2c0.2-0.2,0.5-0.6,0.6-1c-0.4-0.4-1-0.8-1.5-1.1l-0.1,0c-0.3-0.1-0.7-0.4-1.2-0.6c0,0-0.1,0-0.1-0.1
	c-0.4-0.1-0.8-0.3-0.9-0.7c0-0.3,0.1-0.6,0.3-0.8c0-0.1,0.1-0.1,0.2-0.2c0.6-0.8,1.2-1.9,1.1-3.4c-0.1-1.5-1-2.6-2.6-2.8
	c-0.2,0-0.4,0-0.5,0c-0.2,0-0.4,0-0.5,0c-1.6,0.2-2.5,1.3-2.6,2.8c-0.1,1.5,0.5,2.6,1.1,3.4c0.1,0.1,0.1,0.1,0.2,0.2
	c0.2,0.3,0.4,0.5,0.3,0.8c0,0.4-0.5,0.6-0.9,0.7v0c0,0-0.1,0-0.1,0.1c-0.4,0.2-0.9,0.4-1.2,0.6l-0.1,0c-0.8,0.4-1.7,1-1.9,1.7
	c-0.2,0.9-0.4,2-0.4,2.8h1.4c0.4,0,0.8,0,1.2,0h0C106.5,27.2,107.3,27.2,108.2,27.1z"/>
</svg>
